<?xml version="1.0" encoding="utf-8"?>
<!-- Generator: Adobe Illustrator 26.4.1, SVG Export Plug-In . SVG Version: 6.00 Build 0)  -->
<svg version="1.1" id="Layer_1" xmlns="http://www.w3.org/2000/svg" xmlns:xlink="http://www.w3.org/1999/xlink" x="0px" y="0px"
	 viewBox="0 0 72 82.5" style="enable-background:new 0 0 72 82.5;" xml:space="preserve">
<style type="text/css">
	.st0{fill:url(#SVGID_1_);}
	.st1{fill:url(#SVGID_00000123401246638843565660000000562092658904720818_);}
	.st2{fill:url(#SVGID_00000031901027046661740200000012708488178616728494_);}
	.st3{fill:url(#SVGID_00000034068720888538064180000011219799627001630117_);}
	.st4{fill:url(#SVGID_00000070108085563549388250000007483450268631759263_);}
	.st5{fill:url(#SVGID_00000088110102153522530370000015752662242150663316_);}
	.st6{fill:url(#SVGID_00000004542179451645739680000011420363757161879695_);}
	.st7{fill:url(#SVGID_00000098211418297204999830000000534959274418525100_);}
	.st8{fill:url(#SVGID_00000150809896557405233710000010004372447595217061_);}
	.st9{fill:#805B2A;}
	.st10{fill:#FFFFFF;}
	.st11{fill:url(#SVGID_00000061462132700521686290000014398434354116194194_);}
	.st12{fill:url(#SVGID_00000058547541742999716780000017461558303020786862_);}
	.st13{fill:url(#SVGID_00000098912463456497535920000018026393732189165963_);}
	.st14{fill:url(#SVGID_00000104694392838896204210000013817255896731548289_);}
	.st15{fill:url(#SVGID_00000082351058763800586510000011277348293533980556_);}
</style>
<radialGradient id="SVGID_1_" cx="-54.4496" cy="355.8443" r="2.371" gradientTransform="matrix(1.8454 0.3496 0.8278 -4.3304 -127.6812 1605.7728)" gradientUnits="userSpaceOnUse">
	<stop  offset="0" style="stop-color:#FFE16E"/>
	<stop  offset="0.461" style="stop-color:#FFD226"/>
	<stop  offset="0.741" style="stop-color:#F8C21D"/>
	<stop  offset="0.999" style="stop-color:#F0AF13"/>
</radialGradient>
<path class="st0" d="M64.9,38.9c2-0.6,6.9-0.2,7.1,5.4c0.2,5.4-1.2,7.8-3.1,10.1C66.8,57,63,57,63.3,55
	C63.7,52.9,64.9,38.9,64.9,38.9z"/>
<radialGradient id="SVGID_00000036933728331773995610000001257493759424153257_" cx="-1295.8873" cy="334.7649" r="2.371" gradientTransform="matrix(-1.8358 0.3496 -0.8236 -4.3304 -2097.7505 1948.4269)" gradientUnits="userSpaceOnUse">
	<stop  offset="0" style="stop-color:#FFE16E"/>
	<stop  offset="0.461" style="stop-color:#FFD226"/>
	<stop  offset="0.741" style="stop-color:#F8C21D"/>
	<stop  offset="0.999" style="stop-color:#F0AF13"/>
</radialGradient>
<path style="fill:url(#SVGID_00000036933728331773995610000001257493759424153257_);" d="M7.1,38.9C5,38.3,0,38.7,0,44.3
	c0,5.5,1.2,7.8,3.1,10.1C5.2,57,8.9,57,8.6,55C8.3,52.9,7.1,38.9,7.1,38.9z"/>
<radialGradient id="SVGID_00000179636507057647913010000011442207569643426980_" cx="-61.0769" cy="255.8459" r="18.5822" fx="-61.1749" fy="247.8852" gradientTransform="matrix(1.7462 0 0 -2.1414 142.6385 588.2024)" gradientUnits="userSpaceOnUse">
	<stop  offset="0" style="stop-color:#FFE16E"/>
	<stop  offset="0.629" style="stop-color:#FFD226"/>
	<stop  offset="0.75" style="stop-color:#FDCD23"/>
	<stop  offset="0.899" style="stop-color:#F6BD1B"/>
	<stop  offset="0.999" style="stop-color:#F0AF13"/>
</radialGradient>
<path style="fill:url(#SVGID_00000179636507057647913010000011442207569643426980_);" d="M68,39.2c0,7.4-0.5,16.9-3.3,22.8
	C59,73.5,44.2,80.7,36,80.7c-8.5,0-23.2-7.1-28.8-18.6C4.3,56.2,4,46.6,4,39.2c0-1.6,0-3.1,0.1-4.6c0.5-8.3,2.4-14.1,5.2-19.4
	C15.1,4.8,24.9,0,36,0c11,0,20.8,4.7,26.5,15.1C66,21.4,68,28.3,68,39.2z"/>
<radialGradient id="SVGID_00000078765057655448594150000000208268028146829219_" cx="-223.624" cy="280.1504" r="2.511" gradientTransform="matrix(2.639 0 0 -2.639 626.1857 792.7691)" gradientUnits="userSpaceOnUse">
	<stop  offset="0.62" style="stop-color:#CC9000"/>
	<stop  offset="0.862" style="stop-color:#EEBD20;stop-opacity:0.363"/>
	<stop  offset="1" style="stop-color:#FED12E;stop-opacity:0"/>
</radialGradient>
<path style="fill:url(#SVGID_00000078765057655448594150000000208268028146829219_);" d="M36,55.5c-2.2,0-4-0.6-5.2-1.2
	c-0.8-0.5-1.7-0.3-1.1,1.2c0.7,2,2.4,4.3,6.3,4.3c3.8,0,5.5-2.3,6.2-4.2c0.6-1.5-0.3-1.7-1-1.3C39.9,54.9,38.2,55.5,36,55.5z"/>
<radialGradient id="SVGID_00000093145913629898189080000002709322448005247419_" cx="-208.8969" cy="227.0467" r="3.799" gradientTransform="matrix(2.1854 0 0 -2.1854 492.2359 563.5329)" gradientUnits="userSpaceOnUse">
	<stop  offset="0.696" style="stop-color:#CC9000"/>
	<stop  offset="0.779" style="stop-color:#D39806;stop-opacity:0.728"/>
	<stop  offset="0.909" style="stop-color:#E7AF18;stop-opacity:0.298"/>
	<stop  offset="1" style="stop-color:#F8C327;stop-opacity:0"/>
</radialGradient>
<path style="fill:url(#SVGID_00000093145913629898189080000002709322448005247419_);" d="M35.9,70.3c-8.3,0-8.6-4.9-8.6-4.9
	s0.2,9.7,8.6,9.7s8.6-9.7,8.6-9.7S44.2,70.3,35.9,70.3z"/>
<radialGradient id="SVGID_00000026124351818397291750000017961595045590890123_" cx="-16.5177" cy="27.8814" r="5.8615" fx="-16.5217" fy="28.1014" gradientTransform="matrix(1.5818 0 0 -0.9532 62.1099 91.6361)" gradientUnits="userSpaceOnUse">
	<stop  offset="0.371" style="stop-color:#FFD226"/>
	<stop  offset="0.948" style="stop-color:#FFE16E"/>
	<stop  offset="1" style="stop-color:#FFE16E;stop-opacity:0"/>
</radialGradient>
<path style="fill:url(#SVGID_00000026124351818397291750000017961595045590890123_);" d="M45.1,64.7c0,0,0.1,6-9.1,6s-9.1-6-9.1-6
	s2,1.8,9.1,1.8S45.1,64.7,45.1,64.7z"/>
<radialGradient id="SVGID_00000073712467468382586040000008059113922866467476_" cx="-61.0949" cy="143.3742" r="4.691" gradientTransform="matrix(1.6666 0 0 -1.3406 137.9319 256.722)" gradientUnits="userSpaceOnUse">
	<stop  offset="0" style="stop-color:#1C1911"/>
	<stop  offset="0.999" style="stop-color:#171714"/>
</radialGradient>
<path style="fill:url(#SVGID_00000073712467468382586040000008059113922866467476_);" d="M27.5,64.7c-0.5,0-0.8,0.4-0.5,0.8
	c1.8,2.5,6,3.2,9,3.2c3.3,0,7.2-0.8,9-3.2c0.2-0.3,0-0.8-0.5-0.8C38,64.7,34,64.7,27.5,64.7z"/>
<radialGradient id="SVGID_00000010274610674607292540000014690160308150459821_" cx="-307.24" cy="207.6851" r="2.2366" gradientTransform="matrix(2.9098 0 -8.200000e-03 -1.6424 931.7643 392.873)" gradientUnits="userSpaceOnUse">
	<stop  offset="0.479" style="stop-color:#FED53F"/>
	<stop  offset="0.926" style="stop-color:#FED53F;stop-opacity:0.141"/>
	<stop  offset="1" style="stop-color:#FED53F;stop-opacity:0"/>
</radialGradient>
<path style="fill:url(#SVGID_00000010274610674607292540000014690160308150459821_);" d="M43,51.9c-0.1,2.2-3.2,3.9-7.1,3.9
	s-6.9-2-6.9-4.2s3.2-3.9,7.1-3.9S43,49.7,43,51.9z"/>
<radialGradient id="SVGID_00000107547507815528708130000016592722820551856822_" cx="-112.5149" cy="89.9834" r="1.7929" gradientTransform="matrix(2 0 0 -1.1156 261.0139 152.8035)" gradientUnits="userSpaceOnUse">
	<stop  offset="4.000000e-03" style="stop-color:#FFF4C9"/>
	<stop  offset="1" style="stop-color:#FFF4C9;stop-opacity:0"/>
</radialGradient>
<ellipse style="fill:url(#SVGID_00000107547507815528708130000016592722820551856822_);" cx="36" cy="52.4" rx="3.6" ry="2"/>
<path class="st9" d="M12,43.8c-0.1,0.9,0.1,0.8,0.5,1.2c0,0,4,5.3,16.1,1.7c0.9-0.3,1.5-0.9,1.4-1.5C28.4,33.5,14,34.9,12,43.8z"/>
<path class="st10" d="M12.2,43.6c-0.3,0.6-0.2,1.1,0,1.6C13,47.4,20,55.2,29.3,47c0.7-0.6,0.8-1.1,0.6-1.8c-0.2-0.7-2.6-6.6-8.9-6.6
	C14.7,38.7,12.7,42.8,12.2,43.6z"/>
<linearGradient id="SVGID_00000116935394701395045420000004306930070829277859_" gradientUnits="userSpaceOnUse" x1="-122.5139" y1="243.5578" x2="-117.5139" y2="243.5578" gradientTransform="matrix(2 0 0 -2 261.0139 530.7837)">
	<stop  offset="0" style="stop-color:#C69C6D"/>
	<stop  offset="1" style="stop-color:#754C24"/>
</linearGradient>
<circle style="fill:url(#SVGID_00000116935394701395045420000004306930070829277859_);" cx="21" cy="43.7" r="5"/>
<radialGradient id="SVGID_00000017489392845366471950000010248520574228601245_" cx="-120.0139" cy="243.5578" r="1.266" gradientTransform="matrix(2 0 0 -2 261.0139 530.7837)" gradientUnits="userSpaceOnUse">
	<stop  offset="0" style="stop-color:#1C1911"/>
	<stop  offset="0.999" style="stop-color:#171714"/>
</radialGradient>
<circle style="fill:url(#SVGID_00000017489392845366471950000010248520574228601245_);" cx="21" cy="43.7" r="2.5"/>
<path class="st9" d="M60,43.7c0.1,0.9-0.1,0.8-0.5,1.2c0,0-4,5.3-16.1,1.7c-0.9-0.3-1.5-0.9-1.4-1.5C43.5,33.4,58,34.8,60,43.7z"/>
<path class="st10" d="M59.8,43.6c0.3,0.6,0.2,1.1,0,1.6c-0.9,2.2-7.8,9.9-17.1,1.8c-0.7-0.6-0.8-1.1-0.6-1.8
	c0.2-0.7,2.6-6.6,8.9-6.6C57.3,38.7,59.3,42.8,59.8,43.6z"/>
<linearGradient id="SVGID_00000117654612234602015860000000005385888083487912_" gradientUnits="userSpaceOnUse" x1="-121.5139" y1="243.5578" x2="-116.5139" y2="243.5578" gradientTransform="matrix(2 0 0 -2 289.0139 530.7837)">
	<stop  offset="0" style="stop-color:#C69C6D"/>
	<stop  offset="1" style="stop-color:#754C24"/>
</linearGradient>
<circle style="fill:url(#SVGID_00000117654612234602015860000000005385888083487912_);" cx="51" cy="43.7" r="5"/>
<radialGradient id="SVGID_00000007396784199936989470000017956512714409248395_" cx="-1458.0139" cy="243.5578" r="1.266" gradientTransform="matrix(-2 0 0 -2 -2865.0417 530.7837)" gradientUnits="userSpaceOnUse">
	<stop  offset="0" style="stop-color:#1C1911"/>
	<stop  offset="0.999" style="stop-color:#171714"/>
</radialGradient>
<circle style="fill:url(#SVGID_00000007396784199936989470000017956512714409248395_);" cx="51" cy="43.7" r="2.5"/>
<circle class="st10" cx="19" cy="41.7" r="1"/>
<circle class="st10" cx="49" cy="41.7" r="1"/>
<g>
	<path class="st9" d="M15.2,32.8c0.9-0.4,1.8-0.6,2.7-0.9c0.9-0.2,1.8-0.5,2.7-0.6c1.8-0.4,3.7-0.6,5.5-0.8l0,0
		c1.1-0.1,2.1,0.7,2.2,1.8s-0.7,2.1-1.8,2.2c-0.1,0-0.3,0-0.4,0c-1.7-0.2-3.5-0.3-5.2-0.2c-0.9,0-1.7,0-2.6,0.1
		c-0.8,0.1-1.8,0.2-2.5,0.3l-0.1,0c-0.5,0.1-1.1-0.3-1.2-0.8C14.5,33.5,14.7,33,15.2,32.8z"/>
</g>
<g>
	<path class="st9" d="M55.9,34.5c-0.8-0.1-1.7-0.2-2.6-0.2c-0.9,0-1.8,0-2.6,0c-1.8,0-3.5,0.1-5.2,0.3c-1.1,0.1-2.1-0.7-2.2-1.8
		c-0.1-1.1,0.7-2.1,1.8-2.2c0.1,0,0.3,0,0.4,0c1.8,0.2,3.7,0.4,5.5,0.7c0.9,0.2,1.8,0.3,2.7,0.6c0.9,0.2,1.8,0.4,2.7,0.8
		c0.5,0.2,0.8,0.7,0.6,1.3C56.9,34.3,56.4,34.6,55.9,34.5L55.9,34.5z"/>
</g>
<radialGradient id="SVGID_00000137114927436840347140000014041976019093234358_" cx="-109.5413" cy="234.2842" r="13.563" gradientTransform="matrix(1.9584 0 0 -1.9584 250.6357 513.1152)" gradientUnits="userSpaceOnUse">
	<stop  offset="0" style="stop-color:#C69C6D"/>
	<stop  offset="1.400000e-02" style="stop-color:#C3996A"/>
	<stop  offset="0.16" style="stop-color:#AB8155"/>
	<stop  offset="0.313" style="stop-color:#9A7045"/>
	<stop  offset="0.478" style="stop-color:#8F653C"/>
	<stop  offset="0.676" style="stop-color:#8C6239"/>
	<stop  offset="0.768" style="stop-color:#875D34"/>
	<stop  offset="0.882" style="stop-color:#774E27"/>
	<stop  offset="0.999" style="stop-color:#603813"/>
</radialGradient>
<path style="fill:url(#SVGID_00000137114927436840347140000014041976019093234358_);" d="M67.9,42.3c0,0,0.2,15-11.5,22
	c-2.9,1.9-4.9,0.2-5.7-0.8c-1-1.3-4.4-5.7-14.7-5.7c0,0,0,0,0,0c-0.2,0-0.4,0-0.6,0c-0.1,0-0.2,0-0.3,0c0,0,0,0,0,0
	c-10.2,0-12.8,4.4-13.8,5.7c-0.8,1-2.7,2.7-5.7,0.8c-11.7-7-11.5-22-11.5-22c-1.3,25.1,13.3,40.1,32,40.2v0c0,0,0,0,0.1,0s0,0,0.1,0
	v0C54.9,82.4,69.2,67.4,67.9,42.3z M44.3,74.3c-2.7,1.1-4-1.2-8.3-1.3v0c0,0,0,0,0,0c0,0,0,0,0,0v0c-4.3,0-5.5,2.4-8.2,1.3
	c-3.8-1.6-2.7-9.7,0-11.7c0,0,1.4,0,3.9,0h7.8c6,0,5.9,0,5.9,0C47.9,64.6,48.1,72.8,44.3,74.3z"/>
</svg>
