<?xml version="1.0" encoding="utf-8"?>
<!-- Generator: Adobe Illustrator 26.4.1, SVG Export Plug-In . SVG Version: 6.00 Build 0)  -->
<svg version="1.1" id="Layer_1" xmlns="http://www.w3.org/2000/svg" xmlns:xlink="http://www.w3.org/1999/xlink" x="0px" y="0px"
	 viewBox="0 0 86 90" style="enable-background:new 0 0 86 90;" xml:space="preserve">
<style type="text/css">
	.st0{fill:url(#SVGID_1_);}
	.st1{fill:url(#SVGID_00000148631544850465231750000001525294267568437434_);}
	.st2{fill:#616161;}
	.st3{fill:url(#SVGID_00000083062062875567592640000004263579087477970825_);}
	.st4{fill:url(#SVGID_00000098933416257626269930000018131084872777441957_);}
	.st5{fill:url(#SVGID_00000090263206678918617760000012971662135073279913_);}
	.st6{fill:url(#SVGID_00000090253899397371431750000008976039260498255532_);}
	.st7{fill:url(#SVGID_00000147218491406913766840000012866061125954316718_);}
	.st8{fill:#333333;}
	.st9{fill:#2F2F2F;}
	.st10{fill:#2C2C2C;}
	.st11{fill:#282828;}
	.st12{fill:#252525;}
	.st13{fill:#212121;}
	.st14{fill:#1E1E1E;}
	.st15{fill:#1A1A1A;}
	.st16{fill:url(#SVGID_00000031182903779717650840000006366918461984844969_);}
	.st17{fill:#2E2E2E;}
	.st18{fill:#2A2A2A;}
	.st19{fill:#272727;}
	.st20{fill:#232323;}
	.st21{fill:#404040;}
	.st22{fill:#242424;}
	.st23{fill:url(#SVGID_00000065768182031573326960000015791591132464606890_);}
	.st24{fill:url(#SVGID_00000014632994100157423070000012144905413410301357_);}
	.st25{fill:url(#SVGID_00000165225123716380162750000014200186971051981739_);}
	.st26{fill:url(#SVGID_00000052801082826031836340000017822488080801040552_);}
	.st27{fill:url(#SVGID_00000160886179612499838730000002577635446226038709_);}
	.st28{fill:url(#SVGID_00000116221898209351455460000004484182556220001468_);}
	.st29{fill:#805B2A;}
	.st30{fill:#FFFFFF;}
	.st31{fill:url(#SVGID_00000107566981891447749050000006535905698353158302_);}
	.st32{fill:url(#SVGID_00000108302657598861852880000013559960384608898458_);}
	.st33{fill:url(#SVGID_00000168807529245440849700000017298905026191449502_);}
	.st34{fill:url(#SVGID_00000134213463908581306990000007359283322098750375_);}
	.st35{fill:url(#SVGID_00000146485417958846300220000017258318902741650869_);}
	.st36{fill:url(#SVGID_00000120557825136820506130000016357986772895246215_);}
	.st37{fill:url(#SVGID_00000095329959861082629150000018337618242792926354_);}
	.st38{fill:url(#SVGID_00000147932716488595174330000015532549714029663151_);}
	.st39{fill:#3B3B3B;}
	.st40{fill:#363636;}
	.st41{fill:#323232;}
	.st42{fill:#2D2D2D;}
	.st43{fill:#1F1F1F;}
	.st44{fill:url(#SVGID_00000176038288822695651240000006444370980302201998_);}
	.st45{fill:#1D1D1D;}
	.st46{fill:#202020;}
	.st47{fill:#303030;}
</style>
<linearGradient id="SVGID_1_" gradientUnits="userSpaceOnUse" x1="-197.8487" y1="211.6777" x2="-193.8482" y2="211.6777" gradientTransform="matrix(1.877 -0.6904 -0.6904 -1.877 517.9271 291.1064)">
	<stop  offset="0" style="stop-color:#546E7A"/>
	<stop  offset="0.25" style="stop-color:#90A4AE"/>
	<stop  offset="0.75" style="stop-color:#90A4AE"/>
	<stop  offset="0.863" style="stop-color:#778E98"/>
	<stop  offset="1" style="stop-color:#546E7A"/>
</linearGradient>
<path class="st0" d="M8.6,29.5l-7.5,2.8l-1-2.8c-0.2-0.5,0.1-1.1,0.6-1.3l5.6-2.1c0.5-0.2,1.1,0.1,1.3,0.6L8.6,29.5z"/>
<linearGradient id="SVGID_00000116200264429770779970000004962726217083728567_" gradientUnits="userSpaceOnUse" x1="-197.8499" y1="203.6781" x2="-193.8483" y2="203.6781" gradientTransform="matrix(1.877 -0.6904 -0.6904 -1.877 517.9271 291.1064)">
	<stop  offset="0" style="stop-color:#1A1A1A"/>
	<stop  offset="0.25" style="stop-color:#333333"/>
	<stop  offset="0.75" style="stop-color:#333333"/>
	<stop  offset="0.998" style="stop-color:#1A1A1A"/>
	<stop  offset="1" style="stop-color:#1A1A1A"/>
</linearGradient>
<polygon style="fill:url(#SVGID_00000116200264429770779970000004962726217083728567_);" points="19,57.7 11.5,60.4 0.4,30.4 
	7.9,27.6 "/>
<polygon class="st2" points="6.2,34.6 2.7,33.8 4.9,30.9 8.4,31.7 "/>
<polygon class="st2" points="8.3,40.3 4.8,39.4 6.9,36.5 10.4,37.3 "/>
<polygon class="st2" points="10.4,45.9 6.9,45 9,42.1 12.5,43 "/>
<polygon class="st2" points="12.4,51.5 8.9,50.7 11.1,47.8 14.6,48.6 "/>
<polygon class="st2" points="14.5,57.2 11,56.3 13.1,53.4 16.6,54.2 "/>
<linearGradient id="SVGID_00000060011308090867859000000016541254240096193212_" gradientUnits="userSpaceOnUse" x1="-197.8503" y1="194.678" x2="-193.8499" y2="194.678" gradientTransform="matrix(1.877 -0.6904 -0.6904 -1.877 517.9271 291.1064)">
	<stop  offset="0" style="stop-color:#546E7A"/>
	<stop  offset="0.25" style="stop-color:#90A4AE"/>
	<stop  offset="0.75" style="stop-color:#90A4AE"/>
	<stop  offset="0.863" style="stop-color:#778E98"/>
	<stop  offset="1" style="stop-color:#546E7A"/>
</linearGradient>
<polygon style="fill:url(#SVGID_00000060011308090867859000000016541254240096193212_);" points="20.3,61.4 12.8,64.2 11.5,60.4 
	19,57.7 "/>
<linearGradient id="SVGID_00000005946297237422421120000006489034278153593273_" gradientUnits="userSpaceOnUse" x1="-198.8502" y1="193.1782" x2="-192.8495" y2="193.1782" gradientTransform="matrix(1.877 -0.6904 -0.6904 -1.877 517.9271 291.1064)">
	<stop  offset="0" style="stop-color:#546E7A"/>
	<stop  offset="0.25" style="stop-color:#90A4AE"/>
	<stop  offset="0.75" style="stop-color:#90A4AE"/>
	<stop  offset="0.863" style="stop-color:#778E98"/>
	<stop  offset="1" style="stop-color:#546E7A"/>
</linearGradient>
<path style="fill:url(#SVGID_00000005946297237422421120000006489034278153593273_);" d="M22,62.9l-9.4,3.5
	c-0.5,0.2-1.1-0.1-1.3-0.6l0,0c-0.2-0.5,0.1-1.1,0.6-1.3l9.4-3.5c0.5-0.2,1.1,0.1,1.3,0.6l0,0C22.8,62.2,22.5,62.7,22,62.9z"/>
<linearGradient id="SVGID_00000049179640121745663530000007005303711901099963_" gradientUnits="userSpaceOnUse" x1="-195.8503" y1="194.6784" x2="-195.8503" y2="193.6781" gradientTransform="matrix(1.877 -0.6904 -0.6904 -1.877 517.9271 291.1064)">
	<stop  offset="0" style="stop-color:#78909C;stop-opacity:0"/>
	<stop  offset="1" style="stop-color:#37474F"/>
</linearGradient>
<polygon style="fill:url(#SVGID_00000049179640121745663530000007005303711901099963_);" points="20.3,61.4 12.8,64.2 12.1,62.3 
	19.6,59.5 "/>
<linearGradient id="SVGID_00000172405706912319723590000017069605033667978169_" gradientUnits="userSpaceOnUse" x1="-198.3508" y1="188.6778" x2="-193.3498" y2="188.6778" gradientTransform="matrix(1.877 -0.6904 -0.6904 -1.877 517.9271 291.1064)">
	<stop  offset="0" style="stop-color:#000000"/>
	<stop  offset="0.25" style="stop-color:#262626"/>
	<stop  offset="0.75" style="stop-color:#262626"/>
	<stop  offset="0.92" style="stop-color:#0D0D0D"/>
	<stop  offset="1" style="stop-color:#000000"/>
</linearGradient>
<polygon style="fill:url(#SVGID_00000172405706912319723590000017069605033667978169_);" points="27.5,78 18.1,81.4 12.6,66.4 
	22,62.9 "/>
<g>
	
		<radialGradient id="SVGID_00000091010807400606601000000002615236641205837457_" cx="-100.5006" cy="240.8898" r="19.982" gradientTransform="matrix(2 0 0 -2 249.0006 558.7797)" gradientUnits="userSpaceOnUse">
		<stop  offset="0" style="stop-color:#1A1A1A"/>
		<stop  offset="0.324" style="stop-color:#1D1D1D"/>
		<stop  offset="0.575" style="stop-color:#272727"/>
		<stop  offset="0.8" style="stop-color:#373737"/>
		<stop  offset="1" style="stop-color:#4D4D4D"/>
	</radialGradient>
	<path style="fill:url(#SVGID_00000091010807400606601000000002615236641205837457_);" d="M77,69c-3.9-2.2-29-5-29-5s-25.1,2.8-29,5
		c-9,5-9,21-9,21h38h38C86,90,86,74,77,69z"/>
	<path class="st8" d="M17.1,70.3c0.5,7,2.4,17.6,2.8,19.7h4l-0.3-2C23,84.3,21.3,74.9,21,69.1L21,68.3c-0.9,0.2-1.6,0.5-2,0.7
		C18.3,69.4,17.7,69.8,17.1,70.3z"/>
	<path class="st9" d="M19,69c-0.6,0.4-1.1,0.9-1.6,1.5c0.5,7.1,2.5,17.7,2.8,19.5H24l-0.3-2C23,84.3,21.4,74.9,21,69.1L21,68.3
		C20.1,68.5,19.4,68.8,19,69z"/>
	<path class="st10" d="M19,69c-0.5,0.5-0.9,1-1.3,1.6c0.5,7.2,2.5,17.9,2.8,19.4H24l-0.3-2C23,84.3,21.3,74.9,21,69.1L21,68.3
		C20.1,68.5,19.4,68.8,19,69z"/>
	<path class="st11" d="M19,69c-0.4,0.5-0.7,1.1-1,1.7c0.6,7.3,2.6,18.1,2.8,19.3H24l-0.3-2C23,84.3,21.4,74.9,21,69.1L21,68.3
		C20.1,68.5,19.4,68.8,19,69z"/>
	<path class="st12" d="M19,69c-0.3,0.6-0.5,1.2-0.7,1.8c0.6,7.4,2.6,18.3,2.8,19.2H24l-0.3-2C23,84.3,21.4,74.9,21,69.1L21,68.3
		C20.1,68.5,19.5,68.8,19,69z"/>
	<path class="st13" d="M19,69c-0.2,0.6-0.3,1.3-0.4,1.9c0.6,7.5,2.7,18.5,2.8,19.1H24l-0.3-2C23,84.3,21.3,74.9,21,69.1L21,68.3
		C20.1,68.5,19.5,68.8,19,69z"/>
	<path class="st14" d="M19,69c-0.1,0.6-0.1,1.3-0.1,2.1c0.6,7.6,2.8,18.7,2.8,19H24l-0.3-2C23,84.3,21.4,74.9,21,69.1L21,68.3
		C20.1,68.5,19.5,68.8,19,69z"/>
	<path class="st15" d="M21,69.1L21,68.3c-0.9,0.2-1.5,0.5-1.9,0.7c0.4,7.5,3,21,3,21h2l-0.3-2C23,84.3,21.3,74.9,21,69.1z"/>
	<path class="st8" d="M78.9,70.3c-0.5,7-2.4,17.6-2.8,19.7h-4l0.3-2c0.7-3.7,2.3-13.1,2.6-18.9l0.1-0.8c0.9,0.2,1.6,0.5,2,0.7
		C77.7,69.4,78.3,69.8,78.9,70.3z"/>
	<path class="st9" d="M75,68.3c0.9,0.2,1.6,0.5,2,0.7c0.6,0.4,1.1,0.9,1.6,1.5c-0.5,7.1-2.5,17.7-2.8,19.6H72l0.3-2
		c0.7-3.7,2.3-13.1,2.6-18.9L75,68.3z"/>
	<path class="st10" d="M75,68.3c0.9,0.2,1.6,0.5,2,0.7c0.5,0.5,0.9,1,1.3,1.6c-0.5,7.2-2.5,17.9-2.8,19.4H72l0.3-2
		c0.7-3.7,2.3-13.1,2.6-18.9L75,68.3z"/>
	<path class="st11" d="M75,68.3c0.9,0.2,1.5,0.5,2,0.7c0.4,0.5,0.7,1.1,1,1.7C77.4,78,75.4,88.8,75.2,90H72l0.3-2
		c0.7-3.7,2.3-13.1,2.6-18.9L75,68.3z"/>
	<path class="st12" d="M75,68.3c0.9,0.2,1.5,0.5,2,0.7c0.3,0.6,0.5,1.2,0.7,1.8C77.1,78.2,75,89.1,74.9,90H72l0.3-2
		c0.7-3.7,2.3-13.1,2.6-18.9L75,68.3z"/>
	<path class="st13" d="M75,68.3c0.9,0.2,1.5,0.5,2,0.7c0.2,0.6,0.3,1.3,0.4,1.9c-0.6,7.5-2.7,18.5-2.8,19.1H72l0.3-2
		c0.7-3.7,2.3-13.1,2.6-18.9L75,68.3z"/>
	<path class="st14" d="M75,68.3c0.9,0.2,1.5,0.5,2,0.7c0.1,0.6,0.1,1.3,0.1,2.1c-0.6,7.6-2.8,18.7-2.8,19H72l0.3-2
		c0.7-3.7,2.3-13.1,2.6-18.9L75,68.3z"/>
	<path class="st15" d="M75,69.1l0.1-0.8c0.8,0.2,1.5,0.5,1.9,0.7c-0.4,7.5-3,21-3,21h-2l0.3-2C73,84.3,74.6,74.9,75,69.1z"/>
	
		<radialGradient id="SVGID_00000010280649097767169480000014740803477624865192_" cx="-100.5006" cy="241.3898" r="17.172" gradientTransform="matrix(2 0 0 -2 249.0006 558.7797)" gradientUnits="userSpaceOnUse">
		<stop  offset="0" style="stop-color:#1F1F1F"/>
		<stop  offset="0.336" style="stop-color:#2B2B2B"/>
		<stop  offset="0.933" style="stop-color:#494949"/>
		<stop  offset="1" style="stop-color:#4D4D4D"/>
	</radialGradient>
	<path style="fill:url(#SVGID_00000010280649097767169480000014740803477624865192_);" d="M76.2,67.3L48,62l-28.2,5.3
		c-0.5,0.1-0.8,0.5-0.8,1c0.2,7.3,3,21.7,3,21.7h52c0,0,2.8-14.4,3-21.7C77,67.8,76.6,67.4,76.2,67.3z"/>
	<g>
		<path class="st17" d="M29.9,65.4l-2,0.4l0.2,0.5c2.9,6.1,7.7,14.1,14,23.7h2.4C36.4,77.7,32.2,70,29.9,65.4z"/>
		<path class="st10" d="M45.4,90h-2.9c-6.6-10-11.3-18-14.1-23.8l0.5-0.6c0.3,0.6,2.6,1.3,3.6,2.8C34.5,72.5,38.3,79.3,45.4,90z"/>
		<path class="st18" d="M46.2,90h-3.4C36,79.6,31.4,71.7,28.6,66l1.3-0.6c0.6,1.2,3.2,2.9,5.2,5.9C36.9,75,40.2,80.9,46.2,90z"/>
		<path class="st11" d="M47.1,90h-3.9c-7.1-10.8-11.6-18.7-14.3-24.1l2-0.7c0.9,1.8,3.8,4.6,6.7,9.1C39.3,77.5,42.1,82.4,47.1,90z"
			/>
		<path class="st19" d="M47.9,90h-4.4c-7.4-11.1-11.8-19-14.4-24.2L32,65c1.2,2.4,4.3,6.2,8.3,12.3C41.7,80,44,84,47.9,90z"/>
		<path class="st12" d="M48.8,90h-5c-7.6-11.5-12-19.3-14.4-24.3l3.6-0.8c1.5,3.1,4.9,7.9,9.9,15.4C44,82.4,45.9,85.6,48.8,90z"/>
		<path class="st20" d="M49.7,90h-5.5C36.3,78.1,32,70.4,29.7,65.5l4.3-0.9c1.9,3.7,5.5,9.5,11.4,18.6C46.4,84.9,47.8,87.1,49.7,90z
			"/>
		<path class="st13" d="M50.5,90h-6c-8.1-12.3-12.4-20-14.6-24.6l5.1-1c2.2,4.3,6,11.2,13,21.8C48.8,87.4,49.6,88.7,50.5,90z"/>
	</g>
	<g>
		<path class="st17" d="M51.5,90h2.4c6.4-9.7,11.1-17.7,14-23.7l0.2-0.5l-2-0.4C63.8,70,59.6,77.7,51.5,90z"/>
		<path class="st10" d="M50.6,90h2.9c6.6-10,11.3-18,14.1-23.8l-0.5-0.6c-0.3,0.6-2.6,1.3-3.6,2.8C61.5,72.5,57.7,79.3,50.6,90z"/>
		<path class="st18" d="M49.8,90h3.4C60,79.6,64.6,71.7,67.4,66l-1.3-0.6c-0.6,1.2-3.2,2.9-5.2,5.9C59.1,75,55.8,80.9,49.8,90z"/>
		<path class="st11" d="M48.9,90h3.9c7.1-10.8,11.6-18.7,14.3-24.1l-2-0.7c-0.9,1.8-3.8,4.6-6.7,9.1C56.7,77.5,53.9,82.4,48.9,90z"
			/>
		<path class="st19" d="M48.1,90h4.4c7.4-11.1,11.8-19,14.4-24.2L64,65c-1.2,2.4-4.3,6.2-8.3,12.3C54.3,80,52,84,48.1,90z"/>
		<path class="st12" d="M47.2,90h5c7.6-11.5,12-19.3,14.4-24.3L63,64.8c-1.5,3.1-4.9,7.9-9.9,15.4C52,82.4,50.1,85.6,47.2,90z"/>
		<path class="st20" d="M46.3,90h5.5C59.7,78.1,64,70.4,66.3,65.5L62,64.6c-1.9,3.7-5.5,9.5-11.4,18.6C49.6,84.9,48.2,87.1,46.3,90z
			"/>
		<path class="st13" d="M45.5,90h6c8.1-12.3,12.4-20,14.6-24.6l-5.1-1c-2.2,4.3-6,11.2-13,21.8C47.2,87.4,46.4,88.7,45.5,90z"/>
	</g>
	<path class="st21" d="M66.1,65.4C63.8,70,59.6,77.7,51.5,90h-6c0.9-1.3,1.7-2.6,2.5-3.8c6.9-10.5,10.8-17.4,13-21.7h0L66.1,65.4z"
		/>
	<path class="st21" d="M50.5,90h-6c-8.1-12.3-12.4-20-14.6-24.6l5.1-1c2.2,4.3,6,11.2,13,21.8C48.8,87.4,49.6,88.7,50.5,90z"/>
	<path class="st22" d="M48.9,84.8c-0.3,0.5-0.6,0.9-0.9,1.4c0,0,0,0,0,0c0,0,0,0,0,0c0.8,1.2,1.6,2.5,2.5,3.8h1L48.9,84.8z"/>
</g>
<g>
	
		<radialGradient id="SVGID_00000176025426404181379360000011670529915011035812_" cx="-14.3694" cy="366.9903" r="1.844" gradientTransform="matrix(1.8454 0.3496 0.8278 -4.3304 -206.0663 1637.1183)" gradientUnits="userSpaceOnUse">
		<stop  offset="0" style="stop-color:#FFE16E"/>
		<stop  offset="0.461" style="stop-color:#FFD226"/>
		<stop  offset="0.741" style="stop-color:#F8C21D"/>
		<stop  offset="0.999" style="stop-color:#F0AF13"/>
	</radialGradient>
	<path style="fill:url(#SVGID_00000176025426404181379360000011670529915011035812_);" d="M70,37.5c1.6-0.5,5.4-0.2,5.5,4.2
		c0.1,4.2-1,6.1-2.4,7.9c-1.6,2-4.5,2-4.3,0.4C69.1,48.4,70,37.5,70,37.5z"/>
	
		<radialGradient id="SVGID_00000163040159574003184190000013538342652528870320_" cx="-1185.4441" cy="345.9109" r="1.844" gradientTransform="matrix(-1.8358 0.3496 -0.8236 -4.3304 -1867.4756 1955.1783)" gradientUnits="userSpaceOnUse">
		<stop  offset="0" style="stop-color:#FFE16E"/>
		<stop  offset="0.461" style="stop-color:#FFD226"/>
		<stop  offset="0.741" style="stop-color:#F8C21D"/>
		<stop  offset="0.999" style="stop-color:#F0AF13"/>
	</radialGradient>
	<path style="fill:url(#SVGID_00000163040159574003184190000013538342652528870320_);" d="M25.1,37.5c-1.6-0.5-5.4-0.2-5.5,4.2
		c-0.1,4.2,1,6.1,2.4,7.9c1.6,2,4.5,2,4.3,0.4C26,48.4,25.1,37.5,25.1,37.5z"/>
	
		<radialGradient id="SVGID_00000141440986049354499630000011504575468271989690_" cx="5.6654" cy="-818.6737" r="14.2799" fx="5.5904" fy="-824.7907" gradientTransform="matrix(1.7608 0 0 -2.1414 37.8237 -1715.194)" gradientUnits="userSpaceOnUse">
		<stop  offset="0" style="stop-color:#FFE16E"/>
		<stop  offset="0.629" style="stop-color:#FFD226"/>
		<stop  offset="0.75" style="stop-color:#FDCD23"/>
		<stop  offset="0.899" style="stop-color:#F6BD1B"/>
		<stop  offset="0.999" style="stop-color:#F0AF13"/>
	</radialGradient>
	<path style="fill:url(#SVGID_00000141440986049354499630000011504575468271989690_);" d="M72.9,37.8c0,5.7-1.3,11.1-3.5,15.6
		C65,62.3,57,68.6,47.8,68.6c-9.2,0-17.2-6.2-21.5-15.1c-2.2-4.6-3.5-9.9-3.5-15.6c0-1.3,0-2.4,0.1-3.6c0.4-6.5,1.8-10.9,4.1-15.1
		C31.4,11,39.1,7.3,47.8,7.3c8.7,0,16.3,3.6,20.8,11.8C71.3,23.9,72.9,29.3,72.9,37.8z"/>
	<g>
		
			<radialGradient id="SVGID_00000002358411925519029820000017150104189869748918_" cx="-410.9317" cy="-691.9136" r="1.709" gradientTransform="matrix(2.74 0 0 -2.639 1174.0071 -1774.8339)" gradientUnits="userSpaceOnUse">
			<stop  offset="0.245" style="stop-color:#CC9000"/>
			<stop  offset="0.415" style="stop-color:#D09504;stop-opacity:0.822"/>
			<stop  offset="0.627" style="stop-color:#DCA50F;stop-opacity:0.599"/>
			<stop  offset="0.851" style="stop-color:#EEBD20;stop-opacity:0.363"/>
			<stop  offset="1" style="stop-color:#FED12E;stop-opacity:0"/>
		</radialGradient>
		<path style="fill:url(#SVGID_00000002358411925519029820000017150104189869748918_);" d="M48,52.5c-1.6,0-2.9-0.4-3.7-0.8
			c-0.6-0.3-1.2-0.2-0.8,0.8c0.5,1.4,1.7,3,4.4,3c2.7,0,3.9-1.5,4.4-2.9c0.4-1-0.2-1.1-0.7-0.9C50.8,52.1,49.6,52.5,48,52.5z"/>
		
			<radialGradient id="SVGID_00000168809542853263374130000002572989715716095110_" cx="-410.3426" cy="-1181.1851" r="1.7608" gradientTransform="matrix(2.9654 7.200000e-02 3.440000e-02 -1.4202 1305.6709 -1597.163)" gradientUnits="userSpaceOnUse">
			<stop  offset="0.479" style="stop-color:#FED53F"/>
			<stop  offset="0.926" style="stop-color:#FED53F;stop-opacity:0.141"/>
			<stop  offset="1" style="stop-color:#FED53F;stop-opacity:0"/>
		</radialGradient>
		<path style="fill:url(#SVGID_00000168809542853263374130000002572989715716095110_);" d="M53.7,50.9c0,1.5-2.6,2.7-5.7,2.6
			c-3.1-0.1-5.6-1.4-5.5-2.9s2.6-2.7,5.7-2.6C51.3,48.1,53.8,49.4,53.7,50.9z"/>
		
			<radialGradient id="SVGID_00000179631617918765810680000006385794910816822711_" cx="-100.3836" cy="-1483.3026" r="1.4112" gradientTransform="matrix(2 0 0 -1.3192 249.0006 -1906.0588)" gradientUnits="userSpaceOnUse">
			<stop  offset="4.000000e-03" style="stop-color:#FFF4C9"/>
			<stop  offset="1" style="stop-color:#FFF4C9;stop-opacity:0"/>
		</radialGradient>
		<ellipse style="fill:url(#SVGID_00000179631617918765810680000006385794910816822711_);" cx="48.2" cy="50.7" rx="2.8" ry="1.9"/>
	</g>
	<g>
		<path class="st29" d="M28.6,42.5c0,0.7,0.1,0.7,0.4,1c0,0,3.2,4.4,12.8,1.4c0.7-0.2,1.2-0.7,1.1-1.3
			C41.7,33.8,29.4,35.3,28.6,42.5z"/>
		<path class="st30" d="M28.8,42c-0.2,0.5-0.2,0.9,0,1.3c0.7,1.8,6.2,8.3,13.6,1.5c0.6-0.5,0.6-0.9,0.5-1.5
			c-0.1-0.6-2.1-5.5-7.1-5.5C30.8,37.9,29.2,41.3,28.8,42z"/>
		
			<linearGradient id="SVGID_00000152947831627883389740000007736912720798020762_" gradientUnits="userSpaceOnUse" x1="-108.5996" y1="-893.6172" x2="-104.4156" y2="-893.6172" gradientTransform="matrix(2 0 0 -2 249.0006 -1745.2203)">
			<stop  offset="0" style="stop-color:#C69C6D"/>
			<stop  offset="1" style="stop-color:#754C24"/>
		</linearGradient>
		<circle style="fill:url(#SVGID_00000152947831627883389740000007736912720798020762_);" cx="36" cy="42" r="4.2"/>
		
			<radialGradient id="SVGID_00000075878838479497989680000007773290413956407990_" cx="-106.5076" cy="-893.6172" r="1.053" gradientTransform="matrix(2 0 0 -2 249.0006 -1745.2203)" gradientUnits="userSpaceOnUse">
			<stop  offset="0" style="stop-color:#1C1911"/>
			<stop  offset="0.999" style="stop-color:#171714"/>
		</radialGradient>
		<circle style="fill:url(#SVGID_00000075878838479497989680000007773290413956407990_);" cx="36" cy="42" r="2.1"/>
		<circle class="st30" cx="35" cy="40.9" r="1"/>
	</g>
	<g>
		<path class="st29" d="M67.1,42.5c0,0.7-0.1,0.7-0.4,1c0,0-3.2,4.4-12.8,1.4c-0.7-0.2-1.2-0.7-1.1-1.3
			C54.1,33.8,66.4,35.3,67.1,42.5z"/>
		<path class="st30" d="M67,42c0.2,0.5,0.2,0.9,0,1.3c-0.7,1.8-6.2,8.3-13.6,1.5c-0.6-0.5-0.6-0.9-0.5-1.5c0.1-0.6,2.1-5.5,7.1-5.5
			C65,37.9,66.6,41.3,67,42z"/>
		
			<linearGradient id="SVGID_00000004541936362766544460000004012210431235140538_" gradientUnits="userSpaceOnUse" x1="-51.0686" y1="841.2598" x2="-46.8846" y2="841.2598" gradientTransform="matrix(2 0 0 2 157.7566 -1640.5057)">
			<stop  offset="0" style="stop-color:#C69C6D"/>
			<stop  offset="1" style="stop-color:#754C24"/>
		</linearGradient>
		<circle style="fill:url(#SVGID_00000004541936362766544460000004012210431235140538_);" cx="59.8" cy="42" r="4.2"/>
		
			<radialGradient id="SVGID_00000059297162461270150720000013501025366713997739_" cx="-2243.9766" cy="-893.6172" r="1.053" gradientTransform="matrix(-2 0 0 -2 -4428.1499 -1745.2203)" gradientUnits="userSpaceOnUse">
			<stop  offset="0" style="stop-color:#1C1911"/>
			<stop  offset="0.999" style="stop-color:#171714"/>
		</radialGradient>
		<circle style="fill:url(#SVGID_00000059297162461270150720000013501025366713997739_);" cx="59.8" cy="42" r="2.1"/>
		<circle class="st30" cx="58.8" cy="40.9" r="1"/>
	</g>
	<g>
		<path class="st29" d="M64.3,34.8c-2.7-0.7-5.6-0.5-8.1,0.5c-0.8,0.3-1.6-0.1-1.9-0.9c-0.3-0.8,0.1-1.6,0.9-1.9
			c0.1,0,0.2-0.1,0.2-0.1l0,0c3.2-0.6,6.5-0.3,9.4,1c0.4,0.2,0.5,0.6,0.4,1C65.1,34.7,64.7,34.8,64.3,34.8L64.3,34.8z"/>
		<path class="st29" d="M31.7,33.4c2.9-1.3,6.2-1.7,9.4-1l0,0c0.8,0.2,1.3,1,1.2,1.8s-1,1.3-1.8,1.2c-0.1,0-0.2,0-0.3-0.1
			c-2.5-1-5.4-1.2-8.1-0.5l0,0c-0.4,0.1-0.8-0.1-0.9-0.5C31.2,33.9,31.3,33.5,31.7,33.4z"/>
	</g>
	<g>
		
			<radialGradient id="SVGID_00000116196399941281914940000000570244770937775524_" cx="-269.4783" cy="-838.9968" r="2.561" gradientTransform="matrix(2.2218 0 0 -2.6188 646.779 -2138.8889)" gradientUnits="userSpaceOnUse">
			<stop  offset="0.696" style="stop-color:#CC9000"/>
			<stop  offset="1" style="stop-color:#CC9000;stop-opacity:0"/>
		</radialGradient>
		<path style="fill:url(#SVGID_00000116196399941281914940000000570244770937775524_);" d="M48,62.2c-5.7,0-5.9-3.3-5.9-3.3
			s0.1,6.6,5.9,6.6s5.9-6.6,5.9-6.6S53.7,62.2,48,62.2z"/>
		
			<radialGradient id="SVGID_00000141435625225093181030000010374679783093050008_" cx="164.9941" cy="-1938.405" r="3.248" fx="164.9921" fy="-1938.2832" gradientTransform="matrix(1.5906 0 0 -1.1902 -214.4402 -2246.9956)" gradientUnits="userSpaceOnUse">
			<stop  offset="0.371" style="stop-color:#FFD226"/>
			<stop  offset="0.948" style="stop-color:#FFE16E"/>
			<stop  offset="1" style="stop-color:#FFE16E;stop-opacity:0"/>
		</radialGradient>
		<path style="fill:url(#SVGID_00000141435625225093181030000010374679783093050008_);" d="M54.2,59.9c0,0,0.1,3.1-6.2,3.1
			s-6.2-3.1-6.2-3.1s1.4,1.5,6.2,1.5S54.2,59.9,54.2,59.9z"/>
		
			<radialGradient id="SVGID_00000143616144850763574470000004971804113546924720_" cx="77.5601" cy="-2497.6506" r="3.162" gradientTransform="matrix(1.6758 0 0 -0.9944 -81.8934 -2423.845)" gradientUnits="userSpaceOnUse">
			<stop  offset="0" style="stop-color:#1C1911"/>
			<stop  offset="0.999" style="stop-color:#171714"/>
		</radialGradient>
		<path style="fill:url(#SVGID_00000143616144850763574470000004971804113546924720_);" d="M42.2,59.9c-0.3,0-0.5,0.2-0.4,0.4
			c1.2,1.2,4.1,1.6,6.1,1.6c2.2,0,4.9-0.4,6.1-1.6c0.2-0.2,0-0.4-0.4-0.4C49.9,60,46.1,60,42.2,59.9z"/>
	</g>
</g>
<g>
	
		<radialGradient id="SVGID_00000010282997169424881480000013957082185785368755_" cx="-100.5006" cy="261.6398" r="26.011" gradientTransform="matrix(2 0 0 -2 249.0006 558.7797)" gradientUnits="userSpaceOnUse">
		<stop  offset="0" style="stop-color:#616161"/>
		<stop  offset="5.000000e-02" style="stop-color:#5D5D5D"/>
		<stop  offset="1" style="stop-color:#1A1A1A"/>
	</radialGradient>
	<path style="fill:url(#SVGID_00000010282997169424881480000013957082185785368755_);" d="M75,34c0-3,1-5.6,1-8C76,8,63.5,0,48,0
		S20,8,20,26c0,2.4,1,5,1,8c0,2-2,4-2,8c0,11,13.2,29,29,29s29-18,29-29C77,38,75,36,75,34z M70,45c0,3.9-3.1,7-7,7c-7,0-11-6-15-6
		s-8,6-15,6c-3.9,0-7-3.1-7-7v-7.7c0-2.6,1.4-5.1,3.8-6.2c3.1-1.5,8.6-3,18.2-3s15.1,1.5,18.2,3c2.4,1.1,3.8,3.6,3.8,6.2V45z"/>
	<path class="st39" d="M28.4,50.3C27,49,26,47.1,26,45c0,4.2,0.9,7.9,2.2,11c1.3,3.1,3,5.6,4.8,7.6s3.5,3.5,4.8,4.4s2.2,1.5,2.2,1.5
		c-0.5-0.3-2.9-2-5.4-5.2c-1.3-1.6-2.5-3.5-3.6-5.8C29.8,56.1,28.9,53.4,28.4,50.3z"/>
	<path class="st40" d="M26,45c0,3.6,0.5,8.3,1.6,11c1.4,3.1,3.2,5.6,5.1,7.7c1.2,1.3,2.4,2.4,3.5,3.3c0.5,0.4,1.1,0.8,1.5,1.1
		c1.3,0.9,2.2,1.4,2.3,1.4c-0.2-0.1-0.7-0.4-1.4-1c-1.1-0.9-2.7-2.3-4.3-4.4c-1.2-1.6-2.5-3.5-3.6-5.8c-0.7-1.6-1.4-3.3-1.9-5.2
		c-0.2-0.9-0.4-1.9-0.6-2.8C26.8,49,26,47.1,26,45z"/>
	<path class="st41" d="M26,45c0,3,0,8.7,1,11c1.5,3,3.4,5.6,5.4,7.7c1.2,1.3,2.5,2.4,3.6,3.3c0.6,0.4,1.1,0.8,1.6,1.1
		c1.2,0.8,2.1,1.3,2.4,1.4c-0.1-0.1-0.7-0.4-1.5-1.1c-1.2-0.9-2.9-2.4-4.6-4.5c-1.2-1.5-2.5-3.4-3.6-5.7c-0.7-1.5-1.4-3.2-1.9-5.1
		c-0.2-0.9-0.4-1.8-0.6-2.8C26.7,48.9,26,47.1,26,45z"/>
	<path class="st42" d="M26,45c0,2.4-0.4,9.2,0.4,11c1.6,3,3.6,5.6,5.7,7.8c1.2,1.3,2.5,2.3,3.8,3.2c0.6,0.4,1.1,0.8,1.6,1.1
		c1.2,0.8,2.1,1.2,2.5,1.4c-0.1-0.1-0.7-0.4-1.6-1.1c-1.2-0.9-3-2.5-4.8-4.7c-1.2-1.5-2.5-3.4-3.5-5.6c-0.7-1.5-1.4-3.2-1.9-5
		c-0.2-0.9-0.4-1.8-0.6-2.8C26.6,48.9,26,47,26,45z"/>
	<path class="st11" d="M26,45c0,1.8-0.8,9.6-0.2,10.9c1.6,3,3.7,5.6,6,7.8c1.3,1.2,2.6,2.3,3.9,3.2c0.6,0.4,1.2,0.8,1.7,1.1
		c1.1,0.7,2,1.1,2.6,1.4c-0.1-0.1-0.7-0.4-1.6-1.1c-1.3-1-3.2-2.6-5-4.9c-1.2-1.5-2.5-3.3-3.5-5.5c-0.7-1.5-1.4-3.1-1.9-5
		c-0.2-0.9-0.4-1.8-0.6-2.7C26.5,48.9,26,47,26,45z"/>
	<path class="st20" d="M26,45c0,1.2-1.2,10.1-0.8,10.9c1.7,2.9,3.9,5.6,6.3,7.9c1.3,1.2,2.7,2.3,4,3.2c0.6,0.4,1.2,0.8,1.8,1.1
		c1,0.6,2,1.1,2.7,1.3c-0.1,0-0.7-0.4-1.7-1.2c-1.4-1-3.3-2.7-5.3-5c-1.2-1.5-2.4-3.3-3.5-5.4c-0.7-1.5-1.4-3.1-1.9-4.9
		c-0.2-0.9-0.4-1.7-0.6-2.7C26.4,48.8,26,47,26,45z"/>
	<path class="st43" d="M26,45c0,0.6-1.6,10.5-1.4,10.9c1.8,2.9,4.1,5.6,6.6,7.9c1.3,1.2,2.7,2.3,4.2,3.2c0.6,0.4,1.2,0.8,1.8,1.1
		c1,0.5,1.9,1,2.8,1.3c0,0-0.7-0.4-1.8-1.2c-1.4-1-3.5-2.7-5.5-5.2c-1.2-1.5-2.4-3.2-3.4-5.3c-0.7-1.5-1.4-3.1-1.9-4.8
		c-0.2-0.8-0.5-1.7-0.6-2.6C26.3,48.8,26,47,26,45z"/>
	<path class="st15" d="M26,45l-2,10.9c1.9,2.9,4.2,5.6,7,8c1.4,1.2,2.8,2.3,4.3,3.2s3.1,1.7,4.7,2.4c0,0-0.7-0.4-1.9-1.2
		c-1.5-1.1-3.6-2.8-5.7-5.4s-4.1-5.8-5.3-9.9C26.4,50.6,26,48,26,45z"/>
	<g>
		<path class="st39" d="M67.6,50.3C69,49,70,47.1,70,45c0,4.2-0.9,7.9-2.2,11c-1.3,3.1-3,5.6-4.8,7.6c-1.7,2-3.5,3.5-4.8,4.4
			S56,69.5,56,69.5c0.5-0.3,2.9-2,5.4-5.2c1.3-1.6,2.5-3.5,3.6-5.8C66.2,56.1,67.1,53.4,67.6,50.3z"/>
		<path class="st40" d="M70,45c0,3.6-0.5,8.3-1.6,11c-1.4,3.1-3.2,5.6-5.1,7.7c-1.2,1.3-2.4,2.4-3.5,3.3c-0.5,0.4-1.1,0.8-1.5,1.1
			c-1.3,0.9-2.2,1.4-2.3,1.4c0.2-0.1,0.8-0.6,1.7-1.3c1-0.9,2.4-2.1,3.8-3.8c0.5-0.6,0.9-1.2,1.4-1.9c0.8-1.2,1.6-2.5,2.3-3.9
			c0.9-1.8,1.7-3.9,2.2-6.2c0.1-0.6,0.3-1.3,0.4-1.9C69.1,49,70,47.1,70,45z"/>
		<path class="st41" d="M70,45c0,3,0,8.7-1,11c-1.5,3-3.4,5.6-5.4,7.7c-1.2,1.3-2.5,2.4-3.6,3.3c-0.6,0.4-1.1,0.8-1.6,1.1
			c-1.2,0.8-2.1,1.3-2.4,1.4c0.2-0.1,0.8-0.5,1.7-1.3c1-0.8,2.4-2.1,3.8-3.8c0.5-0.6,1-1.2,1.4-1.9c0.8-1.2,1.6-2.5,2.4-3.9
			c0.9-1.8,1.7-3.9,2.3-6.2c0.2-0.6,0.3-1.3,0.4-1.9C69.3,49.1,70,47.1,70,45z"/>
		<path class="st42" d="M70,45c0,2.4,0.4,9.2-0.4,11c-1.6,3-3.6,5.6-5.7,7.8c-1.2,1.3-2.5,2.3-3.8,3.2c-0.6,0.4-1.1,0.8-1.6,1.1
			c-1.2,0.8-2.1,1.2-2.5,1.4c0.1-0.1,0.8-0.5,1.8-1.3c1.1-0.8,2.5-2.1,3.9-3.7c0.5-0.6,1-1.2,1.5-1.8c0.8-1.1,1.7-2.4,2.4-3.9
			c0.9-1.8,1.8-3.9,2.4-6.2c0.2-0.6,0.3-1.3,0.4-1.9C69.4,49.1,70,47.1,70,45z"/>
		<path class="st11" d="M70,45c0,1.8,0.8,9.6,0.2,10.9c-1.6,3-3.7,5.6-6,7.8c-1.3,1.2-2.6,2.3-3.9,3.2c-0.6,0.4-1.2,0.8-1.7,1.1
			c-1.1,0.7-2,1.1-2.6,1.4c0.1-0.1,0.8-0.5,1.8-1.2c1.1-0.8,2.5-2.1,4-3.7c0.5-0.6,1-1.2,1.5-1.8c0.9-1.1,1.7-2.4,2.5-3.8
			c1-1.8,1.8-3.9,2.4-6.2c0.2-0.6,0.3-1.3,0.4-1.9C69.5,49.1,70,47.2,70,45z"/>
		<path class="st20" d="M70,45c0,1.2,1.2,10.1,0.8,10.9c-1.7,2.9-3.9,5.6-6.3,7.9c-1.3,1.2-2.7,2.3-4,3.2c-0.6,0.4-1.2,0.8-1.8,1.1
			c-1,0.6-2,1.1-2.7,1.3c0.1,0,0.8-0.4,1.8-1.2c1.1-0.8,2.5-2,4-3.7c0.5-0.6,1-1.2,1.5-1.8c0.9-1.1,1.7-2.4,2.5-3.8
			c1-1.8,1.9-3.9,2.5-6.2c0.2-0.6,0.3-1.3,0.5-1.9C69.6,49.2,70,47.2,70,45z"/>
		<path class="st43" d="M70,45c0,0.6,1.6,10.5,1.4,10.9c-1.8,2.9-4.1,5.6-6.6,7.9c-1.3,1.2-2.7,2.3-4.2,3.2
			c-0.6,0.4-1.2,0.8-1.8,1.1c-1,0.5-1.9,1-2.8,1.3c0,0,0.8-0.4,1.9-1.2c1.1-0.8,2.5-2,4.1-3.6c0.5-0.6,1-1.2,1.6-1.8
			c0.9-1.1,1.8-2.4,2.6-3.8c1-1.8,1.9-3.9,2.6-6.2c0.2-0.6,0.3-1.3,0.5-1.9C69.7,49.2,70,47.2,70,45z"/>
		<path class="st15" d="M70,45l2,10.9c-1.9,2.9-4.2,5.6-7,8c-1.4,1.2-2.8,2.3-4.3,3.2s-3.1,1.7-4.7,2.4c0,0,0.7-0.4,1.9-1.2
			c1.5-1.1,3.6-2.8,5.7-5.4c2.1-2.5,4.1-5.8,5.3-9.9C69.6,50.6,70,48,70,45z"/>
	</g>
	
		<radialGradient id="SVGID_00000032626384583788711900000000800666028126930104_" cx="-100.5006" cy="262.0178" r="18.878" gradientTransform="matrix(2 0 0 -2 249.0006 558.7797)" gradientUnits="userSpaceOnUse">
		<stop  offset="0" style="stop-color:#4D4D4D"/>
		<stop  offset="1" style="stop-color:#242424"/>
	</radialGradient>
	<path style="fill:url(#SVGID_00000032626384583788711900000000800666028126930104_);" d="M75,34c0-3,1-5.6,1-8C76,8,63.5,0,48,0
		S20,8,20,26c0,2.4,1,5,1,8c0,2-2,4-2,8c0,9.1,9,22.9,21,27.5c0,0-14-7.5-14-24.5v-7.7c0-2.6,1.4-5.1,3.8-6.2c3.1-1.5,8.6-3,18.2-3
		s15.1,1.5,18.2,3c2.4,1.1,3.8,3.6,3.8,6.2V45c0,17-14,24.5-14,24.5C68,64.9,77,51.1,77,42C77,38,75,36,75,34z"/>
	<g>
		<path class="st15" d="M69.8,35.8c-0.1-0.3-0.2-0.7-0.3-1c0,0,0-0.1-0.1-0.2c-0.3-0.8-0.8-1.5-1.3-2.1c0,0,0,0,0,0
			c0,0,0-2.7-0.5-6.4c-0.2-1.8-0.6-3.9-1.2-6c-0.6-2.1-1.4-4.2-2.4-6.2c0.7,1,1.4,2,2,3c0.6,1,1.1,2,1.5,3c0.8,2,1.4,4.1,1.8,6
			c0.8,4,0.8,7.8,0.8,11.2c0-0.4,0-0.8-0.1-1.2C69.9,36,69.8,35.9,69.8,35.8z"/>
		<path class="st45" d="M69.2,34.1c-0.3-0.7-0.7-1.4-1.1-2.1c0-0.1,0-1.4-0.2-3.3c-0.1-0.8-0.2-1.8-0.3-2.9
			c-0.2-1.5-0.5-3.1-0.9-4.7c-0.1-0.4-0.2-0.7-0.3-1.1c-0.3-1-0.6-2-1-3c-0.4-1-0.8-2-1.4-3c0.2,0.2,0.3,0.4,0.5,0.6
			c0.5,0.7,0.9,1.4,1.3,2.1c0.5,1,1,2,1.4,3c0.8,1.9,1.3,3.9,1.7,5.8c0.4,1.8,0.6,3.7,0.7,5.4c0.1,1.5,0.1,2.9,0.1,4.3
			C69.6,34.9,69.4,34.5,69.2,34.1z"/>
		<path class="st46" d="M69,33.7c-0.2-0.7-0.6-1.5-1-2.3c0-0.2-0.1-1.4-0.2-3.2c-0.1-0.8-0.2-1.8-0.3-2.7c-0.2-1.4-0.5-3-0.9-4.5
			c-0.1-0.3-0.2-0.7-0.3-1c-0.3-1-0.6-1.9-0.9-2.8c-0.4-1-0.8-2-1.3-2.9c0.1,0.1,0.2,0.3,0.3,0.4c0.5,0.6,0.8,1.4,1.2,2
			c0.5,0.9,1,1.9,1.3,2.9c0.8,1.9,1.3,3.8,1.6,5.6c0.4,1.8,0.6,3.6,0.7,5.3c0.1,1.4,0.1,2.8,0.2,4.1C69.4,34.3,69.2,34,69,33.7z"/>
		<path class="st20" d="M68.7,33.2c-0.2-0.7-0.5-1.5-0.7-2.3c-0.1-0.3-0.1-1.5-0.2-3.1c-0.1-0.8-0.2-1.7-0.3-2.6
			c-0.2-1.4-0.5-2.9-0.9-4.4c-0.1-0.3-0.2-0.7-0.3-1c-0.3-0.9-0.6-1.8-0.9-2.7c-0.4-1-0.8-1.9-1.2-2.8c0.1,0.1,0.2,0.1,0.2,0.2
			c0.5,0.6,0.8,1.3,1.1,2c0.5,0.9,0.9,1.8,1.3,2.8c0.7,1.8,1.2,3.6,1.6,5.4c0.4,1.8,0.6,3.5,0.7,5.2c0.1,1.4,0.2,2.8,0.2,4.2
			C69.1,33.8,68.9,33.5,68.7,33.2z"/>
		<path class="st19" d="M68.6,33.1c-0.2-0.7-0.4-1.6-0.7-2.7c-0.1-0.4-0.1-1.5-0.2-2.9c-0.1-0.8-0.2-1.6-0.3-2.5
			c-0.2-1.3-0.5-2.7-0.9-4.2c-0.1-0.3-0.2-0.6-0.3-1c-0.2-0.9-0.5-1.8-0.9-2.6c-0.3-0.9-0.7-1.8-1.2-2.7c0,0,0.1,0,0.1,0
			c0.4,0.6,0.7,1.3,1.1,1.9c0.4,0.9,0.8,1.8,1.2,2.7c0.7,1.7,1.2,3.5,1.5,5.2c0.4,1.7,0.6,3.4,0.7,5.1c0.1,1.4,0.2,2.9,0.2,4.3
			C68.9,33.4,68.7,33.2,68.6,33.1z"/>
		<path class="st18" d="M68.4,32.8c-0.1-0.7-0.3-1.7-0.5-3c-0.1-0.6-0.1-1.6-0.3-2.8c-0.1-0.8-0.2-1.6-0.3-2.4
			c-0.2-1.3-0.5-2.6-0.9-4c-0.1-0.3-0.2-0.6-0.3-0.9c-0.2-0.8-0.5-1.7-0.8-2.5c-0.3-0.9-0.7-1.7-1.1-2.6c0-0.1,0-0.2-0.1-0.3
			c0.3,0.6,0.7,1.2,1,1.8c0.4,0.8,0.8,1.7,1.1,2.6c0.6,1.6,1.1,3.3,1.4,5c0.4,1.7,0.6,3.4,0.8,5.1c0.1,1.5,0.2,3,0.2,4.5
			C68.6,33.1,68.5,32.9,68.4,32.8z"/>
		<path class="st42" d="M68.2,32.6c-0.1-0.6-0.2-1.8-0.4-3.3c-0.1-0.7-0.1-1.6-0.3-2.7c-0.1-0.7-0.2-1.5-0.4-2.3
			c-0.2-1.2-0.5-2.5-0.8-3.9c-0.1-0.3-0.2-0.6-0.2-0.9c-0.2-0.8-0.5-1.6-0.8-2.4c-0.3-0.8-0.7-1.7-1-2.5c-0.1-0.2-0.1-0.3-0.2-0.5
			c0.3,0.6,0.6,1.2,0.9,1.8c0.4,0.8,0.7,1.7,1,2.5c0.6,1.5,1,3.2,1.4,4.8c0.4,1.6,0.6,3.3,0.8,5c0.2,1.6,0.2,3.1,0.3,4.7
			C68.4,32.8,68.3,32.7,68.2,32.6z"/>
		<path class="st47" d="M68,32.3c0,0,0-2.6-0.5-6.2c-0.2-1.8-0.6-3.8-1.2-5.9c-0.3-1-0.6-2.1-1-3.2S64.5,15,64,14
			c0.7,1.3,1.3,2.7,1.8,4.1s1,3,1.3,4.6s0.6,3.2,0.8,4.9c0.2,1.6,0.3,3.3,0.3,5v0.1C68.2,32.5,68.1,32.4,68,32.3z"/>
	</g>
	<g>
		<path class="st15" d="M26.2,35.8c0.1-0.3,0.2-0.7,0.3-1c0,0,0-0.1,0.1-0.2c0.3-0.8,0.8-1.5,1.3-2.1c0,0,0,0,0,0c0,0,0-2.7,0.5-6.4
			c0.2-1.8,0.6-3.9,1.2-6c0.6-2.1,1.4-4.2,2.4-6.2c-0.8,1-1.4,2-2,3c-0.6,1-1.1,2-1.5,3c-0.8,2-1.4,4.1-1.8,6
			c-0.8,4-0.8,7.8-0.8,11.2c0-0.4,0-0.8,0.1-1.2C26.1,36,26.2,35.9,26.2,35.8z"/>
		<path class="st45" d="M26.8,34.1c0.3-0.7,0.7-1.4,1.1-2.1c0-0.1,0-1.4,0.2-3.3c0.1-0.8,0.2-1.8,0.3-2.9c0.2-1.5,0.5-3.1,0.9-4.7
			c0.1-0.4,0.2-0.7,0.3-1.1c0.3-1,0.6-2,1-3c0.4-1,0.8-2,1.4-3c-0.2,0.2-0.3,0.4-0.5,0.6c-0.5,0.7-0.9,1.4-1.3,2.1c-0.5,1-1,2-1.4,3
			c-0.8,1.9-1.3,3.9-1.7,5.8c-0.4,1.8-0.6,3.7-0.7,5.4c-0.1,1.5-0.1,2.9-0.1,4.3C26.4,34.9,26.6,34.5,26.8,34.1z"/>
		<path class="st46" d="M27,33.7c0.2-0.7,0.6-1.5,1-2.3c0-0.2,0-1.4,0.2-3.2c0.1-0.8,0.2-1.8,0.3-2.7c0.2-1.4,0.5-3,0.9-4.5
			c0.1-0.3,0.2-0.7,0.3-1c0.3-1,0.6-1.9,0.9-2.8c0.4-1,0.8-2,1.3-2.9c-0.1,0.1-0.2,0.3-0.3,0.4c-0.5,0.6-0.8,1.4-1.2,2
			c-0.5,0.9-1,1.9-1.3,2.9c-0.8,1.9-1.3,3.8-1.6,5.6c-0.4,1.8-0.6,3.6-0.7,5.3c-0.1,1.4-0.1,2.8-0.1,4.1C26.6,34.3,26.8,34,27,33.7z
			"/>
		<path class="st20" d="M27.3,33.2c0.2-0.7,0.5-1.5,0.7-2.3c0.1-0.3,0.1-1.5,0.2-3.1c0.1-0.8,0.2-1.7,0.3-2.6
			c0.2-1.4,0.5-2.9,0.9-4.4c0.1-0.3,0.2-0.7,0.3-1c0.3-0.9,0.6-1.8,0.9-2.7c0.4-1,0.8-1.9,1.2-2.8c-0.1,0.1-0.2,0.1-0.2,0.2
			c-0.5,0.6-0.8,1.3-1.1,2c-0.5,0.9-0.9,1.8-1.3,2.8c-0.7,1.8-1.2,3.6-1.6,5.4c-0.4,1.8-0.6,3.5-0.7,5.2c-0.1,1.4-0.2,2.8-0.2,4.2
			C26.9,33.8,27.1,33.5,27.3,33.2z"/>
		<path class="st19" d="M27.4,33.1c0.2-0.7,0.4-1.6,0.7-2.7c0.1-0.4,0.1-1.5,0.2-2.9c0.1-0.8,0.2-1.6,0.3-2.5
			c0.2-1.3,0.5-2.7,0.9-4.2c0.1-0.3,0.2-0.6,0.3-1c0.2-0.9,0.5-1.8,0.9-2.6c0.3-0.9,0.7-1.8,1.2-2.7c0,0-0.1,0-0.1,0
			c-0.4,0.6-0.7,1.3-1.1,1.9c-0.4,0.9-0.8,1.8-1.2,2.7c-0.7,1.7-1.1,3.5-1.5,5.2c-0.4,1.7-0.6,3.4-0.7,5.1c-0.1,1.4-0.2,2.9-0.2,4.3
			C27.1,33.4,27.3,33.2,27.4,33.1z"/>
		<path class="st18" d="M27.6,32.8c0.1-0.7,0.3-1.7,0.5-3c0.1-0.6,0.1-1.6,0.3-2.8c0.1-0.8,0.2-1.6,0.3-2.4c0.2-1.3,0.5-2.6,0.9-4
			c0.1-0.3,0.2-0.6,0.3-0.9c0.2-0.8,0.5-1.7,0.8-2.5c0.3-0.9,0.7-1.7,1.1-2.6c0-0.1,0-0.2,0.1-0.3c-0.3,0.6-0.7,1.2-1,1.8
			c-0.4,0.8-0.8,1.7-1.1,2.6c-0.6,1.6-1.1,3.3-1.4,5c-0.4,1.7-0.6,3.4-0.8,5.1c-0.1,1.5-0.2,3-0.2,4.5
			C27.4,33.1,27.5,32.9,27.6,32.8z"/>
		<path class="st42" d="M27.8,32.6c0.1-0.6,0.2-1.8,0.4-3.3c0.1-0.7,0.1-1.6,0.3-2.7c0.1-0.7,0.2-1.5,0.4-2.3
			c0.2-1.2,0.5-2.5,0.8-3.9c0.1-0.3,0.2-0.6,0.2-0.9c0.2-0.8,0.5-1.6,0.8-2.4c0.3-0.8,0.7-1.7,1-2.5c0.1-0.2,0.1-0.3,0.2-0.5
			c-0.3,0.6-0.6,1.2-0.9,1.8c-0.4,0.8-0.7,1.7-1,2.5c-0.6,1.5-1,3.2-1.4,4.8c-0.4,1.6-0.6,3.3-0.8,5c-0.2,1.6-0.2,3.1-0.3,4.7
			C27.6,32.8,27.7,32.7,27.8,32.6z"/>
		<path class="st47" d="M28,32.3c0,0,0-2.6,0.5-6.2c0.2-1.8,0.6-3.8,1.2-5.9c0.3-1,0.6-2.1,1-3.2C31.1,16,31.5,15,32,14
			c-0.7,1.3-1.3,2.7-1.8,4.1s-1,3-1.3,4.6s-0.6,3.2-0.8,4.9s-0.3,3.3-0.3,5v0.1C27.8,32.5,27.9,32.4,28,32.3z"/>
	</g>
</g>
</svg>
