<?xml version="1.0" encoding="utf-8"?>
<!-- Generator: Adobe Illustrator 26.4.1, SVG Export Plug-In . SVG Version: 6.00 Build 0)  -->
<svg version="1.1" id="Layer_1" xmlns="http://www.w3.org/2000/svg" xmlns:xlink="http://www.w3.org/1999/xlink" x="0px" y="0px"
	 viewBox="0 0 86.4 72.4" style="enable-background:new 0 0 86.4 72.4;" xml:space="preserve">
<style type="text/css">
	.st0{fill:url(#SVGID_1_);}
	.st1{fill:url(#SVGID_00000047057106159482870950000013983969866071420316_);}
	.st2{fill:#07A056;}
	.st3{fill:#0AAD60;}
	.st4{fill:#11B96B;}
	.st5{fill:#15C26E;}
	.st6{fill:#603813;}
	.st7{fill:url(#SVGID_00000165198329038313175740000013156588519983509892_);}
	.st8{fill:url(#SVGID_00000088101490108284175780000008579602456873676723_);}
	.st9{fill:url(#SVGID_00000126285819495578308300000005152466115927800203_);}
	.st10{opacity:0.1;enable-background:new    ;}
	.st11{fill:url(#SVGID_00000096782115454790044660000006962173653497250982_);}
	.st12{opacity:0.167;fill:#603813;enable-background:new    ;}
	.st13{opacity:0.333;fill:#603813;enable-background:new    ;}
	.st14{opacity:0.5;fill:#603813;enable-background:new    ;}
	.st15{opacity:0.667;fill:#603813;enable-background:new    ;}
	.st16{opacity:0.833;fill:#603813;enable-background:new    ;}
	.st17{fill:url(#SVGID_00000039123758593624296590000005890733494443189158_);}
	.st18{fill:url(#SVGID_00000158713380561868780790000002847897513416226707_);}
	.st19{fill:url(#SVGID_00000121244930404290815590000017182144063470891958_);}
	.st20{fill:url(#SVGID_00000149368142344204306710000017495200461203520955_);}
	.st21{fill:url(#SVGID_00000092428002723023612090000005018855676475941248_);}
	.st22{fill:url(#SVGID_00000070114732501866692210000006090773965178122405_);}
	.st23{fill:#805B2A;}
	.st24{fill:#FFFFFF;}
	.st25{fill:url(#SVGID_00000176764808169159544490000013797241759238254254_);}
	.st26{fill:url(#SVGID_00000031182498991607825830000013959295096713757079_);}
	.st27{fill:url(#SVGID_00000054945563644522888640000012852057330039842471_);}
	.st28{fill:url(#SVGID_00000008112726474682031490000012568386990077141162_);}
	.st29{fill:url(#SVGID_00000042718618835669925830000013583762830493033371_);}
	.st30{fill:url(#SVGID_00000171687087306643342520000011322068021603362191_);}
	.st31{fill:url(#SVGID_00000162349343538764609410000005428518283296395149_);}
</style>
<linearGradient id="SVGID_1_" gradientUnits="userSpaceOnUse" x1="-47.7345" y1="-14.6611" x2="-40.4575" y2="-30.8811" gradientTransform="matrix(1.2148 1.5888 1.5888 -1.2148 138.47 74.1155)">
	<stop  offset="0" style="stop-color:#B8B8B8"/>
	<stop  offset="0.226" style="stop-color:#B1B1B1"/>
	<stop  offset="0.565" style="stop-color:#9C9C9C"/>
	<stop  offset="0.975" style="stop-color:#7A7A7A"/>
	<stop  offset="1" style="stop-color:#787878"/>
</linearGradient>
<path class="st0" d="M38.3,24.3c9.3,0.6,28.4,0.6,28.4,0.6l1.9-3.2l-2.2-2.5C63.5,19.5,39.9,20.1,38.3,24.3z"/>
<linearGradient id="SVGID_00000073696408005848174330000015532865181040376709_" gradientUnits="userSpaceOnUse" x1="-219.52" y1="385.628" x2="-224.804" y2="385.628" gradientTransform="matrix(2 0 0 2 507.6 -749.2031)">
	<stop  offset="0" style="stop-color:#B8B8B8;stop-opacity:0"/>
	<stop  offset="0.5" style="stop-color:#000000"/>
	<stop  offset="0.919" style="stop-color:#B8B8B8;stop-opacity:0"/>
</linearGradient>
<path style="fill:url(#SVGID_00000073696408005848174330000015532865181040376709_);" d="M66.8,24.9c0,0-3.7,0-8.7-0.1
	c-0.7-1.6-0.8-3.4-0.3-5.1c4.2-0.3,7.7-0.4,8.7-0.5l2.3,2.5L66.8,24.9z"/>
<path class="st2" d="M68.7,21.7l-1.9,3.2c4.6,0.9,4.8,1.3,5.9,2.5c1.6,1.9,3.3,4.2,6.2,4.1l2.1-0.1c3.1-0.1,5.6-2.7,5.4-5.9
	c-0.1-3.1-2.7-5.6-5.9-5.4h-0.1c0,0-1.9,0.1-2.6,0.1C74.9,20.9,71.8,21.4,68.7,21.7z M75.1,23.5l0.9-0.2c0.7-0.2,1.4-0.3,2.1-0.4
	c0.5,0,2.2-0.1,2.5-0.1c1.6-0.1,3,1.2,3,2.8c0.1,1.6-1.2,3-2.8,3l0,0l-2.1,0.1c-1.3,0.1-2.4-1.3-3.5-2.5l-0.7-0.8l-0.1-0.1
	c-0.2-0.3-0.3-0.7-0.2-1.1C74.4,23.9,74.7,23.6,75.1,23.5L75.1,23.5z"/>
<path class="st3" d="M68.8,22l-1.7,2.7c4.2,0.8,4.5,1.2,5.5,2.3l0.7,0.8c1.5,1.7,3,3.5,5.5,3.4l2.1-0.1c3-0.2,5.3-2.7,5.1-5.7
	c-0.2-2.9-2.6-5.2-5.6-5.1c0,0-1.9,0.1-2.6,0.1c-0.9,0.1-1.8,0.3-2.6,0.5C73.2,21.5,71,21.9,68.8,22z M75.1,23.5l0.9-0.2
	c0.7-0.2,1.4-0.3,2.1-0.4c0.5,0,2.2-0.1,2.5-0.1c1.6-0.1,3,1.2,3,2.8c0.1,1.6-1.2,3-2.8,3l0,0l-2.1,0.1c-1.3,0.1-2.4-1.3-3.5-2.5
	l-0.7-0.8l-0.1-0.1c-0.2-0.3-0.3-0.7-0.2-1.1C74.4,23.9,74.7,23.6,75.1,23.5L75.1,23.5z"/>
<path class="st4" d="M69,22.2l-1.4,2.3c3.9,0.8,4.3,1.2,5.3,2.4l0.7,0.7c1.4,1.7,2.9,3.4,5.3,3.3l2.1-0.1c2.8-0.1,5-2.5,4.9-5.4
	c-0.1-2.8-2.5-5-5.3-4.9c-0.2,0-1.9,0.1-2.5,0.1c-0.9,0.1-1.7,0.3-2.6,0.5C73.3,21.8,71.2,22.1,69,22.2z M75.1,23.5l0.9-0.2
	c0.7-0.2,1.4-0.3,2.1-0.4c0.5,0,2.2-0.1,2.5-0.1c1.6-0.1,3,1.2,3,2.8c0.1,1.6-1.2,3-2.8,3l0,0l-2.1,0.1c-1.3,0.1-2.4-1.3-3.5-2.5
	l-0.7-0.8l-0.1-0.1c-0.2-0.3-0.3-0.7-0.2-1.1C74.4,23.9,74.7,23.6,75.1,23.5L75.1,23.5z"/>
<path class="st5" d="M69.1,22.5L68,24.4c3.7,0.7,4.1,1.3,5.1,2.4l0.7,0.8c1.4,1.6,2.9,3.3,5.1,3.2l2.1-0.1c2.7-0.1,4.8-2.4,4.7-5.1
	c-0.1-2.7-2.4-4.8-5.1-4.7c-0.2,0-1.9,0.1-2.5,0.1c-0.9,0.1-1.7,0.3-2.5,0.5C73.4,22,71.3,22.3,69.1,22.5z M75.1,23.5l0.9-0.2
	c0.7-0.2,1.4-0.3,2.1-0.4c0.5,0,2.2-0.1,2.5-0.1c1.6-0.1,3,1.2,3,2.8c0.1,1.6-1.2,3-2.8,3l0,0l-2.1,0.1c-1.3,0.1-2.4-1.3-3.5-2.5
	l-0.7-0.8l-0.1-0.1c-0.2-0.3-0.3-0.7-0.2-1.1C74.4,23.9,74.7,23.6,75.1,23.5L75.1,23.5z"/>
<path class="st5" d="M69.3,22.7l-0.9,1.5c3.4,0.7,3.9,1.3,4.9,2.4l0.7,0.8c1.4,1.6,2.8,3.2,4.9,3.1l2.1-0.1c2.6-0.1,4.5-2.3,4.4-4.8
	c-0.1-2.6-2.3-4.5-4.8-4.4l0,0l0,0c-0.2,0-1.9,0.1-2.5,0.1c-0.8,0.1-1.7,0.3-2.5,0.5C73.5,22.2,71.4,22.6,69.3,22.7z M75.1,23.5
	l0.9-0.2c0.7-0.2,1.4-0.3,2.1-0.4c0.5,0,2.2-0.1,2.5-0.1c1.6-0.1,3,1.2,3,2.8c0.1,1.6-1.2,3-2.8,3l0,0l-2.1,0.1
	c-1.3,0.1-2.4-1.3-3.5-2.5l-0.7-0.8l-0.1-0.1c-0.2-0.3-0.3-0.7-0.2-1.1C74.4,23.9,74.7,23.6,75.1,23.5L75.1,23.5z"/>
<path class="st5" d="M69.4,23l-0.6,1c3.2,0.7,3.7,1.3,4.7,2.4l0.7,0.8c1.3,1.5,2.7,3.1,4.7,3l2.1-0.1c2.4-0.1,4.3-2.1,4.2-4.5l0,0
	l0,0c0-0.9-0.3-1.8-0.9-2.5c-0.9-1.1-2.2-1.8-3.7-1.7c-0.3,0-2,0.1-2.5,0.1c-0.8,0.1-1.6,0.3-2.4,0.5C73.6,22.5,71.5,22.8,69.4,23z
	 M75.1,23.5l0.9-0.2c0.7-0.2,1.4-0.3,2.1-0.4c0.5,0,2.2-0.1,2.5-0.1c1.6-0.1,3,1.2,3,2.8c0.1,1.6-1.2,3-2.8,3l0,0l-2.1,0.1
	c-1.3,0.1-2.4-1.3-3.5-2.5l-0.7-0.8l-0.1-0.1c-0.2-0.3-0.3-0.7-0.2-1.1C74.4,23.9,74.7,23.6,75.1,23.5L75.1,23.5z"/>
<path class="st5" d="M69.6,23.2l-0.4,0.6c1.7,0.2,3.3,1,4.4,2.4l0.7,0.8c1.3,1.5,2.6,3,4.5,2.9l2.1-0.1c2.3-0.1,4-2,3.9-4.3
	s-2-4-4.3-3.9c-0.3,0-2,0.1-2.5,0.1c-0.8,0.1-1.6,0.3-2.4,0.5C73.7,22.7,71.6,23.1,69.6,23.2z M75.1,23.5l0.9-0.2
	c0.7-0.2,1.4-0.3,2.1-0.4c0.5,0,2.2-0.1,2.5-0.1c1.6-0.1,3,1.2,3,2.8c0.1,1.6-1.2,3-2.8,3l0,0l-2.1,0.1c-1.3,0.1-2.4-1.3-3.5-2.5
	l-0.7-0.8l-0.1-0.1c-0.2-0.3-0.3-0.7-0.2-1.1C74.4,23.9,74.7,23.6,75.1,23.5L75.1,23.5z"/>
<path class="st5" d="M69.7,23.5l-0.1,0.2c1.7,0.2,3.2,1.1,4.2,2.4l0.7,0.8c1.2,1.4,2.5,2.9,4.3,2.9l2.1-0.1c2.1-0.1,3.8-1.8,3.7-4
	l0,0v-0.1c0-0.8-0.3-1.5-0.8-2.2c-0.8-1-2-1.6-3.2-1.5c-0.3,0-2,0.1-2.5,0.1c-0.8,0.1-1.6,0.3-2.3,0.5C73.8,23,71.8,23.3,69.7,23.5z
	 M75.1,23.5l0.9-0.2c0.7-0.2,1.4-0.3,2.1-0.4c0.5,0,2.2-0.1,2.5-0.1c1.6-0.1,3,1.2,3,2.8c0.1,1.6-1.2,3-2.8,3l0,0l-2.1,0.1
	c-1.3,0.1-2.4-1.3-3.5-2.5l-0.7-0.8l-0.1-0.1c-0.2-0.3-0.3-0.7-0.2-1.1C74.4,23.9,74.7,23.6,75.1,23.5L75.1,23.5z"/>
<path class="st4" d="M73.2,24.9c0.3,0.3,0.6,0.6,0.9,0.9l0.7,0.8c1.2,1.4,2.5,2.8,4.1,2.8l2.1-0.1c2-0.1,3.5-1.8,3.4-3.7
	c-0.1-2-1.8-3.5-3.7-3.4c-0.3,0-2,0.1-2.5,0.1c-0.8,0.1-1.5,0.2-2.3,0.5c-0.6,0.2-1.3,0.3-2.1,0.5c-0.6,0.1-0.9,0.6-0.8,1.2
	C72.9,24.6,73,24.8,73.2,24.9z M75.1,23.5l0.9-0.2c0.7-0.2,1.4-0.3,2.1-0.4c0.5,0,2.2-0.1,2.5-0.1c1.6-0.1,3,1.2,3,2.8
	c0.1,1.6-1.2,3-2.8,3l0,0l-2.1,0.1c-1.3,0.1-2.4-1.3-3.5-2.5l-0.7-0.8l-0.1-0.1c-0.2-0.3-0.3-0.7-0.2-1.1
	C74.4,23.9,74.7,23.6,75.1,23.5L75.1,23.5z"/>
<path class="st3" d="M73.7,25.1c0.2,0.2,0.4,0.4,0.6,0.6l0.7,0.8c1.2,1.4,2.4,2.7,3.9,2.7l1.9-0.1c0.7,0,1.4-0.2,2-0.6
	c0.9-0.7,1.4-1.7,1.4-2.8c0-0.7-0.3-1.3-0.7-1.9c-0.7-0.9-1.7-1.4-2.8-1.3c-0.4,0-2,0.1-2.5,0.1c-0.8,0.1-1.5,0.2-2.3,0.5
	c-0.5,0.1-1,0.3-1.7,0.4c-0.6,0.1-0.9,0.7-0.8,1.2C73.5,24.7,73.5,24.9,73.7,25.1L73.7,25.1z M75.1,23.5l0.9-0.2
	c0.7-0.2,1.4-0.3,2.1-0.4c0.5,0,2.2-0.1,2.5-0.1c1.6-0.1,3,1.2,3,2.8c0.1,1.6-1.2,3-2.8,3l0,0l-2.1,0.1c-1.3,0.1-2.4-1.3-3.5-2.5
	l-0.7-0.8l-0.1-0.1c-0.2-0.3-0.3-0.7-0.2-1.1C74.4,23.9,74.7,23.6,75.1,23.5L75.1,23.5z"/>
<path class="st2" d="M74.1,25.2l0.3,0.3l0.7,0.8c1.1,1.3,2.3,2.7,3.7,2.6l2.1-0.1c0.8,0,1.6-0.4,2.1-1c1.1-1.3,1.1-3.2-0.2-4.4
	c-0.6-0.5-1.4-0.8-2.2-0.8c-0.3,0-1.9,0.1-2.5,0.1c-0.7,0.1-1.5,0.2-2.2,0.4c-0.4,0.1-0.8,0.2-1.3,0.3c-0.5,0.1-0.9,0.7-0.8,1.2
	C73.9,24.9,74,25,74.1,25.2L74.1,25.2z M75.1,23.6c0.3-0.1,0.6-0.2,0.9-0.2c0.7-0.2,1.4-0.3,2.1-0.4c0.5,0,2.1-0.1,2.5-0.1
	c1.6-0.1,2.9,1.1,2.9,2.7c0.1,1.6-1.1,2.9-2.7,2.9l-2.1,0.1c-1.3,0.1-2.4-1.2-3.5-2.5l-0.7-0.8l0,0c-0.4-0.4-0.3-1.1,0.1-1.4
	C74.8,23.8,75,23.7,75.1,23.6L75.1,23.6z"/>
<path class="st6" d="M54.7,16.2c4.2,9.7,9.2,11.7,16.2,12c-4,7-19.6,5-18.6-4C52.5,21.5,53.4,18.7,54.7,16.2z"/>
<g>
	
		<radialGradient id="SVGID_00000076568551172512561790000003403082106490407866_" cx="-161.2892" cy="184.1274" r="1.947" gradientTransform="matrix(1.9875 0.3403 -0.8916 4.2155 536.6406 -676.4171)" gradientUnits="userSpaceOnUse">
		<stop  offset="0" style="stop-color:#FFE16E"/>
		<stop  offset="0.461" style="stop-color:#FFD226"/>
		<stop  offset="0.741" style="stop-color:#F8C21D"/>
		<stop  offset="0.999" style="stop-color:#F0AF13"/>
	</radialGradient>
	<path style="fill:url(#SVGID_00000076568551172512561790000003403082106490407866_);" d="M50.5,53.4c-0.9,0-1.5-0.4-1.3-1.2
		c0.3-1.6,1.3-13,1.3-13c2.7,0,6.3,0,6.3,4.7C56.8,49.2,54.5,53.4,50.5,53.4z"/>
	
		<radialGradient id="SVGID_00000169543827630439827230000018225983178747104171_" cx="-1147.993" cy="223.1657" r="1.947" gradientTransform="matrix(-1.9875 0.3403 0.8916 4.2155 -2475.6187 -505.2372)" gradientUnits="userSpaceOnUse">
		<stop  offset="0" style="stop-color:#FFE16E"/>
		<stop  offset="0.461" style="stop-color:#FFD226"/>
		<stop  offset="0.741" style="stop-color:#F8C21D"/>
		<stop  offset="0.999" style="stop-color:#F0AF13"/>
	</radialGradient>
	<path style="fill:url(#SVGID_00000169543827630439827230000018225983178747104171_);" d="M6.4,53.4c0.9,0,1.5-0.4,1.3-1.2
		c-0.3-1.6-1.3-13-1.3-13c-2.7,0-6.3,0-6.3,4.7C0.1,49.2,2.4,53.4,6.4,53.4z"/>
	
		<radialGradient id="SVGID_00000084506543398816802100000015746867210881694097_" cx="-198.2553" cy="372.521" r="14.6182" gradientTransform="matrix(1.7461 0 0 2.1414 374.6924 -757.1706)" gradientUnits="userSpaceOnUse">
		<stop  offset="0" style="stop-color:#FFE16E"/>
		<stop  offset="0.629" style="stop-color:#FFD226"/>
		<stop  offset="0.75" style="stop-color:#FDCD23"/>
		<stop  offset="0.899" style="stop-color:#F6BD1B"/>
		<stop  offset="0.999" style="stop-color:#F0AF13"/>
	</radialGradient>
	<path style="fill:url(#SVGID_00000084506543398816802100000015746867210881694097_);" d="M53.7,39.7c0,5.8-0.4,13.4-2.6,18
		c-4.4,9-16.1,14.7-22.6,14.7c-6.7,0-18.3-5.6-22.7-14.7c-2.3-4.6-2.5-12.2-2.5-18c0-1.3,0-2.5,0.1-3.6C3.6,30.8,5,25.5,7.5,20.8
		c4.1-7.7,12.3-12.4,21-12.1c8.6-0.3,16.8,4.3,20.9,11.9C52.5,26.5,54,33,53.7,39.7z"/>
	<path class="st10" d="M54.9,41.9c-0.8,0.1-0.6-0.6-0.6-1.2c0-3.7-0.2-7.4-0.9-11.1c-0.1-0.2-0.6-0.4-0.8-0.5
		c-3.2-1.7-5.9-4.2-7.9-7.1c-0.2-0.3-0.6-0.4-0.9-0.3c-16.9,5.7-28.3-0.2-32.4-3.1c-0.4-0.2-0.9-0.2-1.1,0.2
		c-0.1,0.1-0.1,0.3-0.1,0.5C10,24.5,5.6,28,3.7,29.5c-0.3,0.2-0.5,0.5-0.5,0.9c0.1,3.4-0.1,6.7-0.4,10.1c-0.1,0.5-0.2,1-0.5,1.1l0,0
		l0,0l0,0c0.4,0,0.8-0.2,1-0.6c1.3-1.6,2.3-7,2.5-9.2c0-0.3,0.2-0.6,0.4-0.7c2.7-1.8,4.8-4.5,5.9-7.6c0.2-0.6,0.4-0.8,0.9-0.5
		c9.1,4.6,19.6,5.3,29.3,2.1c0.4-0.1,0.9-0.2,1.1,0.1c3.1,3.8,4.4,5.1,6.8,6.2c0.2,0.1,0.4,0.3,0.5,0.5c1.2,2.7,1.3,9,3.1,9.9
		c0.1,0,0.2,0.1,0.3,0.1h0.1C54.6,42,54.7,42,54.9,41.9L54.9,41.9L54.9,41.9z"/>
	<path class="st10" d="M54.9,41.6c-0.8,0.1-0.7-0.6-0.7-1.2c0-3.7-0.3-7.4-0.9-11.1c-0.1-0.2-0.5-0.4-0.6-0.5
		c-3.2-1.7-5.9-4.2-7.9-7.1c-0.2-0.3-0.6-0.4-0.9-0.3c-16.9,5.7-28.2-0.2-32.4-3.1c-0.4-0.2-0.9-0.2-1.1,0.2
		c-0.1,0.1-0.1,0.3-0.1,0.5c-0.2,5.2-4.6,8.7-6.5,10.2c-0.3,0.2-0.4,0.5-0.4,0.8c0.1,3.4-0.1,6.8-0.4,10.2c0,0.4-0.2,0.8-0.6,1l0,0
		l0,0l0,0c0.4,0,0.8-0.2,1-0.6c1.3-1.6,1.9-7,2.1-9.1c0-0.3,0.2-0.5,0.4-0.7c2.8-2,4.9-4.8,6-8c0.2-0.6,0.4-0.8,0.9-0.5
		c9.2,4.7,19.9,5.5,29.7,2.3c0.4-0.1,0.9-0.2,1.1,0.1c3.1,3.8,4.4,5,6.8,6.1c0.2,0.1,0.4,0.3,0.5,0.5c1.2,2.7,1.1,9.2,2.9,10.1
		c0.1,0,0.2,0.1,0.3,0.1h0.1C54.6,41.7,54.7,41.7,54.9,41.6L54.9,41.6L54.9,41.6z"/>
	<path class="st10" d="M54.9,41.3c-0.8,0.1-0.8-0.6-0.8-1.2c0-3.7-0.3-7.4-0.9-11.1c-0.1-0.2-0.3-0.4-0.5-0.5
		c-3.2-1.7-5.9-4.1-7.9-7.1c-0.2-0.3-0.6-0.4-0.9-0.3c-16.9,5.6-28.2-0.2-32.4-3c-0.4-0.2-0.9-0.2-1.1,0.2c-0.1,0.1-0.1,0.3-0.1,0.5
		C10.1,24,5.7,27.5,3.8,29c-0.3,0.2-0.4,0.5-0.4,0.8c0.1,3.5,0,6.9-0.3,10.3C3,40.5,2.8,40.8,2.5,41l0,0l0,0l0,0
		c0.4,0,0.8-0.2,1-0.6c1.3-1.6,1.5-6.9,1.7-9c0-0.3,0.2-0.5,0.4-0.7c2.9-2.1,5.1-5.1,6.2-8.5c0.1-0.6,0.4-0.8,0.9-0.5
		c9.3,4.8,20.1,5.7,30.1,2.5c0.4-0.1,0.9-0.2,1.1,0.1c3.1,3.8,4.4,4.9,6.8,6.1c0.2,0.1,0.4,0.3,0.5,0.5c1.2,2.7,0.9,9.5,2.7,10.3
		c0.1,0,0.2,0.1,0.3,0.1h0.1C54.5,41.4,54.7,41.4,54.9,41.3C54.8,41.3,54.8,41.3,54.9,41.3C54.8,41.3,54.9,41.3,54.9,41.3z"/>
	<path class="st10" d="M54.9,41c-0.8,0.1-0.9-0.6-0.9-1.2c0-3.7-0.3-7.4-0.9-11.1c-0.1-0.2-0.2-0.4-0.4-0.5
		c-3.2-1.7-5.8-4.1-7.9-7.1c-0.2-0.3-0.6-0.4-0.9-0.3c-16.9,5.6-28.2-0.2-32.3-3c-0.4-0.2-0.9-0.2-1.1,0.2c-0.1,0.1-0.1,0.3-0.1,0.5
		c-0.2,5.2-4.6,8.7-6.5,10.2c-0.2,0.2-0.4,0.5-0.3,0.8c0.1,3.5,0,7-0.3,10.5c-0.1,0.4-0.4,0.7-0.7,0.8l0,0l0,0l0,0
		c0.4,0,0.8-0.2,1-0.6c1.3-1.6,1.1-6.8,1.3-8.9c0-0.3,0.2-0.5,0.4-0.7c3-2.3,5.2-5.4,6.3-8.9c0.1-0.6,0.4-0.8,0.9-0.5
		c9.4,4.9,20.4,5.9,30.6,2.8c0.4-0.1,0.9-0.2,1.1,0.1c3.1,3.8,4.4,4.9,6.8,6c0.2,0.1,0.4,0.3,0.5,0.5c1.2,2.7,0.7,9.7,2.5,10.6
		c0.1,0,0.2,0.1,0.3,0.1h0.1C54.5,41.1,54.7,41.1,54.9,41C54.8,41,54.8,41,54.9,41C54.8,41,54.8,41,54.9,41z"/>
	
		<radialGradient id="SVGID_00000121983593669694064890000000772452459074567069_" cx="-240.8726" cy="-479.169" r="13.982" gradientTransform="matrix(2.0174 0 0 -1.6341 514.1722 -757.7334)" gradientUnits="userSpaceOnUse">
		<stop  offset="0" style="stop-color:#C69C6D"/>
		<stop  offset="0.292" style="stop-color:#A77D51"/>
		<stop  offset="0.577" style="stop-color:#8C6239"/>
		<stop  offset="0.999" style="stop-color:#603813"/>
	</radialGradient>
	<path style="fill:url(#SVGID_00000121983593669694064890000000772452459074567069_);" d="M3.9,40.9c0.3-3.5,0.3-7,0.1-10.5
		c1.8-1.3,7.3-5.9,6.5-12c2.3,1.9,14.1,9.9,33.5,3.6c4.3,5.1,5.1,6,8.4,7.9c0.8,3.5,1.1,7.2,1,10.8c-0.1,1.2,1.2,2,1.9-0.5
		c0.7-4,1.2-8.1,1.4-12.2C57,17.9,53.2,2.8,28.1,2.8C3.8,2.8,0,17.9,0,28.2c0,4,0.4,8,1.1,12C1.4,41.7,3.5,42.2,3.9,40.9z"/>
	<path class="st12" d="M8.2,14.9c0.1,7.2-2.6,11-5,12.6c-0.3,0.2-0.6,0.4-0.8,0.6C2.1,28.3,2,28.6,2,28.9c0,2.3-0.1,6.4,0.1,8.8
		c0.1,0.7,0.1,1.4,0.2,1.9c0,0.5,0.2,0.9,0.3,1.4c0.1,0.2,0.3,0.4,0.5,0.4c0.3,0.1,0.6-0.1,0.8-0.7c0-0.4,0.3-7.1,0.1-9.7
		c0-0.3,0.2-0.6,0.5-0.8c1.9-1.4,5.9-4.6,6.2-9.4c0.1-0.6,0.6-1,1.2-0.9c0.1,0,0.1,0,0.2,0c0.2,0.1,0.4,0.3,0.7,0.4
		c4.5,2.8,15.1,7.4,30.5,2.4c0.3-0.1,0.7,0,1,0.2c0.1,0.1,0.2,0.2,0.4,0.3c0.2,0.2,0.4,0.4,0.6,0.6c1.7,2.3,4,4.2,6.6,5.6
		c0.2,0.1,0.4,0.3,0.6,0.6c0.1,0.2,0.2,0.4,0.3,0.7c0,0.1,0.1,0.3,0.1,0.4s0,0.1,0,0.2c0.1,0.7,0.2,1.6,0.3,2.5
		c0.2,2.2,0.3,4.4,0.3,6.6c0,0.7,0.3,1.4,0.7,1.2l0,0c0.1,0,0.2-0.1,0.2-0.1c0.1-0.1,0.2-0.3,0.3-0.4c0.1-0.2,0.2-0.4,0.2-0.6
		c0.2-0.8,0.2-1.7,0.3-2.5c0.2-3.7,0-7.3-0.7-10.9c-0.1-0.2-0.2-0.3-0.4-0.4L54,26.6c-2.9-1.7-5.1-4.8-8.9-9.4
		c-0.2-0.3-0.6-0.4-0.9-0.3c-16.3,5.2-29.7,0-34.3-2.9c-0.6-0.3-1.3,0-1.5,0.6C8.2,14.7,8.2,14.8,8.2,14.9z"/>
	<path class="st13" d="M8.4,15.5c0.1,6.9-2.8,10.8-5.2,12.3c-0.3,0.2-0.5,0.4-0.7,0.6s-0.3,0.5-0.3,0.9c0,2.4,0,6.7,0.1,8.6
		c0,0.7,0.1,1.4,0.2,1.9c0.1,0.6,0.3,1.3,0.4,1.3c0.2,0.1,0.3,0.3,0.5,0.2c0.2,0.1,0.5-0.2,0.6-0.8c0-0.7,0.3-7.1,0.1-9.5
		c0-0.3,0.2-0.6,0.4-0.8c1.9-1.4,5.9-4.5,6.3-9.3c0-0.5,0.7-1.2,1.3-1c0.3,0.1,0.5,0.2,0.7,0.4c4.5,2.8,15,7.3,30.3,2.5
		c0.3-0.1,0.7-0.1,1,0.1c0.1,0.1,0.3,0.2,0.4,0.3c0.2,0.2,0.4,0.4,0.6,0.6c1.7,2.3,3.9,4.3,6.5,5.6c0.2,0.1,0.4,0.3,0.6,0.5
		c0.1,0.2,0.2,0.4,0.3,0.6c0.1,0.1,0.1,0.2,0.1,0.4c0,0.1,0,0.1,0,0.2c0.2,0.8,0.3,1.7,0.4,2.5c0.3,2.6,0.3,5.5,0.3,6.5
		c0,0.7,0.3,1.4,0.6,1.3l0,0c0.1,0,0.1,0,0.2,0c0.1,0,0.2-0.1,0.3-0.2c0.1-0.1,0.2-0.3,0.3-0.4c0.2-0.8,0.3-1.7,0.3-2.5
		c0.2-3.7-0.1-7.4-0.8-11c-0.1-0.2-0.2-0.3-0.3-0.4c0,0-0.1,0-0.1-0.1c-2.9-1.7-4.9-4.3-8.7-8.8c-0.2-0.3-0.6-0.4-0.9-0.3
		c-11.3,3.9-23.7,2.7-34.1-3.1c-0.5-0.3-1.2,0-1.5,0.5C8.5,15.2,8.4,15.4,8.4,15.5z"/>
	<path class="st14" d="M8.7,16.1c0.2,6.7-2.9,10.5-5.4,12c-0.3,0.2-0.5,0.4-0.7,0.7c-0.1,0.3-0.2,0.6-0.2,0.9c0.1,2.6,0,7,0.1,8.4
		c0,0.7,0.1,1.3,0.1,1.9c0.1,0.6,0.2,1.3,0.4,1.2c0.2,0.1,0.3,0.2,0.5,0C3.7,41.3,3.9,41,4,40.3c0.1-1.1,0.3-7,0.1-9.3
		c0-0.3,0.2-0.6,0.4-0.8c1.9-1.4,5.9-4.4,6.3-9.1c0-0.4,0.6-1.2,1.3-1c0.3,0.1,0.5,0.2,0.7,0.4c4.5,2.8,14.9,7.3,30.1,2.6
		c0.3-0.1,0.7-0.1,1.1,0c0.1,0,0.3,0.1,0.4,0.2c0.2,0.2,0.4,0.4,0.6,0.6c1.7,2.3,3.9,4.3,6.4,5.6c0.2,0.1,0.4,0.3,0.6,0.5
		c0.1,0.2,0.3,0.4,0.4,0.6c0.1,0.2,0.2,0.3,0.2,0.5c0.2,0.8,0.3,1.7,0.4,2.5c0.3,2.4,0.3,5.3,0.3,6.5c0,0.8,0.2,1.4,0.5,1.4l0,0
		l0.1,0.1c0.1,0,0.2,0,0.2,0c0.1-0.1,0.3-0.2,0.4-0.3c0.3-0.8,0.4-1.6,0.4-2.5c0.1-3.7-0.2-7.4-0.9-11.1c-0.1-0.2-0.2-0.3-0.3-0.4
		c0,0-0.1,0-0.1-0.1c-2.9-1.7-4.7-3.7-8.5-8.3c-0.2-0.3-0.6-0.4-0.9-0.3c-11.3,3.8-23.6,2.7-34-3.3c-0.5-0.3-1.1-0.1-1.4,0.5
		C8.7,15.8,8.7,15.9,8.7,16.1z"/>
	<path class="st15" d="M8.9,16.7c0.4,4.7-1.7,9.2-5.6,11.7c-0.3,0.2-0.5,0.4-0.6,0.7c-0.1,0.3-0.1,0.6-0.1,0.9
		c0.1,2.7,0,7.3,0.1,8.2c0,0.6,0,1.3,0.1,1.9c0,0.7,0.2,1.2,0.4,1.2s0.4,0,0.5-0.2c0.1,0,0.3-0.3,0.3-1c0.2-3,0.2-6.1,0.1-9.1
		c0-0.3,0.1-0.6,0.4-0.7c1.9-1.4,5.9-4.4,6.3-9c0-0.3,0.5-1.2,1.2-1.1c0.3,0.1,0.5,0.2,0.8,0.4c4.4,2.8,14.8,7.3,30,2.6
		c0.4-0.1,0.7-0.2,1.1-0.2c0.2,0,0.3,0.1,0.4,0.1c0.2,0.2,0.4,0.4,0.6,0.6c1.7,2.3,3.8,4.3,6.3,5.6c0.2,0.1,0.4,0.3,0.6,0.4
		c0.2,0.2,0.3,0.3,0.5,0.5c0.1,0.1,0.2,0.2,0.2,0.3c0,0.1,0,0.1,0.1,0.2c0.2,0.8,0.3,1.6,0.4,2.5c0.3,2.3,0.3,5.1,0.3,6.5
		c-0.1,0.5,0.1,1,0.3,1.5l0,0c0,0.1,0.1,0.1,0.1,0.2c0.1,0.1,0.1,0.2,0.2,0.2s0.2,0,0.4-0.1c0.4-0.8,0.5-1.6,0.4-2.5
		c0-3.7-0.3-7.5-1-11.1c-0.1-0.2-0.2-0.3-0.3-0.4c0,0-0.1,0-0.1-0.1c-3.3-2-6.1-4.6-8.4-7.8c-0.2-0.3-0.6-0.4-0.9-0.3
		c-11.2,3.8-23.6,2.6-33.8-3.4c-0.5-0.3-1-0.1-1.3,0.4C8.9,16.4,8.9,16.5,8.9,16.7z"/>
	<path class="st16" d="M9.1,17.3c0.4,4.6-1.9,9-5.8,11.4c-0.3,0.1-0.5,0.4-0.5,0.8c0,0.3,0,0.6,0,0.9c0.1,2.8,0.1,7.6,0.1,8.1
		c0,0.6,0,1.3,0.1,1.8c0,0.7,0.2,1.2,0.4,1.1c0.2-0.1,0.4-0.1,0.5-0.4C4,41,4,40.6,4.1,39.9c0.2-3,0.2-5.9,0.1-8.9
		c0-0.3,0.1-0.6,0.3-0.7c1.8-1.3,5.9-4.3,6.4-8.9c0-0.2,0.4-1.3,1.1-1.2c0.3,0,0.5,0.2,0.8,0.3c4.4,2.8,14.8,7.3,29.8,2.7
		c0.4-0.1,0.7-0.2,1.1-0.3c0.2,0,0.3,0,0.5,0.1c0.2,0.1,0.4,0.3,0.6,0.5c1.6,2.3,3.7,4.3,6.2,5.7c0.2,0.1,0.4,0.3,0.6,0.4
		s0.4,0.3,0.6,0.4c0.1,0.1,0.2,0.2,0.3,0.3c0,0,0.1,0.1,0.1,0.2c0.2,0.8,0.3,1.6,0.4,2.5c0.3,2.2,0.3,4.9,0.4,6.4
		c0,0.5,0,1.1,0.2,1.6l0,0c0,0.1,0,0.2,0.1,0.3c0,0.1,0.1,0.3,0.2,0.4c0.1,0.1,0.3,0.1,0.5,0c0.2-0.2,0.5-0.7,0.5-2.5
		c0-3.8-0.4-7.5-1.1-11.2c-0.1-0.2-0.2-0.3-0.3-0.4l-0.1-0.1c-3.2-1.8-6-4.2-8.2-7.2C45,20,44.6,19.9,44.3,20
		c-11.2,3.8-23.5,2.5-33.7-3.6c-0.4-0.2-1-0.1-1.2,0.3C9.2,17,9.1,17.1,9.1,17.3z"/>
	<path class="st6" d="M53.4,28.3c-0.1-0.2-0.2-0.4-0.4-0.5c-3.2-1.5-5.9-3.8-8-6.7c-0.2-0.3-0.6-0.4-0.9-0.3
		c-11.2,3.8-23.4,2.4-33.5-3.7c-0.4-0.2-0.9-0.1-1.1,0.3c-0.1,0.1-0.1,0.3-0.1,0.5c0.3,4.6-2.1,8.9-6,11.1c-0.3,0.2-0.5,0.5-0.5,0.8
		c0.3,2.7,0.2,8.8,0.2,8.8c0,1.3-0.1,3.1,0.4,2.8C3.8,41.3,4,41.1,4,40.8c0,0,0.4-7.5,0.2-9.9c0-0.3,0.1-0.6,0.3-0.7
		c1.8-1.3,5.9-4.2,6.4-8.8c0-0.2,0.5-2,1.9-1c4.5,2.8,15.2,7.5,30.8,2.4c0.2,0,0.3,0,0.5,0c0.2,0.1,0.5,0.3,0.6,0.5
		c1.9,2.7,4.4,4.9,7.4,6.4c0.1,0.1,0.2,0.2,0.3,0.3l0.1,0.1c0.2,0.8,0.4,1.6,0.5,2.4c0.4,3,0.4,7.1,0.5,8l0,0c0,0.1,0,0.2,0,0.4
		s0.1,0.4,0.2,0.6c0.1,0.2,0.4,0.2,0.6,0.2s0.6-0.5,0.5-2.5C54.5,35.7,54.1,32,53.4,28.3z"/>
	
		<radialGradient id="SVGID_00000038403835851914796050000003119027099038184596_" cx="-243.7201" cy="727.1037" r="2.6681" gradientTransform="matrix(1.9999 -2.208000e-02 1.186000e-02 1.0741 507.2414 -736.1904)" gradientUnits="userSpaceOnUse">
		<stop  offset="0.479" style="stop-color:#FED53F"/>
		<stop  offset="0.673" style="stop-color:#FED53F;stop-opacity:0.993"/>
		<stop  offset="0.743" style="stop-color:#FED53F;stop-opacity:0.966"/>
		<stop  offset="0.793" style="stop-color:#FED53E;stop-opacity:0.919"/>
		<stop  offset="0.833" style="stop-color:#FED53E;stop-opacity:0.853"/>
		<stop  offset="0.868" style="stop-color:#FED53D;stop-opacity:0.766"/>
		<stop  offset="0.899" style="stop-color:#FED43C;stop-opacity:0.659"/>
		<stop  offset="0.926" style="stop-color:#FED43B;stop-opacity:0.531"/>
		<stop  offset="0.952" style="stop-color:#FED43A;stop-opacity:0.383"/>
		<stop  offset="0.976" style="stop-color:#FED339;stop-opacity:0.213"/>
		<stop  offset="0.997" style="stop-color:#FED337;stop-opacity:3.200000e-02"/>
		<stop  offset="1" style="stop-color:#FED337;stop-opacity:0"/>
	</radialGradient>
	<ellipse style="fill:url(#SVGID_00000038403835851914796050000003119027099038184596_);" cx="28.5" cy="50.2" rx="5.5" ry="3.2"/>
	
		<radialGradient id="SVGID_00000151535194904150334560000001297536860840250794_" cx="-239.575" cy="688.9985" r="1.4129" gradientTransform="matrix(2 0 0 1.1155 507.6 -718.3303)" gradientUnits="userSpaceOnUse">
		<stop  offset="4.000000e-03" style="stop-color:#FFF4C9"/>
		<stop  offset="0.119" style="stop-color:#FFF4C9;stop-opacity:0.874"/>
		<stop  offset="0.559" style="stop-color:#FFF4C9;stop-opacity:0.409"/>
		<stop  offset="0.861" style="stop-color:#FFF4C9;stop-opacity:0.115"/>
		<stop  offset="1" style="stop-color:#FFF4C9;stop-opacity:0"/>
	</radialGradient>
	<ellipse style="fill:url(#SVGID_00000151535194904150334560000001297536860840250794_);" cx="28.4" cy="50.2" rx="2.8" ry="1.6"/>
	
		<radialGradient id="SVGID_00000041977574167703706850000012326817475970655667_" cx="-114.016" cy="-178.5136" r="2.1292" gradientTransform="matrix(4.320000e-03 2 -2.4215 5.220000e-03 -403.2798 280.7109)" gradientUnits="userSpaceOnUse">
		<stop  offset="0.415" style="stop-color:#000000;stop-opacity:0.3"/>
		<stop  offset="1" style="stop-color:#000000;stop-opacity:0"/>
	</radialGradient>
	<path style="fill:url(#SVGID_00000041977574167703706850000012326817475970655667_);" d="M32.8,52.2c-1.3,0.8-2.8,1.2-4.3,1.2
		s-3-0.4-4.3-1.2c-0.5-0.2-0.8-0.1-0.8,0.3c0.7,2.8,3.5,4.6,6.3,3.9c1.9-0.5,3.5-2,3.9-3.9C33.6,52.1,33.2,52,32.8,52.2z"/>
	<g>
		
			<radialGradient id="SVGID_00000152956956682610833920000011477333517788403094_" cx="-329.0957" cy="333.9963" r="2.995" gradientTransform="matrix(2.1853 0 0 2.6188 747.6133 -815.09)" gradientUnits="userSpaceOnUse">
			<stop  offset="0.696" style="stop-color:#000000;stop-opacity:0.2"/>
			<stop  offset="1" style="stop-color:#000000;stop-opacity:0"/>
		</radialGradient>
		<path style="fill:url(#SVGID_00000152956956682610833920000011477333517788403094_);" d="M28.4,64.1c-6.6,0-6.8-3.8-6.8-3.8
			s0.2,7.7,6.8,7.7s6.8-7.7,6.8-7.7S34.9,64.1,28.4,64.1z"/>
		
			<radialGradient id="SVGID_00000051341622912929987110000000572616727954389645_" cx="-164.5875" cy="801.9849" r="4.6197" gradientTransform="matrix(1.5818 0 0 0.9532 288.7937 -704.4379)" gradientUnits="userSpaceOnUse">
			<stop  offset="0.572" style="stop-color:#FFFFFF;stop-opacity:0.4"/>
			<stop  offset="0.621" style="stop-color:#FFFFFF;stop-opacity:0.376"/>
			<stop  offset="0.689" style="stop-color:#FFFFFF;stop-opacity:0.307"/>
			<stop  offset="0.767" style="stop-color:#FFFFFF;stop-opacity:0.193"/>
			<stop  offset="0.853" style="stop-color:#FFFFFF;stop-opacity:3.700000e-02"/>
			<stop  offset="0.871" style="stop-color:#FFFFFF;stop-opacity:0"/>
		</radialGradient>
		<path style="fill:url(#SVGID_00000051341622912929987110000000572616727954389645_);" d="M35.6,59.7c0,0,0.1,4.7-7.2,4.7
			s-7.2-4.7-7.2-4.7s1.6,1.4,7.2,1.4S35.6,59.7,35.6,59.7z"/>
		
			<radialGradient id="SVGID_00000133527833782381594480000008524817831366516878_" cx="-204.0652" cy="580.3068" r="3.698" gradientTransform="matrix(1.6665 0 0 1.3407 368.6214 -718.4289)" gradientUnits="userSpaceOnUse">
			<stop  offset="0" style="stop-color:#1C1911"/>
			<stop  offset="0.999" style="stop-color:#171714"/>
		</radialGradient>
		<path style="fill:url(#SVGID_00000133527833782381594480000008524817831366516878_);" d="M21.8,59.7c-0.4,0-0.6,0.3-0.4,0.6
			c1.4,2,4.7,2.6,7.1,2.6c2.6,0,5.7-0.6,7.1-2.6c0.2-0.3,0-0.6-0.4-0.6H21.8z"/>
	</g>
	<g>
		<path class="st23" d="M9.5,43.2c0,0.7,0.1,0.6,0.4,1c0,0,3.2,4.1,12.7,1.3c0.7-0.2,1.2-0.7,1.1-1.2C22.5,35.1,11.1,36.2,9.5,43.2z
			"/>
		<path class="st24" d="M9.7,43.1c-0.2,0.4-0.2,0.9,0,1.3c0.7,1.7,6.1,7.8,13.5,1.4c0.5-0.3,0.7-0.9,0.5-1.4c-1-3-3.8-5.1-7-5.2
			C13.7,39,11,40.6,9.7,43.1z"/>
		
			<linearGradient id="SVGID_00000164475261340028532500000004789281887055077558_" gradientUnits="userSpaceOnUse" x1="-247.458" y1="396.153" x2="-243.516" y2="396.153" gradientTransform="matrix(2 0 0 2 507.6 -749.2031)">
			<stop  offset="0" style="stop-color:#C69C6D"/>
			<stop  offset="1" style="stop-color:#754C24"/>
		</linearGradient>
		<circle style="fill:url(#SVGID_00000164475261340028532500000004789281887055077558_);" cx="16.6" cy="43.1" r="3.9"/>
		
			<radialGradient id="SVGID_00000139974856499801101190000009653819208984096937_" cx="-245.487" cy="396.1772" r="0.998" gradientTransform="matrix(2 0 0 2 507.6 -749.2031)" gradientUnits="userSpaceOnUse">
			<stop  offset="0" style="stop-color:#1C1911"/>
			<stop  offset="0.999" style="stop-color:#171714"/>
		</radialGradient>
		<circle style="fill:url(#SVGID_00000139974856499801101190000009653819208984096937_);" cx="16.6" cy="43.1" r="2"/>
		<path class="st23" d="M47.4,43.2c0,0.7-0.1,0.6-0.4,1c0,0-3.2,4.2-12.7,1.3c-0.7-0.2-1.2-0.7-1.1-1.2C34.4,35,45.8,36.2,47.4,43.2
			z"/>
		<path class="st24" d="M47.2,43.1c0.2,0.4,0.2,0.9,0,1.3c-0.7,1.7-6.1,7.8-13.5,1.4c-0.5-0.3-0.7-0.9-0.5-1.4c1-3,3.8-5.1,7-5.2
			C43.2,39,45.9,40.6,47.2,43.1z"/>
		
			<linearGradient id="SVGID_00000171713270315298230960000015731463711820265386_" gradientUnits="userSpaceOnUse" x1="-249.633" y1="396.153" x2="-245.691" y2="396.153" gradientTransform="matrix(2 0 0 2 535.6 -749.2031)">
			<stop  offset="0" style="stop-color:#C69C6D"/>
			<stop  offset="1" style="stop-color:#754C24"/>
		</linearGradient>
		<circle style="fill:url(#SVGID_00000171713270315298230960000015731463711820265386_);" cx="40.3" cy="43.1" r="3.9"/>
		
			<radialGradient id="SVGID_00000169545079974520357900000016758372820339675037_" cx="-1424.538" cy="396.1772" r="0.998" gradientTransform="matrix(-2 0 0 2 -2808.8 -749.2031)" gradientUnits="userSpaceOnUse">
			<stop  offset="0" style="stop-color:#1C1911"/>
			<stop  offset="0.999" style="stop-color:#171714"/>
		</radialGradient>
		<circle style="fill:url(#SVGID_00000169545079974520357900000016758372820339675037_);" cx="40.3" cy="43.1" r="2"/>
		<circle class="st24" cx="15" cy="41.6" r="0.8"/>
		<circle class="st24" cx="38.7" cy="41.6" r="0.8"/>
		<path class="st23" d="M12,34.6c0.7-0.3,1.4-0.5,2.1-0.7s1.4-0.4,2.1-0.5c1.4-0.3,2.9-0.5,4.3-0.6l0,0c0.9-0.1,1.7,0.6,1.8,1.5
			s-0.6,1.7-1.5,1.8c-0.1,0-0.2,0-0.3,0c-1.4-0.1-2.7-0.2-4.1-0.2c-0.7,0-1.4,0-2,0.1c-0.7,0-1.3,0.1-2,0.2h-0.1
			c-0.4,0.1-0.8-0.2-0.9-0.6C11.5,35.1,11.7,34.8,12,34.6L12,34.6z"/>
		<path class="st23" d="M44.2,35.9c-0.6-0.1-1.3-0.1-2-0.2c-0.7,0-1.4,0-2.1,0c-1.4,0-2.8,0.1-4.1,0.2c-0.9,0.1-1.7-0.5-1.8-1.4
			s0.5-1.7,1.4-1.8l0,0c0.1,0,0.2,0,0.3,0c1.5,0.1,2.9,0.3,4.3,0.6c0.7,0.1,1.4,0.3,2.1,0.4c0.7,0.2,1.4,0.4,2.1,0.6
			c0.4,0.1,0.6,0.6,0.5,1C44.9,35.8,44.6,36,44.2,35.9L44.2,35.9z"/>
	</g>
</g>
<g>
	
		<linearGradient id="SVGID_00000070834081259299071830000006725369559187027364_" gradientUnits="userSpaceOnUse" x1="-59.3175" y1="-151.0647" x2="-50.4432" y2="-151.0647" gradientTransform="matrix(1.6025 1.1967 1.1967 -1.6025 330.7959 -143.998)">
		<stop  offset="0" style="stop-color:#D1D1D1"/>
		<stop  offset="0.362" style="stop-color:#CECECE"/>
		<stop  offset="0.652" style="stop-color:#C4C4C4"/>
		<stop  offset="0.917" style="stop-color:#B3B3B3"/>
		<stop  offset="1" style="stop-color:#ACACAC"/>
	</linearGradient>
	<path style="fill:url(#SVGID_00000070834081259299071830000006725369559187027364_);" d="M61.5,48c-0.7-9.3-0.9-28.4-0.9-28.4
		l3.1-2c0.9,0.7,1.8,1.4,2.5,2.3C66.5,29.4,64.9,39,61.5,48z"/>
	
		<radialGradient id="SVGID_00000010301573974491046760000014327593921805205893_" cx="-57.4676" cy="-146.3322" r="0.514" gradientTransform="matrix(1.6025 1.1967 1.1967 -1.6025 330.7959 -143.998)" gradientUnits="userSpaceOnUse">
		<stop  offset="0" style="stop-color:#B8B8B8;stop-opacity:0"/>
		<stop  offset="1" style="stop-color:#787878"/>
	</radialGradient>
	<circle style="fill:url(#SVGID_00000010301573974491046760000014327593921805205893_);" cx="63.6" cy="21.7" r="1"/>
	
		<linearGradient id="SVGID_00000043438245533246971040000002978859574943655847_" gradientUnits="userSpaceOnUse" x1="-58.1637" y1="-152.6162" x2="-50.4436" y2="-152.6162" gradientTransform="matrix(1.6025 1.1967 1.1967 -1.6025 330.7959 -143.998)">
		<stop  offset="0" style="stop-color:#919191"/>
		<stop  offset="1" style="stop-color:#B2B2B2"/>
	</linearGradient>
	<path style="fill:url(#SVGID_00000043438245533246971040000002978859574943655847_);" d="M61.5,48c-0.5-6.7-0.8-18.5-0.9-24.6
		l2.9,1.8c0.6,0.4,1,1.1,0.9,1.8C64,34.1,63,41.1,61.5,48z"/>
	<path class="st2" d="M65.2,8.4c0-0.6,0.1-2.6,0.1-2.6c0.1-3.1-2.4-5.7-5.5-5.8c-3.1-0.1-5.7,2.4-5.8,5.4l-0.1,2.1
		c-0.1,2.9,2.2,4.6,4.1,6.2c1.2,1.1,1.6,1.2,2.6,5.9l3.1-2C64,14.5,64.5,11.4,65.2,8.4z M61.1,12c-0.4,0.1-0.8,0.1-1.1-0.2l-0.1-0.1
		L59.1,11c-1.3-1.1-2.6-2.2-2.6-3.5l0.1-2.1c0-0.8,0.3-1.5,0.9-2c1.2-1.1,3-1,4.1,0.1c0.5,0.6,0.8,1.3,0.8,2.1c0,0.3,0,1.9-0.1,2.5
		c-0.1,0.7-0.2,1.4-0.4,2.2l-0.2,0.9C61.7,11.6,61.5,11.9,61.1,12z"/>
	<path class="st3" d="M64.4,11c0.2-0.9,0.4-1.7,0.5-2.6c0-0.6,0.1-2.5,0.1-2.6c0.1-3-2.3-5.5-5.2-5.6c-3-0.1-5.5,2.3-5.6,5.2
		l-0.1,2.1c-0.1,2.5,1.7,4,3.4,5.5l0.8,0.7c1.1,1,1.6,1.3,2.4,5.5l2.7-1.7C63.5,15.3,63.9,13.1,64.4,11z M61.1,12
		c-0.4,0.1-0.8,0.1-1.1-0.2l-0.1-0.1L59.1,11c-1.3-1.1-2.6-2.2-2.6-3.5l0.1-2.1c0-0.8,0.3-1.5,0.9-2c1.2-1.1,3-1,4.1,0.1
		c0.5,0.6,0.8,1.3,0.8,2.1c0,0.3,0,1.9-0.1,2.5c-0.1,0.7-0.2,1.4-0.4,2.2l-0.2,0.9C61.7,11.6,61.5,11.9,61.1,12z"/>
	<path class="st4" d="M64.2,10.9c0.2-0.8,0.4-1.7,0.5-2.6c0-0.6,0.1-2.3,0.1-2.5c0.1-2.8-2.1-5.2-5-5.3c-2.8-0.1-5.2,2.1-5.3,5l0,0
		l-0.1,2c-0.1,2.4,1.7,3.9,3.4,5.3l0.8,0.7c1.1,1,1.6,1.4,2.4,5.3l2.3-1.4C63.3,15.1,63.6,13,64.2,10.9z M61.1,12
		c-0.4,0.1-0.8,0.1-1.1-0.2l-0.1-0.1L59.1,11c-1.3-1.1-2.6-2.2-2.6-3.5l0.1-2.1c0-0.8,0.3-1.5,0.9-2c1.2-1.1,3-1,4.1,0.1
		c0.5,0.6,0.8,1.3,0.8,2.1c0,0.3,0,1.9-0.1,2.5c-0.1,0.7-0.2,1.4-0.4,2.2l-0.2,0.9C61.7,11.6,61.5,11.9,61.1,12L61.1,12z"/>
	<path class="st5" d="M63.9,10.8c0.2-0.8,0.4-1.7,0.5-2.5c0-0.6,0.1-2.3,0.1-2.5c0.1-2.7-2-4.9-4.7-5c-2.7-0.1-4.9,2-5,4.7l-0.1,2.1
		c-0.1,2.3,1.6,3.7,3.3,5.1l0.8,0.6c1.1,0.9,1.6,1.4,2.4,5.1l1.9-1.2C63.1,15,63.4,12.9,63.9,10.8z M61.1,12
		c-0.4,0.1-0.8,0.1-1.1-0.2l-0.1-0.1L59.1,11c-1.3-1.1-2.6-2.2-2.6-3.5l0.1-2.1c0-0.8,0.3-1.5,0.9-2c1.2-1.1,3-1,4.1,0.1
		c0.5,0.6,0.8,1.3,0.8,2.1c0,0.3,0,1.9-0.1,2.5c-0.1,0.7-0.2,1.4-0.4,2.2l-0.2,0.9C61.7,11.6,61.5,11.9,61.1,12z"/>
	<path class="st5" d="M63.7,10.8c0.2-0.8,0.4-1.6,0.5-2.5c0-0.6,0.1-2.3,0.1-2.5c0.1-2.6-1.9-4.7-4.5-4.8c-2.6-0.1-4.7,1.9-4.8,4.5
		l0,0l-0.1,2.1c-0.1,2.1,1.6,3.5,3.2,4.9l0.8,0.7c1.1,0.9,1.7,1.4,2.4,4.8l1.4-0.9C62.8,14.9,63.1,12.8,63.7,10.8z M61.1,12
		c-0.4,0.1-0.8,0.1-1.1-0.2l-0.1-0.1L59.1,11c-1.3-1.1-2.6-2.2-2.6-3.5l0.1-2.1c0-0.8,0.3-1.5,0.9-2c1.2-1.1,3-1,4.1,0.1
		c0.5,0.6,0.8,1.3,0.8,2.1c0,0.3,0,1.9-0.1,2.5c-0.1,0.7-0.2,1.4-0.4,2.2l-0.2,0.9C61.7,11.6,61.5,11.9,61.1,12z"/>
	<path class="st5" d="M63.4,10.7c0.2-0.8,0.4-1.6,0.5-2.4c0-0.6,0.1-2.2,0.1-2.5c0-1.4-0.6-2.8-1.8-3.6c-0.7-0.5-1.6-0.8-2.5-0.9
		c-2.4-0.1-4.4,1.8-4.5,4.2l0,0l-0.1,2.1c-0.1,2,1.5,3.4,3.1,4.7l0.8,0.6c1.1,0.9,1.7,1.4,2.4,4.6l1-0.6
		C62.6,14.8,62.9,12.7,63.4,10.7z M61.1,12c-0.4,0.1-0.8,0.1-1.1-0.2l-0.1-0.1L59.1,11c-1.3-1.1-2.6-2.2-2.6-3.5l0.1-2.1
		c0-0.8,0.3-1.5,0.9-2c1.2-1.1,3-1,4.1,0.1c0.5,0.6,0.8,1.3,0.8,2.1c0,0.3,0,1.9-0.1,2.5c-0.1,0.7-0.2,1.4-0.4,2.2l-0.2,0.9
		C61.7,11.6,61.5,11.9,61.1,12L61.1,12z"/>
	<path class="st5" d="M63.2,10.6c0.2-0.8,0.4-1.6,0.5-2.4c0-0.5,0.1-2.2,0.1-2.5c0.1-2.3-1.7-4.2-4-4.2c-2.3-0.1-4.1,1.7-4.2,4
		l-0.2,2.1c-0.1,1.9,1.5,3.2,3,4.5l0.8,0.7c1.4,1.1,2.3,2.7,2.4,4.4l0.6-0.4C62.3,14.7,62.7,12.6,63.2,10.6z M61.1,12
		c-0.4,0.1-0.8,0.1-1.1-0.2l-0.1-0.1L59.1,11c-1.3-1.1-2.6-2.2-2.6-3.5l0.1-2.1c0-0.8,0.3-1.5,0.9-2c1.2-1.1,3-1,4.1,0.1
		c0.5,0.6,0.8,1.3,0.8,2.1c0,0.3,0,1.9-0.1,2.5c-0.1,0.7-0.2,1.4-0.4,2.2l-0.2,0.9C61.7,11.6,61.5,11.9,61.1,12z"/>
	<path class="st5" d="M62.9,10.6c0.2-0.8,0.4-1.6,0.5-2.4c0-0.5,0-2.1,0-2.5c0-1.3-0.5-2.5-1.6-3.2c-0.6-0.5-1.4-0.7-2.2-0.8
		c-2.1-0.1-3.9,1.6-4,3.7l0,0v0.1l-0.1,2.1c-0.1,1.8,1.4,3,2.9,4.3l0.8,0.7c1.3,1,2.2,2.5,2.4,4.2l0.2-0.1
		C62.1,14.5,62.4,12.5,62.9,10.6z M61.1,12c-0.4,0.1-0.8,0.1-1.1-0.2l-0.1-0.1L59.1,11c-1.3-1.1-2.6-2.2-2.6-3.5l0.1-2.1
		c0-0.8,0.3-1.5,0.9-2c1.2-1.1,3-1,4.1,0.1c0.5,0.6,0.8,1.3,0.8,2.1c0,0.3,0,1.9-0.1,2.5c-0.1,0.7-0.2,1.4-0.4,2.2l-0.2,0.9
		C61.7,11.6,61.5,11.9,61.1,12L61.1,12z"/>
	<path class="st4" d="M62.2,12.6c0.2-0.8,0.3-1.5,0.5-2.1c0.2-0.8,0.4-1.5,0.4-2.3c0-0.5,0.1-2.2,0.1-2.5c0.1-2-1.5-3.6-3.5-3.7
		c-2-0.1-3.6,1.5-3.7,3.5l0,0l-0.1,2.1c-0.1,1.6,1.4,2.9,2.8,4.1l0.8,0.7c0.3,0.3,0.6,0.6,0.9,0.9c0.4,0.4,1,0.4,1.5,0
		C62.1,13,62.2,12.8,62.2,12.6L62.2,12.6z M61.1,12c-0.4,0.1-0.8,0.1-1.1-0.2l-0.1-0.1L59.1,11c-1.3-1.1-2.6-2.2-2.6-3.5l0.1-2.1
		c0-0.8,0.3-1.5,0.9-2c1.2-1.1,3-1,4.1,0.1c0.5,0.6,0.8,1.3,0.8,2.1c0,0.3,0,1.9-0.1,2.5c-0.1,0.7-0.2,1.4-0.4,2.2l-0.2,0.9
		C61.7,11.6,61.5,11.9,61.1,12z"/>
	<path class="st3" d="M62,12.1c0.1-0.6,0.3-1.2,0.4-1.7c0.2-0.7,0.3-1.5,0.4-2.3c0-0.5,0.1-2.1,0.1-2.5c0-1.1-0.5-2.1-1.4-2.8
		c-0.5-0.4-1.2-0.6-1.9-0.7c-1.1,0-2.2,0.5-2.8,1.4c-0.4,0.6-0.6,1.3-0.6,2l-0.1,1.9c-0.1,1.5,1.4,2.7,2.7,3.9l0.8,0.7
		c0.2,0.2,0.4,0.4,0.6,0.6c0.4,0.4,1.1,0.4,1.5,0C61.9,12.5,62,12.3,62,12.1L62,12.1z M61.1,12c-0.4,0.1-0.8,0.1-1.1-0.2l-0.1-0.1
		L59.1,11c-1.3-1.1-2.6-2.2-2.6-3.5l0.1-2.1c0-0.8,0.3-1.5,0.9-2c1.2-1.1,3-1,4.1,0.1c0.5,0.6,0.8,1.3,0.8,2.1c0,0.3,0,1.9-0.1,2.5
		c-0.1,0.7-0.2,1.4-0.4,2.2l-0.2,0.9C61.7,11.6,61.5,11.9,61.1,12z"/>
	<path class="st2" d="M61.9,11.6c0.1-0.5,0.2-0.9,0.3-1.3c0.2-0.7,0.3-1.5,0.4-2.2c0-0.5,0.1-2.1,0.1-2.5c0.1-1.7-1.3-3.1-3-3.2
		c-0.8,0-1.6,0.3-2.2,0.8c-0.6,0.6-0.9,1.3-1,2.2l-0.1,2.1c0,1.4,1.3,2.5,2.6,3.6l0.8,0.7l0.4,0.3c0.4,0.4,1.1,0.3,1.4-0.1
		C61.8,12,61.8,11.8,61.9,11.6L61.9,11.6z M60.1,11.7L60.1,11.7L59.2,11c-1.3-1.1-2.6-2.2-2.5-3.4l0.1-2.1c0-1.6,1.3-2.8,2.9-2.7
		s2.8,1.3,2.7,2.9c0,0.3,0,1.9-0.1,2.5c-0.1,0.7-0.2,1.4-0.4,2.1c-0.1,0.3-0.1,0.6-0.2,0.9c-0.1,0.5-0.7,0.9-1.2,0.8
		C60.3,11.9,60.2,11.8,60.1,11.7L60.1,11.7z"/>
</g>
</svg>
