<?xml version="1.0" encoding="utf-8"?>
<!-- Generator: Adobe Illustrator 26.4.1, SVG Export Plug-In . SVG Version: 6.00 Build 0)  -->
<svg version="1.1" id="Layer_1" xmlns="http://www.w3.org/2000/svg" xmlns:xlink="http://www.w3.org/1999/xlink" x="0px" y="0px"
	 viewBox="0 0 72 88" style="enable-background:new 0 0 72 88;" xml:space="preserve">
<style type="text/css">
	.st0{fill:url(#SVGID_1_);}
	.st1{fill:url(#SVGID_00000120532349095513753010000006592631808285334670_);}
	.st2{fill:url(#SVGID_00000149364205185283911890000018329176823240716695_);}
	.st3{fill:url(#SVGID_00000024710799606480896500000008240557363843384981_);}
	.st4{fill:url(#SVGID_00000098189616386580078450000003558034335022612410_);}
	.st5{fill:url(#SVGID_00000020379346450239006460000017806734111120248971_);}
	.st6{fill:url(#SVGID_00000019674741484213366930000017024859904284142505_);}
	.st7{fill:url(#SVGID_00000091723315067088964110000009033199172885217951_);}
	.st8{fill:url(#SVGID_00000082329846541447519140000018316790085764600764_);}
	.st9{fill:url(#SVGID_00000125603773653921972070000006790136591590395791_);}
	.st10{fill:url(#SVGID_00000043439555261846296050000001633603577855724714_);}
	.st11{fill:url(#SVGID_00000022561949579450253340000004748132898231540643_);}
	.st12{fill:url(#SVGID_00000045583782429202065730000017675840139518047165_);}
	.st13{fill:url(#SVGID_00000003814550856824177090000005151206587067786651_);}
	.st14{fill:url(#SVGID_00000029754652561137859730000001761570418616916391_);}
	.st15{fill:url(#SVGID_00000135686775975348185160000016985053917793965451_);}
	.st16{fill:url(#SVGID_00000070821794654371979870000002091430616046497671_);}
	.st17{fill:url(#SVGID_00000078742414233607869790000005793634164897104007_);}
	.st18{fill:url(#SVGID_00000074437840800571052750000013079106148459640969_);}
	.st19{fill:url(#SVGID_00000078016355042783909620000013727481510914046895_);}
	.st20{fill:#C7B299;}
	.st21{fill:#F6BF25;}
	.st22{fill:#F1BC2B;}
	.st23{fill:#ECB931;}
	.st24{fill:#E6B737;}
	.st25{fill:#E1B43D;}
	.st26{fill:#DCB143;}
	.st27{fill:#D7AE49;}
	.st28{fill:#D2AB4F;}
	.st29{fill:#CDA955;}
	.st30{fill:#C7A65A;}
	.st31{fill:#C2A360;}
	.st32{fill:#BDA066;}
	.st33{fill:#B89D6C;}
	.st34{fill:#B39A72;}
	.st35{fill:#AD9878;}
	.st36{fill:#A8957E;}
	.st37{fill:#A39284;}
	.st38{fill:url(#SVGID_00000112596147504776404060000015521899905568047804_);}
	.st39{fill:url(#SVGID_00000168822276038786681870000011795299860490731397_);}
	.st40{fill:url(#SVGID_00000070833718711487794220000016389715249084765353_);}
	.st41{fill:#805B2A;}
	.st42{fill:#FFFFFF;}
	.st43{fill:url(#SVGID_00000087408043283809857530000008903257768193611686_);}
	.st44{fill:url(#SVGID_00000097501923958379156030000012288538600223791522_);}
	.st45{fill:url(#SVGID_00000106130846390211971870000001172115289760212914_);}
	.st46{fill:url(#SVGID_00000019647019718442070670000006771779310480637886_);}
	.st47{fill:#F9F9F9;}
	.st48{fill:url(#SVGID_00000024688361164515315860000013848085444171054250_);}
	.st49{fill:url(#SVGID_00000037682384593930127630000018221485893888690576_);}
	.st50{fill:url(#SVGID_00000182511689648493611360000014580660042365491879_);}
</style>
<radialGradient id="SVGID_1_" cx="-167.6363" cy="-131.4398" r="2.371" gradientTransform="matrix(1.8454 0.3496 0.8278 -4.3304 484.5812 -457.4668)" gradientUnits="userSpaceOnUse">
	<stop  offset="0" style="stop-color:#FFE16E"/>
	<stop  offset="0.461" style="stop-color:#FFD226"/>
	<stop  offset="0.741" style="stop-color:#F8C21D"/>
	<stop  offset="0.999" style="stop-color:#F0AF13"/>
</radialGradient>
<path class="st0" d="M64.9,46.2c2-0.6,6.9-0.2,7.1,5.4c0.2,5.4-1.2,7.8-3.1,10.1c-2.1,2.6-5.8,2.6-5.5,0.5
	C63.7,60.2,64.9,46.2,64.9,46.2z"/>
<radialGradient id="SVGID_00000012459399419087464090000006950652031908886677_" cx="-811.7331" cy="-174.6144" r="2.371" gradientTransform="matrix(-1.8358 0.3496 -0.8236 -4.3304 -1628.4359 -419.2627)" gradientUnits="userSpaceOnUse">
	<stop  offset="0" style="stop-color:#FFE16E"/>
	<stop  offset="0.461" style="stop-color:#FFD226"/>
	<stop  offset="0.741" style="stop-color:#F8C21D"/>
	<stop  offset="0.999" style="stop-color:#F0AF13"/>
</radialGradient>
<path style="fill:url(#SVGID_00000012459399419087464090000006950652031908886677_);" d="M7.1,46.2C5.1,45.6,0,46,0,51.7
	c0,5.5,1.2,7.8,3.1,10.1c2.1,2.6,5.8,2.6,5.5,0.5C8.3,60.2,7.1,46.2,7.1,46.2z"/>
<radialGradient id="SVGID_00000088104927782330001410000002030818177364288700_" cx="-230.5325" cy="-325.2663" r="18.586" fx="-230.6306" fy="-333.2291" gradientTransform="matrix(1.7462 0 0 -2.1414 438.5559 -648.8754)" gradientUnits="userSpaceOnUse">
	<stop  offset="0" style="stop-color:#FFE16E"/>
	<stop  offset="0.629" style="stop-color:#FFD226"/>
	<stop  offset="0.75" style="stop-color:#FDCD23"/>
	<stop  offset="0.899" style="stop-color:#F6BD1B"/>
	<stop  offset="0.999" style="stop-color:#F0AF13"/>
</radialGradient>
<path style="fill:url(#SVGID_00000088104927782330001410000002030818177364288700_);" d="M68,46.6c0,7.4-0.5,16.9-3.3,22.8
	C59.1,80.9,44.2,88,36,88c-8.5,0-23.2-7.1-28.8-18.6C4.3,63.5,4,53.9,4,46.6C4,45,4,43.4,4.1,42c0.5-8.3,2.4-14.1,5.2-19.4
	C15.1,12.1,24.9,7.3,36,7.3c11,0,20.8,4.7,26.5,15.1C66,28.7,68,35.7,68,46.6z"/>
<radialGradient id="SVGID_00000062165949744269211490000006140525781082164614_" cx="-241.3104" cy="-344.0409" r="14.25" gradientTransform="matrix(2.0174 0 0 -1.9846 523.4488 -659.368)" gradientUnits="userSpaceOnUse">
	<stop  offset="0" style="stop-color:#FFFFFF"/>
	<stop  offset="0.194" style="stop-color:#F5F0EA"/>
	<stop  offset="0.46" style="stop-color:#E9DFD4"/>
	<stop  offset="0.629" style="stop-color:#E5D9CC"/>
	<stop  offset="0.736" style="stop-color:#DED0C0"/>
	<stop  offset="0.926" style="stop-color:#CCB9A2"/>
	<stop  offset="0.972" style="stop-color:#C7B299"/>
</radialGradient>
<path style="fill:url(#SVGID_00000062165949744269211490000006140525781082164614_);" d="M4.8,48.1c0,0,0.8-10,0.3-13
	c2.3-1.7,8.7-6.6,7.7-14.4c3,2.4,18.3,12.6,42.8,4.6c5.4,6.5,6.5,6.8,10.6,9.2c1,2.8,1.4,12,1.3,13.5s1.8,2.7,2.7-0.5
	c0.3-1,1.6-9.6,1.8-15.5c0.4-12.9-4.4-32-36.2-32C4.9,0,0,19.2,0,32.3c0,8,1.4,15.2,1.4,15.2C1.8,49.4,4.4,49.7,4.8,48.1z"/>
<radialGradient id="SVGID_00000139999939747262576950000014882641459355153818_" cx="-242.4475" cy="-340.2043" r="14.415" gradientTransform="matrix(1.9872 0 0 -2.002 518.5604 -657.928)" gradientUnits="userSpaceOnUse">
	<stop  offset="0" style="stop-color:#FFFFFF"/>
	<stop  offset="0.194" style="stop-color:#F5F0EA"/>
	<stop  offset="0.46" style="stop-color:#E9DFD4"/>
	<stop  offset="0.629" style="stop-color:#E5D9CC"/>
	<stop  offset="0.736" style="stop-color:#DED0C0"/>
	<stop  offset="0.926" style="stop-color:#CCB9A2"/>
	<stop  offset="0.972" style="stop-color:#C7B299"/>
</radialGradient>
<path style="fill:url(#SVGID_00000139999939747262576950000014882641459355153818_);" d="M69.1,30.3c-0.1-0.2-0.3-0.5-0.5-0.6
	C64.9,27.5,61.8,22.9,57,17c-0.3-0.3-0.7-0.5-1.1-0.3c-20.6,6.6-37.9,0.2-43.7-3.5c-0.7-0.5-1.6,0.1-1.6,1c0,10.7-4.5,15.5-7.8,17.3
	c-0.4,0.2-0.6,0.6-0.6,1c-0.1,3.5-0.5,10.6,0.1,14c0.1,0.8,0.2,1.2,0.2,1.2C2.9,49.6,4.8,49.3,5,48c0,0,0.7-9,0.4-12.5
	c0-0.4,0.1-0.7,0.4-0.9c2.4-1.8,7.7-5.9,8-12c0-0.8,0.9-1.3,1.6-0.9c5.1,3.5,19.1,10.3,39.8,3.6c0.4-0.1,0.9,0,1.1,0.3
	c4.8,5.8,6,6.3,9.7,8.5c0.2,0.1,0.4,0.3,0.5,0.6c0.9,3.2,1.3,11.8,1.2,13.3c-0.1,1.5,1.8,2.7,2.7-0.5c0-0.1,0.1-0.4,0.2-0.8
	C70.8,44.5,70,33.5,69.1,30.3z"/>
<radialGradient id="SVGID_00000005972570030670213510000008673115063736056474_" cx="-242.4498" cy="-340.3133" r="14.341" gradientTransform="matrix(1.988 0 0 -2.002 518.778 -657.928)" gradientUnits="userSpaceOnUse">
	<stop  offset="0" style="stop-color:#FCFAF9"/>
	<stop  offset="0.174" style="stop-color:#F3EDE7"/>
	<stop  offset="0.452" style="stop-color:#E7DDD1"/>
	<stop  offset="0.629" style="stop-color:#E3D7C9"/>
	<stop  offset="0.741" style="stop-color:#DCCEBD"/>
	<stop  offset="0.941" style="stop-color:#CAB69F"/>
	<stop  offset="0.972" style="stop-color:#C7B299"/>
</radialGradient>
<path style="fill:url(#SVGID_00000005972570030670213510000008673115063736056474_);" d="M10.6,14.5c0,9.4-3.6,14.3-6.7,16.4
	c-0.4,0.3-0.7,0.5-1.1,0.7s-0.5,0.6-0.6,1.1c0,2.7-0.3,7.8-0.1,11.3c0,0.9,0.1,1.7,0.1,2.4v0.1c0.1,0.8,0.2,1.2,0.2,1.2
	c0.4,1.9,2.3,1.6,2.5,0.3c0,0,0.7-9,0.4-12.5c0-0.4,0.1-0.7,0.4-0.9c2.4-1.8,7.7-5.9,8-12c0-0.8,0.9-1.3,1.6-0.9
	c5.1,3.5,19.1,10.3,39.8,3.6c0.4-0.1,0.9,0,1.1,0.3c4.8,5.8,6,6.3,9.7,8.5c0.2,0.1,0.4,0.3,0.5,0.6c0.9,3.2,1.3,11.8,1.2,13.3
	c-0.1,1.5,1.8,2.7,2.7-0.5c0-0.1,0.1-0.4,0.2-0.8c0-0.4,0-1.4,0-2.5c0-4-0.6-11.2-1.4-13.8c-0.1-0.2-0.3-0.4-0.5-0.6l-0.1-0.1
	c-3.6-2.2-6.6-6.6-11.4-12.3c-0.3-0.3-0.7-0.5-1.1-0.3c-20.6,6.6-37.8,0.1-43.7-3.6C11.5,13,10.6,13.6,10.6,14.5z"/>
<radialGradient id="SVGID_00000012453646847674319210000009394512941342513574_" cx="-242.444" cy="-340.4223" r="14.271" gradientTransform="matrix(1.9888 0 0 -2.002 518.9916 -657.928)" gradientUnits="userSpaceOnUse">
	<stop  offset="0" style="stop-color:#F8F5F2"/>
	<stop  offset="0.145" style="stop-color:#F1EBE4"/>
	<stop  offset="0.441" style="stop-color:#E5DACE"/>
	<stop  offset="0.629" style="stop-color:#E1D4C6"/>
	<stop  offset="0.747" style="stop-color:#DACBBA"/>
	<stop  offset="0.957" style="stop-color:#C8B49C"/>
	<stop  offset="0.972" style="stop-color:#C7B299"/>
</radialGradient>
<path style="fill:url(#SVGID_00000012453646847674319210000009394512941342513574_);" d="M10.7,14.8c0,9.3-3.7,14.1-6.8,16.3
	c-0.4,0.3-0.7,0.5-1.1,0.7c-0.3,0.2-0.5,0.6-0.5,1.1c-0.1,2.9-0.3,8-0.2,11.2c0,0.9,0,1.7,0,2.3v0.1c0.1,0.7,0.2,1.2,0.2,1.2
	c0.4,1.9,2.3,1.6,2.5,0.3c0,0,0.7-9,0.4-12.5c0-0.4,0.1-0.7,0.4-0.9c2.4-1.8,7.7-5.9,8-12c0-0.8,0.9-1.3,1.6-0.9
	C20.3,25.2,34.3,32,55,25.3c0.4-0.1,0.9,0,1.1,0.3c4.8,5.8,6,6.3,9.7,8.5c0.2,0.1,0.4,0.3,0.5,0.6c0.9,3.2,1.3,11.8,1.2,13.3
	c-0.1,1.5,1.8,2.7,2.7-0.5c0-0.1,0.1-0.4,0.2-0.8c0-0.3,0-1.3,0-2.5c0-3.8-0.6-11.2-1.4-13.7c-0.1-0.2-0.2-0.4-0.5-0.6l-0.1-0.1
	c-3.7-2.2-6.5-6.3-11.3-12.1c-0.3-0.3-0.7-0.5-1.1-0.3c-20.6,6.6-37.8,0-43.6-3.7C11.6,13.3,10.7,13.9,10.7,14.8z"/>
<radialGradient id="SVGID_00000070093719647895312020000000932639406091233425_" cx="-242.4391" cy="-340.5304" r="14.215" gradientTransform="matrix(1.9896 0 0 -2.002 519.2072 -657.928)" gradientUnits="userSpaceOnUse">
	<stop  offset="0" style="stop-color:#F5F1EC"/>
	<stop  offset="0.129" style="stop-color:#EFE9E0"/>
	<stop  offset="0.434" style="stop-color:#E3D8CA"/>
	<stop  offset="0.629" style="stop-color:#DFD2C2"/>
	<stop  offset="0.756" style="stop-color:#D8C9B6"/>
	<stop  offset="0.972" style="stop-color:#C7B299"/>
</radialGradient>
<path style="fill:url(#SVGID_00000070093719647895312020000000932639406091233425_);" d="M10.8,15.1c0.1,9.1-3.7,14-6.9,16.1
	c-0.4,0.3-0.7,0.5-1,0.8c-0.3,0.2-0.5,0.6-0.5,1.1C2.3,36,2.1,41.3,2.3,44.3c0,0.9-0.1,1.7-0.1,2.2v0.1c0.1,0.7,0.2,1.2,0.2,1.2
	c0.4,1.9,2.2,1.6,2.5,0.3c0,0,0.8-9,0.4-12.5c0-0.4,0.1-0.7,0.4-0.9c2.4-1.8,7.7-5.9,8-12c0-0.8,0.9-1.3,1.6-0.9
	c5.1,3.5,19.1,10.3,39.8,3.6c0.4-0.1,0.9,0,1.1,0.3c4.8,5.8,6,6.3,9.7,8.5c0.2,0.1,0.4,0.3,0.5,0.6c0.9,3.2,1.3,11.8,1.2,13.3
	c-0.1,1.5,1.8,2.7,2.7-0.5c0-0.1,0.1-0.4,0.2-0.8c-0.1-0.2-0.1-1.2-0.1-2.4c0-3.6-0.6-11.1-1.4-13.7c-0.1-0.2-0.2-0.4-0.5-0.6
	L68.4,30c-3.7-2.2-6.4-6-11.2-11.8c-0.3-0.3-0.7-0.5-1.1-0.3c-20.6,6.6-37.7,0-43.5-3.8C11.6,13.6,10.8,14.2,10.8,15.1z"/>
<radialGradient id="SVGID_00000178187993708065590840000013212359019184243092_" cx="-242.4491" cy="-340.6394" r="14.167" gradientTransform="matrix(1.9904 0 0 -2.002 519.4228 -657.928)" gradientUnits="userSpaceOnUse">
	<stop  offset="0" style="stop-color:#F1ECE6"/>
	<stop  offset="0.102" style="stop-color:#EDE6DD"/>
	<stop  offset="0.424" style="stop-color:#E2D5C7"/>
	<stop  offset="0.629" style="stop-color:#DECFBF"/>
	<stop  offset="0.764" style="stop-color:#D7C6B3"/>
	<stop  offset="0.972" style="stop-color:#C7B299"/>
</radialGradient>
<path style="fill:url(#SVGID_00000178187993708065590840000013212359019184243092_);" d="M10.9,15.4c0.1,9-3.8,13.9-6.9,16
	c-0.4,0.3-0.7,0.5-1,0.8c-0.3,0.2-0.4,0.6-0.4,1.1c0,3-0.3,8.3-0.1,11.1c0,0.9-0.1,1.7-0.2,2.2v0.1c0.1,0.7,0.2,1.2,0.2,1.2
	c0.4,1.9,2.2,1.5,2.5,0.3c0,0,0.8-9,0.4-12.5c0-0.4,0.1-0.7,0.4-0.9c2.4-1.8,7.7-5.9,8-12c0-0.8,0.9-1.3,1.6-0.9
	c5.1,3.5,19.1,10.3,39.8,3.6c0.4-0.1,0.9,0,1.1,0.3c4.8,5.8,6,6.3,9.7,8.5c0.2,0.1,0.4,0.3,0.5,0.6c0.9,3.2,1.3,11.8,1.2,13.3
	c-0.1,1.5,1.8,2.7,2.7-0.5c0-0.1,0.1-0.4,0.2-0.8c-0.1-0.1-0.2-1.1-0.2-2.3c0-3.5-0.6-11-1.4-13.7c-0.1-0.2-0.2-0.4-0.4-0.6
	l-0.1-0.1c-3.7-2.2-6.3-5.8-11.1-11.6c-0.3-0.3-0.7-0.5-1.1-0.3c-20.6,6.6-37.6-0.1-43.4-3.8C11.7,13.9,10.8,14.5,10.9,15.4z"/>
<radialGradient id="SVGID_00000145745869268177323380000015099498382107225484_" cx="-242.4601" cy="-340.7483" r="14.119" gradientTransform="matrix(1.9912 0 0 -2.002 519.6364 -657.928)" gradientUnits="userSpaceOnUse">
	<stop  offset="0" style="stop-color:#EEE7DF"/>
	<stop  offset="5.900000e-02" style="stop-color:#ECE4DA"/>
	<stop  offset="0.407" style="stop-color:#E0D3C4"/>
	<stop  offset="0.629" style="stop-color:#DCCDBC"/>
	<stop  offset="0.773" style="stop-color:#D5C4B0"/>
	<stop  offset="0.972" style="stop-color:#C7B299"/>
</radialGradient>
<path style="fill:url(#SVGID_00000145745869268177323380000015099498382107225484_);" d="M10.9,15.7c0.1,8.8-3.8,13.8-7,15.8
	c-0.4,0.2-0.7,0.5-1,0.8c-0.2,0.3-0.4,0.6-0.4,1.1c0,3.1-0.2,8.4-0.1,11c0,0.9-0.2,1.6-0.3,2.1v0.1c0.1,0.7,0.2,1.2,0.2,1.2
	c0.4,1.9,2.2,1.5,2.5,0.3c0,0,0.8-8.9,0.4-12.4c0-0.4,0.1-0.7,0.4-0.9c2.4-1.8,7.7-5.9,8-12c0-0.8,0.9-1.3,1.6-0.9
	c5.1,3.5,19.1,10.3,39.8,3.6c0.4-0.1,0.9,0,1.1,0.3c4.8,5.8,6,6.3,9.7,8.5c0.2,0.1,0.4,0.3,0.5,0.6c0.9,3.2,1.3,11.8,1.2,13.3
	c-0.1,1.5,1.8,2.7,2.7-0.5c0-0.1,0.1-0.4,0.2-0.8c-0.1-0.1-0.3-1-0.3-2.2c0-3.3-0.6-10.9-1.4-13.6c-0.1-0.2-0.2-0.4-0.4-0.6
	l-0.1-0.1C64.4,28,61.8,24.7,57,18.9c-0.3-0.3-0.7-0.5-1.1-0.3c-20.6,6.6-37.5-0.2-43.3-3.9C11.8,14.2,10.9,14.8,10.9,15.7z"/>
<radialGradient id="SVGID_00000111884659289446233130000017160644385054438074_" cx="-242.4699" cy="-340.8564" r="14.072" gradientTransform="matrix(1.992 0 0 -2.002 519.852 -657.928)" gradientUnits="userSpaceOnUse">
	<stop  offset="0" style="stop-color:#EAE2D9"/>
	<stop  offset="2.100000e-02" style="stop-color:#E9E1D7"/>
	<stop  offset="0.392" style="stop-color:#DED0C1"/>
	<stop  offset="0.629" style="stop-color:#DACAB9"/>
	<stop  offset="0.783" style="stop-color:#D3C1AD"/>
	<stop  offset="0.972" style="stop-color:#C7B299"/>
</radialGradient>
<path style="fill:url(#SVGID_00000111884659289446233130000017160644385054438074_);" d="M11,16c0.2,8.7-3.9,13.6-7,15.7
	c-0.4,0.2-0.7,0.5-0.9,0.8s-0.3,0.7-0.3,1.1c0,3.1-0.2,8.6-0.1,10.9c-0.1,0.9-0.3,1.6-0.4,2v0.1c0.1,0.7,0.2,1.2,0.2,1.2
	c0.3,1.9,2.2,1.5,2.4,0.3c0,0,0.8-8.9,0.4-12.4c0-0.4,0.1-0.7,0.4-0.9c2.4-1.8,7.7-5.9,8-12c0-0.8,0.9-1.3,1.6-0.9
	c5.1,3.5,19.1,10.3,39.8,3.6c0.4-0.1,0.9,0,1.1,0.3c4.8,5.8,6,6.3,9.7,8.5c0.2,0.1,0.4,0.3,0.5,0.6c0.9,3.2,1.3,11.8,1.2,13.3
	c-0.1,1.5,1.8,2.7,2.7-0.5c0-0.1,0.1-0.4,0.2-0.8c-0.2,0-0.4-1-0.4-2.1c0.1-3.1-0.6-10.9-1.4-13.6c-0.1-0.2-0.2-0.4-0.4-0.5
	l-0.1-0.1c-3.7-2.2-6.2-5.3-11-11.1c-0.3-0.3-0.7-0.5-1.1-0.3c-20.6,6.6-37.5-0.2-43.3-4C11.9,14.5,11,15.1,11,16z"/>
<radialGradient id="SVGID_00000008837621535682010800000004440985946059816877_" cx="-242.4807" cy="-340.9654" r="14.024" gradientTransform="matrix(1.9928 0 0 -2.002 520.0676 -657.928)" gradientUnits="userSpaceOnUse">
	<stop  offset="0" style="stop-color:#E7DDD2"/>
	<stop  offset="0.368" style="stop-color:#DCCEBE"/>
	<stop  offset="0.629" style="stop-color:#D8C8B6"/>
	<stop  offset="0.796" style="stop-color:#D1BFAA"/>
	<stop  offset="0.972" style="stop-color:#C7B299"/>
</radialGradient>
<path style="fill:url(#SVGID_00000008837621535682010800000004440985946059816877_);" d="M11.1,16.3c0.2,8.6-3.9,13.5-7.1,15.5
	c-0.4,0.2-0.7,0.6-0.9,0.8c-0.2,0.3-0.3,0.7-0.3,1.1c0,3.2-0.2,8.7-0.1,10.8c-0.1,0.9-0.3,1.6-0.5,1.9v0.1c0.1,0.7,0.2,1.2,0.2,1.2
	c0.4,1.9,2.2,1.5,2.4,0.2c0,0,0.8-8.9,0.4-12.4c0-0.4,0.1-0.7,0.4-0.9c2.4-1.8,7.7-5.9,8-12c0-0.8,0.9-1.3,1.6-0.9
	C20.3,25.2,34.3,32,55,25.3c0.4-0.1,0.9,0,1.1,0.3c4.8,5.8,6,6.3,9.7,8.5c0.2,0.1,0.4,0.3,0.5,0.6c0.9,3.2,1.3,11.8,1.2,13.3
	c-0.1,1.5,1.8,2.7,2.7-0.5c0-0.1,0.1-0.4,0.2-0.8c-0.2,0.1-0.5-0.9-0.4-2c0.1-3-0.6-10.8-1.4-13.6c-0.1-0.2-0.2-0.4-0.4-0.5
	l-0.1-0.1c-3.7-2.2-6.1-5-10.9-10.8c-0.3-0.3-0.7-0.5-1.1-0.3C35.3,26,18.5,19,12.7,15.3C11.9,14.8,11.1,15.4,11.1,16.3z"/>
<radialGradient id="SVGID_00000059293721619242178390000017175578279529649342_" cx="-242.4904" cy="-341.0744" r="13.977" gradientTransform="matrix(1.9936 0 0 -2.002 520.2812 -657.9301)" gradientUnits="userSpaceOnUse">
	<stop  offset="0" style="stop-color:#E3D9CC"/>
	<stop  offset="0.346" style="stop-color:#DACCBB"/>
	<stop  offset="0.629" style="stop-color:#D6C6B3"/>
	<stop  offset="0.81" style="stop-color:#CFBDA7"/>
	<stop  offset="0.972" style="stop-color:#C7B299"/>
</radialGradient>
<path style="fill:url(#SVGID_00000059293721619242178390000017175578279529649342_);" d="M11.2,16.6C11.5,25,7.2,30,4,31.9
	c-0.4,0.2-0.7,0.6-0.9,0.9s-0.3,0.7-0.2,1.1c0.1,3.2-0.1,8.9,0,10.7c-0.1,0.9-0.4,1.5-0.7,1.8v0.1c0.1,0.7,0.2,1.2,0.2,1.2
	c0.4,1.9,2.2,1.5,2.4,0.2c0,0,0.8-8.9,0.4-12.4c0-0.4,0.1-0.7,0.4-0.9c2.4-1.8,7.7-5.9,8-12c0-0.8,0.9-1.3,1.6-0.9
	C20.3,25.2,34.3,32,55,25.3c0.4-0.1,0.9,0,1.1,0.3c4.8,5.8,6,6.3,9.7,8.5c0.2,0.1,0.4,0.3,0.5,0.6c0.9,3.2,1.3,11.8,1.2,13.3
	c-0.1,1.5,1.8,2.7,2.7-0.5c0-0.1,0.1-0.4,0.2-0.8c-0.3,0.2-0.6-0.8-0.5-2c0.1-2.8-0.6-10.7-1.4-13.6c-0.1-0.2-0.2-0.4-0.4-0.5
	L68,30.5c-3.7-2.2-6-4.7-10.8-10.5c-0.3-0.3-0.7-0.5-1.1-0.3c-20.6,6.6-37.3-0.4-43.1-4.1C12,15.1,11.2,15.7,11.2,16.6z"/>
<radialGradient id="SVGID_00000096021711497616004630000016158674296280673208_" cx="-242.501" cy="-341.1833" r="13.93" gradientTransform="matrix(1.9944 0 0 -2.002 520.4988 -657.9301)" gradientUnits="userSpaceOnUse">
	<stop  offset="0" style="stop-color:#E0D4C6"/>
	<stop  offset="0.329" style="stop-color:#D8C9B7"/>
	<stop  offset="0.629" style="stop-color:#D4C3AF"/>
	<stop  offset="0.836" style="stop-color:#CDBAA3"/>
	<stop  offset="0.972" style="stop-color:#C7B299"/>
</radialGradient>
<path style="fill:url(#SVGID_00000096021711497616004630000016158674296280673208_);" d="M11.3,16.9c0.3,8.3-4,13.3-7.2,15.2
	c-0.4,0.2-0.7,0.6-0.8,0.9C3.1,33.3,3,33.6,3,34.1c0.1,3.3-0.1,9,0,10.6c-0.1,0.9-0.5,1.5-0.8,1.8v0.1c0.1,0.7,0.2,1.1,0.2,1.1
	c0.4,1.9,2.2,1.5,2.4,0.2c0,0,0.8-8.9,0.5-12.4c0-0.4,0.1-0.7,0.4-0.9c2.4-1.8,7.7-5.9,8-12c0-0.8,0.9-1.3,1.6-0.9
	c5.1,3.5,19.1,10.3,39.8,3.6c0.4-0.1,0.9,0,1.1,0.3c4.8,5.8,6,6.3,9.7,8.5c0.2,0.1,0.4,0.3,0.5,0.6c0.9,3.2,1.3,11.8,1.2,13.3
	c-0.1,1.5,1.8,2.7,2.7-0.5c0-0.1,0.1-0.4,0.2-0.8C70,47,69.7,46,69.7,44.8c0.1-2.6-0.6-10.6-1.4-13.5c-0.1-0.2-0.2-0.4-0.4-0.5
	l-0.1-0.1c-3.7-2.2-5.9-4.5-10.7-10.3c-0.3-0.3-0.7-0.5-1.1-0.3c-20.6,6.6-37.2-0.5-43-4.2C12.1,15.4,11.2,16,11.3,16.9z"/>
<radialGradient id="SVGID_00000050636702806418764670000006880410169139136426_" cx="-242.5105" cy="-341.2914" r="13.884" gradientTransform="matrix(1.9952 0 0 -2.002 520.7124 -657.9301)" gradientUnits="userSpaceOnUse">
	<stop  offset="0" style="stop-color:#DCCFBF"/>
	<stop  offset="0.285" style="stop-color:#D6C7B4"/>
	<stop  offset="0.629" style="stop-color:#D2C1AC"/>
	<stop  offset="0.862" style="stop-color:#CBB8A0"/>
	<stop  offset="0.972" style="stop-color:#C7B299"/>
</radialGradient>
<path style="fill:url(#SVGID_00000050636702806418764670000006880410169139136426_);" d="M11.3,17.2c0.3,8.2-4.1,13.1-7.3,15
	c-0.4,0.2-0.7,0.6-0.8,0.9C3.1,33.4,3,33.8,3,34.2c0.1,3.4-0.1,9.2,0,10.5c-0.1,0.9-0.5,1.5-0.9,1.7v0.1c0.1,0.7,0.2,1.1,0.2,1.1
	c0.4,1.9,2.2,1.5,2.4,0.2c0,0,0.8-8.9,0.5-12.4c0-0.4,0.1-0.7,0.4-0.9c2.4-1.8,7.7-5.9,8-12c0-0.8,0.9-1.3,1.6-0.9
	c5.1,3.5,19.1,10.3,39.8,3.6c0.4-0.1,0.9,0,1.1,0.3c4.8,5.8,6,6.3,9.7,8.5c0.2,0.1,0.4,0.3,0.5,0.6c0.9,3.2,1.3,11.8,1.2,13.3
	c-0.1,1.5,1.8,2.7,2.7-0.5c0-0.1,0.1-0.4,0.2-0.8C70,47,69.7,46,69.7,44.8c0.1-2.5-0.6-10.6-1.4-13.5c-0.1-0.2-0.2-0.4-0.4-0.5
	l-0.1-0.1c-3.7-2.2-5.8-4.2-10.7-10c-0.3-0.3-0.7-0.5-1.1-0.3c-20.6,6.6-37.1-0.5-43-4.3C12.2,15.7,11.3,16.3,11.3,17.2z"/>
<radialGradient id="SVGID_00000161627225401409920270000006597969947435295116_" cx="-242.521" cy="-341.4004" r="13.837" gradientTransform="matrix(1.996 0 0 -2.002 520.926 -657.9301)" gradientUnits="userSpaceOnUse">
	<stop  offset="0" style="stop-color:#D9CAB9"/>
	<stop  offset="0.24" style="stop-color:#D5C4B1"/>
	<stop  offset="0.629" style="stop-color:#D0BEA9"/>
	<stop  offset="0.895" style="stop-color:#C9B59D"/>
	<stop  offset="0.972" style="stop-color:#C7B299"/>
</radialGradient>
<path style="fill:url(#SVGID_00000161627225401409920270000006597969947435295116_);" d="M11.4,17.5c0.4,8-4.1,13-7.4,14.9
	c-0.4,0.2-0.7,0.6-0.8,0.9c-0.1,0.3-0.1,0.7-0.1,1.1c0.1,3.4,0,9.3,0,10.4c-0.1,0.9-0.6,1.5-1,1.6v0.1c0.1,0.7,0.2,1.1,0.2,1.1
	c0.4,1.9,2.2,1.5,2.4,0.2c0,0,0.8-8.9,0.5-12.4c0-0.4,0.1-0.7,0.4-0.9c2.4-1.8,7.7-5.9,8-12c0-0.8,0.9-1.3,1.6-0.9
	c5.1,3.5,19.1,10.3,39.8,3.6c0.4-0.1,0.9,0,1.1,0.3c4.8,5.8,6,6.3,9.7,8.5c0.2,0.1,0.4,0.3,0.5,0.6c0.9,3.2,1.3,11.8,1.2,13.3
	c-0.1,1.5,1.8,2.7,2.7-0.5c0-0.1,0.1-0.4,0.2-0.8c-0.4,0.5-0.8-0.5-0.8-1.7c0.1-2.3-0.6-10.5-1.5-13.5c-0.1-0.2-0.2-0.4-0.4-0.5
	l-0.1-0.1c-3.7-2.2-5.8-4-10.6-9.8c-0.3-0.3-0.7-0.5-1.1-0.3c-20.6,6.6-37.1-0.6-42.9-4.3C12.3,16,11.4,16.6,11.4,17.5z"/>
<radialGradient id="SVGID_00000023245002891288863920000004457086571705510800_" cx="-242.5314" cy="-341.5094" r="13.791" gradientTransform="matrix(1.9968 0 0 -2.002 521.1416 -657.9301)" gradientUnits="userSpaceOnUse">
	<stop  offset="0" style="stop-color:#D5C5B3"/>
	<stop  offset="0.178" style="stop-color:#D3C2AE"/>
	<stop  offset="0.629" style="stop-color:#CFBCA6"/>
	<stop  offset="0.943" style="stop-color:#C8B39A"/>
	<stop  offset="0.972" style="stop-color:#C7B299"/>
</radialGradient>
<path style="fill:url(#SVGID_00000023245002891288863920000004457086571705510800_);" d="M11.5,17.8c0.4,7.9-4.1,12.9-7.4,14.7
	c-0.4,0.2-0.7,0.6-0.7,1c-0.1,0.3-0.1,0.7-0.1,1.1c0.1,3.5,0,9.4,0,10.4c-0.2,0.9-0.7,1.4-1.1,1.5v0.1c0.1,0.7,0.2,1.1,0.2,1.1
	c0.4,1.9,2.1,1.5,2.4,0.2c0,0,0.8-8.8,0.5-12.3c0-0.4,0.1-0.7,0.4-0.9c2.4-1.8,7.7-5.9,8-12c0-0.8,0.9-1.3,1.6-0.9
	c5.1,3.5,19.1,10.3,39.8,3.6c0.4-0.1,0.9,0,1.1,0.3c4.8,5.8,6,6.3,9.7,8.5c0.2,0.1,0.4,0.3,0.5,0.6c0.9,3.2,1.3,11.8,1.2,13.3
	c-0.1,1.5,1.8,2.7,2.7-0.5c0-0.1,0.1-0.4,0.2-0.8c-0.5,0.6-0.9-0.5-0.9-1.6c0.1-2.1-0.6-10.4-1.5-13.4c-0.1-0.2-0.2-0.4-0.4-0.5
	l-0.1-0.1c-3.7-2.2-5.7-3.7-10.5-9.5c-0.3-0.3-0.7-0.5-1.1-0.3C35.4,28,19,20.7,13.2,17C12.3,16.3,11.4,16.9,11.5,17.8z"/>
<radialGradient id="SVGID_00000006679257261465370330000013358150073498297480_" cx="-242.5416" cy="-341.6173" r="13.745" gradientTransform="matrix(1.9976 0 0 -2.002 521.3572 -657.9301)" gradientUnits="userSpaceOnUse">
	<stop  offset="0" style="stop-color:#D2C0AC"/>
	<stop  offset="4.200000e-02" style="stop-color:#D2BFAB"/>
	<stop  offset="0.629" style="stop-color:#CDB9A3"/>
	<stop  offset="0.972" style="stop-color:#C7B299"/>
</radialGradient>
<path style="fill:url(#SVGID_00000006679257261465370330000013358150073498297480_);" d="M11.6,18.1c0.4,7.7-4.2,12.8-7.5,14.6
	c-0.4,0.2-0.7,0.6-0.7,1c0,0.3-0.1,0.7,0,1.1c0.2,3.6,0,9.6,0.1,10.3c-0.2,0.9-0.7,1.4-1.2,1.4v0.1c0.1,0.7,0.2,1.1,0.2,1.1
	c0.4,1.9,2.1,1.5,2.4,0.2c0,0,0.8-8.8,0.5-12.3c0-0.4,0.1-0.7,0.4-0.9c2.4-1.8,7.7-5.9,8-12c0-0.8,0.9-1.3,1.6-0.9
	c5.1,3.5,19.1,10.3,39.8,3.6c0.4-0.1,0.9,0,1.1,0.3c4.8,5.8,6,6.3,9.7,8.5c0.2,0.1,0.4,0.3,0.5,0.6c0.9,3.2,1.3,11.8,1.2,13.3
	c-0.1,1.5,1.8,2.7,2.7-0.5c0-0.1,0.1-0.4,0.2-0.8c-0.5,0.6-1-0.4-0.9-1.5c0.1-2-0.6-10.3-1.5-13.4c-0.1-0.2-0.2-0.4-0.4-0.5
	l-0.1-0.1c-3.7-2.2-5.6-3.4-10.4-9.3c-0.3-0.3-0.7-0.5-1.1-0.3c-20.6,6.6-36.9-0.8-42.7-4.5C12.4,16.6,11.5,17.2,11.6,18.1z"/>
<radialGradient id="SVGID_00000150807542067148677530000013896125247261241755_" cx="-242.5518" cy="-341.7263" r="13.699" gradientTransform="matrix(1.9984 0 0 -2.002 521.5728 -657.9301)" gradientUnits="userSpaceOnUse">
	<stop  offset="0" style="stop-color:#CEBCA6"/>
	<stop  offset="0.629" style="stop-color:#CBB79F"/>
	<stop  offset="0.972" style="stop-color:#C7B299"/>
</radialGradient>
<path style="fill:url(#SVGID_00000150807542067148677530000013896125247261241755_);" d="M11.6,18.4C12.1,26,7.4,31,4.1,32.8
	c-0.4,0.2-0.7,0.6-0.7,1c0,0.3,0,0.7,0,1.1c0.2,3.6,0.1,9.7,0.1,10.2c-0.2,0.9-0.8,1.4-1.3,1.4v0.1c0.1,0.7,0.2,1.1,0.2,1.1
	c0.4,1.9,2.1,1.5,2.4,0.1c0,0,0.8-8.8,0.5-12.3c0-0.4,0.1-0.7,0.4-0.9c2.4-1.8,7.7-5.9,8-12c0-0.8,0.9-1.3,1.6-0.9
	c5.1,3.5,19.1,10.3,39.8,3.6c0.4-0.1,0.9,0,1.1,0.3c4.8,5.8,6,6.3,9.7,8.5c0.2,0.1,0.4,0.3,0.5,0.6c0.9,3.2,1.3,11.8,1.2,13.3
	c-0.1,1.5,1.8,2.7,2.7-0.5c0-0.1,0.1-0.4,0.2-0.8c-0.6,0.7-1.1-0.3-1-1.5c0.1-1.8-0.5-10.3-1.5-13.4c-0.1-0.2-0.2-0.4-0.4-0.5
	l-0.1-0.1c-3.7-2.2-5.5-3.2-10.3-9c-0.3-0.3-0.7-0.5-1.1-0.3c-20.6,6.6-36.8-0.8-42.6-4.6C12.5,16.9,11.6,17.5,11.6,18.4z"/>
<radialGradient id="SVGID_00000163770183944869269560000004468781669591959453_" cx="-242.562" cy="-341.8354" r="13.654" gradientTransform="matrix(1.9992 0 0 -2.002 521.7864 -657.9301)" gradientUnits="userSpaceOnUse">
	<stop  offset="0" style="stop-color:#CBB79F"/>
	<stop  offset="0.629" style="stop-color:#C9B49C"/>
	<stop  offset="0.972" style="stop-color:#C7B299"/>
</radialGradient>
<path style="fill:url(#SVGID_00000163770183944869269560000004468781669591959453_);" d="M11.7,18.7c0.5,7.5-4.3,12.5-7.6,14.3
	c-0.4,0.2-0.6,0.6-0.6,1c0,0.3,0,0.7,0.1,1.1c0.2,3.7,0.1,9.9,0.1,10.1c-0.2,0.9-0.8,1.4-1.4,1.3v0.1c0.1,0.7,0.2,1.1,0.2,1.1
	c0.4,1.9,2.1,1.5,2.4,0.1c0,0,0.9-8.8,0.5-12.3c0-0.4,0.1-0.7,0.4-0.9c2.4-1.8,7.7-5.9,8-12c0-0.8,0.9-1.3,1.6-0.9
	c5.1,3.5,19.1,10.3,39.8,3.6c0.4-0.1,0.9,0,1.1,0.3c4.8,5.8,6,6.3,9.7,8.5c0.2,0.1,0.4,0.3,0.5,0.6c0.9,3.2,1.3,11.8,1.2,13.3
	c-0.1,1.5,1.8,2.7,2.7-0.5c0-0.1,0.1-0.4,0.2-0.8c-0.6,0.8-1.2-0.2-1.1-1.4C69.6,43.7,69,35.1,68,32c-0.1-0.2-0.2-0.4-0.4-0.5
	l-0.1-0.1c-3.7-2.2-5.4-2.9-10.3-8.7c-0.3-0.3-0.7-0.5-1.1-0.3c-20.6,6.6-36.7-0.9-42.6-4.6C12.6,17.2,11.7,17.8,11.7,18.7z"/>
<path class="st20" d="M69.1,45.4c0.1-1.5-0.5-10.1-1.5-13.3c-0.1-0.2-0.3-0.5-0.5-0.6c-3.7-2.2-5.3-2.7-10.2-8.5
	c-0.3-0.3-0.7-0.5-1.1-0.3c-20.6,6.6-36.7-1-42.5-4.7c-0.7-0.5-1.6,0.1-1.6,1c0.5,7.3-4.3,12.4-7.7,14.1c-0.4,0.2-0.6,0.6-0.6,1
	c0.4,3.5,0.2,11.2,0.2,11.2c-0.2,0.9-0.9,1.3-1.5,1.2c0.1,0.8,0.2,1.2,0.2,1.2c0.4,1.9,2.1,1.5,2.4,0.1c0,0,0.9-8.8,0.5-12.3
	c0-0.4,0.1-0.7,0.4-0.9c2.4-1.8,7.7-5.9,8-12c0-0.8,0.9-1.3,1.6-0.9C20.3,25.2,34.3,32,55,25.3c0.4-0.1,0.9,0,1.1,0.3
	c4.8,5.8,6,6.3,9.7,8.5c0.2,0.1,0.4,0.3,0.5,0.6c0.9,3.2,1.3,11.8,1.2,13.3c-0.1,1.5,1.8,2.7,2.7-0.5c0-0.1,0.1-0.4,0.2-0.8
	C69.6,47.6,69,46.6,69.1,45.4z"/>
<g>
	<path class="st21" d="M65.1,34c-3.7-2.2-4.4-2.5-9.2-8.3c-0.3-0.4-0.7-0.2-1.2-0.1c-20.4,6.6-33.6,0.3-38.7-3
		c-0.7-0.5-1.7,0-1.8,0.9c-0.4,5.8-5.5,9.1-7.9,10.8c-0.4,0.2-0.5,0.7-0.5,1.1c0.3,3.1-0.3,12.3-0.6,12.5c0.5-0.1,2.3-8.4,2.7-11.3
		c0-0.4,0.2-0.7,0.5-0.9c2.3-1.5,6.1-3.7,7.5-7.7c0.2-0.7,1-0.9,1.6-0.6c4.7,2.4,17.8,7.6,35.9,2.2c0.4-0.1,0.9,0,1.2,0.4
		c3.8,4.5,6.1,4.9,9,6.3c0.3,0.1,0.5,0.3,0.6,0.6c1.6,3.3,0.8,11.5,3.2,12.3c-1-1.7-0.5-11.2-2-14.6C65.5,34.3,65.3,34.1,65.1,34z"
		/>
	<path class="st22" d="M14.2,23.4c-0.4,5.8-5.5,9.2-7.9,10.9c-0.1,0.1-0.1,0.1-0.2,0.2c-0.2,0.2-0.3,0.6-0.3,0.9
		c0.2,2.5-0.1,9-0.4,11.4c-0.1,0.7-0.2,1.1-0.3,1.1c0.2,0,0.4-0.7,0.7-1.6c0.7-2.5,1.7-7.6,1.9-9.8c0-0.3,0.2-0.7,0.5-0.8
		c2.2-1.5,6.1-3.8,7.5-7.8c0.2-0.7,1-1,1.5-0.7c0.2,0.1,0.4,0.2,0.6,0.3c5.1,2.6,18.1,7.3,35.6,2c0.4-0.1,0.7,0,1,0.2
		c0.1,0.1,0.1,0.1,0.2,0.2c3.7,4.4,5.9,4.9,8.7,6.2c0.1,0,0.2,0.1,0.3,0.2c0.1,0,0.2,0.1,0.2,0.2c0.1,0.1,0.3,0.3,0.4,0.5
		c1.1,2.4,1,7.3,1.7,10.1c0.3,1.2,0.8,2.1,1.5,2.3c-0.2-0.3-0.4-1-0.5-1.9c-0.4-3.3-0.3-10-1.5-12.7c-0.1-0.2-0.3-0.4-0.5-0.6
		c-3.7-2.2-4.5-2.5-9.2-8.3c-0.3-0.4-0.7-0.3-1.2-0.1c-20.4,6.6-33.6,0.3-38.8-3C15.3,22.1,14.3,22.5,14.2,23.4z"/>
	<path class="st23" d="M14.2,23.4c-0.4,5.9-5.5,9.2-7.9,10.9c-0.1,0.1-0.1,0.1-0.2,0.2c-0.2,0.2-0.3,0.6-0.3,0.9
		c0.2,2.5-0.1,9.2-0.4,11.5c-0.2,0.6-0.3,1-0.4,1.1c0.2,0,0.5-0.7,0.8-1.6c0.7-2.5,1.6-7.7,1.9-9.9c0-0.3,0.2-0.6,0.5-0.8
		c2.2-1.5,6.1-3.8,7.5-7.9c0.2-0.7,0.9-1,1.5-0.8c0.2,0.1,0.4,0.1,0.6,0.2c5,2.6,18.2,7.4,35.8,2.1c0.4-0.1,0.7,0,1,0.2
		c0.1,0.1,0.1,0.1,0.2,0.2c3.8,4.5,5.8,5,8.8,6.3c0.1,0.1,0.2,0.1,0.3,0.2c0.1,0,0.2,0.1,0.2,0.2c0.1,0.1,0.3,0.3,0.3,0.5
		c1.1,2.5,1,7.5,1.6,10.2c0.3,1.2,0.8,2.1,1.5,2.3c-0.3-0.3-0.5-1-0.6-1.9c-0.3-3.2-0.3-10-1.4-12.7c-0.1-0.2-0.3-0.4-0.5-0.6
		c-3.7-2.2-4.5-2.5-9.2-8.3c-0.3-0.4-0.7-0.3-1.2-0.1c-20.4,6.6-33.7,0.3-38.8-3.1C15.2,22,14.2,22.5,14.2,23.4z"/>
	<path class="st24" d="M14.1,23.3c-0.4,5.9-5.5,9.3-7.9,11c-0.1,0-0.2,0.1-0.2,0.2c-0.2,0.2-0.3,0.6-0.3,0.9C5.9,38,5.5,44.9,5.3,47
		c-0.1,0.7-0.2,1-0.3,1.1c0.2-0.1,0.6-0.7,0.8-1.6c0.7-2.4,1.5-7.8,1.8-10c0-0.3,0.2-0.6,0.5-0.8c2.2-1.5,6.1-3.9,7.5-8
		c0.2-0.7,0.9-1,1.4-0.9c0.2,0,0.4,0.1,0.6,0.2c4.9,2.7,18.3,7.6,36.1,2.1c0.4-0.1,0.8,0,1,0.2c0.1,0.1,0.1,0.1,0.2,0.2
		c3.9,4.6,5.8,5,8.8,6.4c0.1,0.1,0.2,0.1,0.3,0.2c0.1,0,0.2,0.1,0.2,0.2c0.1,0.1,0.3,0.3,0.3,0.5c1,2.5,1,7.6,1.6,10.3
		c0.3,1.2,0.8,2.2,1.6,2.2c-0.3-0.3-0.5-1-0.6-1.9c-0.3-3.1-0.3-10.1-1.4-12.8c-0.1-0.2-0.3-0.4-0.5-0.6c-3.7-2.2-4.5-2.5-9.3-8.3
		c-0.3-0.4-0.7-0.3-1.2-0.1c-20.5,6.6-33.8,0.2-38.9-3.1C15.2,22,14.2,22.4,14.1,23.3z"/>
	<path class="st25" d="M14.1,23.2c-0.4,5.9-5.5,9.4-7.9,11.1c-0.1,0.1-0.1,0.1-0.2,0.2c-0.2,0.2-0.4,0.6-0.3,0.9
		C5.9,38,5.5,45.1,5.2,47c-0.1,0.6-0.2,1-0.4,1.1c0.3-0.1,0.6-0.7,0.9-1.6c0.7-2.4,1.5-7.9,1.7-10.2c0-0.3,0.2-0.6,0.5-0.8
		c2.2-1.5,6.1-3.9,7.5-8.1c0.2-0.7,0.8-0.9,1.3-1c0.2,0,0.4,0,0.6,0.2c4.8,2.7,18.4,7.8,36.3,2.2c0.4-0.1,0.8,0,1,0.2
		c0.1,0.1,0.1,0.1,0.2,0.2c3.9,4.6,5.8,5.1,8.8,6.5c0.1,0.1,0.2,0.1,0.3,0.2c0.1,0,0.2,0.1,0.2,0.2c0.1,0.1,0.2,0.3,0.3,0.5
		c1,2.5,1,7.8,1.5,10.4c0.3,1.2,0.8,2.2,1.6,2.2c-0.3-0.2-0.6-0.9-0.7-1.8c-0.2-3-0.3-10.1-1.4-12.8c-0.1-0.2-0.3-0.4-0.5-0.6
		c-3.7-2.2-4.5-2.5-9.3-8.3c-0.3-0.4-0.7-0.3-1.2-0.1c-20.5,6.6-33.9,0.2-39-3.2C15.1,21.9,14.1,22.4,14.1,23.2z"/>
	<path class="st26" d="M14,23.2c-0.4,5.9-5.4,9.4-7.9,11.2c-0.1,0-0.1,0-0.2,0.1c-0.2,0.2-0.4,0.6-0.3,0.9c0.3,2.7-0.2,9.9-0.4,11.7
		c-0.1,0.6-0.3,1-0.4,1.1c0.3-0.1,0.7-0.7,1-1.6c0.6-2.3,1.4-8,1.6-10.3c0-0.3,0.2-0.6,0.5-0.8c2.2-1.5,6.1-4,7.5-8.2
		c0.2-0.7,0.8-0.9,1.3-1.1c0.1,0,0.4,0,0.6,0.1c4.8,2.7,18.6,8,36.6,2.3c0.4-0.1,0.8,0,1.1,0.2c0.1,0.1,0.1,0.1,0.2,0.2
		c4,4.7,5.8,5.1,8.8,6.6c0.1,0.1,0.2,0.1,0.3,0.2c0.1,0.1,0.2,0.1,0.2,0.2c0.1,0.1,0.2,0.3,0.3,0.5c1,2.6,0.9,8,1.5,10.5
		c0.3,1.2,0.9,2.2,1.6,2.2c-0.4-0.2-0.6-0.9-0.7-1.8c-0.2-2.8-0.3-10.1-1.4-12.9c-0.1-0.2-0.3-0.4-0.5-0.6c-3.7-2.2-4.6-2.5-9.3-8.3
		c-0.3-0.4-0.7-0.3-1.2-0.2c-20.5,6.6-34,0.2-39.1-3.2C15,21.9,14.1,22.3,14,23.2z"/>
	<path class="st27" d="M14,23.1c-0.3,5.9-5.4,9.5-7.9,11.2C6,34.4,6,34.4,5.9,34.5c-0.2,0.2-0.4,0.6-0.3,0.9
		c0.3,2.7-0.2,10.2-0.4,11.8c-0.1,0.6-0.3,1-0.5,1.1c0.3-0.1,0.7-0.7,1-1.5c0.6-2.3,1.3-8.1,1.5-10.5c0-0.3,0.2-0.6,0.5-0.8
		c2.2-1.5,6.1-4,7.5-8.4c0.2-0.6,0.8-1,1.2-1.1c0.1,0,0.4-0.1,0.6,0.1c4.7,2.8,18.7,8.2,36.8,2.4c0.4-0.1,0.8,0,1.1,0.2
		c0.1,0.1,0.1,0.1,0.2,0.2c4,4.8,5.8,5.2,8.9,6.7c0.1,0.1,0.2,0.1,0.3,0.2c0.1,0.1,0.2,0.1,0.2,0.2c0.1,0.1,0.2,0.3,0.3,0.5
		c1,2.6,0.9,8.2,1.4,10.6c0.2,1.2,0.9,2.2,1.7,2.2c-0.4-0.2-0.7-0.9-0.7-1.8c-0.2-2.7-0.3-10.1-1.4-12.9c-0.1-0.2-0.3-0.4-0.5-0.6
		c-3.7-2.2-4.6-2.6-9.4-8.3c-0.3-0.3-0.7-0.3-1.2-0.2c-20.6,6.6-34,0.1-39.2-3.2C15,21.8,14,22.3,14,23.1z"/>
	<path class="st28" d="M14,23c-0.3,5.9-5.4,9.6-7.9,11.3C6,34.4,6,34.4,5.9,34.5c-0.3,0.2-0.4,0.6-0.3,0.9
		c0.3,2.7-0.2,10.4-0.4,11.8c-0.1,0.6-0.3,1-0.5,1.1c0.3-0.1,0.8-0.7,1.1-1.5c0.6-2.2,1.2-8.2,1.5-10.6c0-0.3,0.2-0.6,0.5-0.8
		c2.2-1.5,6.1-4.1,7.5-8.5c0.2-0.6,0.7-1.1,1.1-1.2c0.1-0.1,0.4-0.1,0.6,0c4.6,2.8,18.8,8.3,37.1,2.5c0.4-0.1,0.8,0,1.1,0.2
		c0.1,0.1,0.1,0.1,0.2,0.2c4.1,4.9,5.7,5.2,8.9,6.8c0.1,0.1,0.2,0.1,0.3,0.2c0.1,0.1,0.1,0.1,0.2,0.2c0.1,0.1,0.2,0.3,0.3,0.5
		C66,39,66,44.7,66.5,47c0.2,1.2,0.9,2.3,1.7,2.1c-0.4-0.2-0.7-0.9-0.8-1.8c-0.3-2.3-0.4-9.9-1.5-12.7c-0.1-0.2-0.3-0.4-0.5-0.6
		c-3.7-2.2-4.6-2.6-9.4-8.4c-0.3-0.3-0.7-0.3-1.1-0.2c-20.6,6.6-34.1,0.1-39.2-3.3C14.9,21.7,14,22.2,14,23z"/>
	<path class="st29" d="M13.9,23c-0.3,6-5.4,9.6-7.9,11.4c-0.1,0.1-0.1,0.1-0.2,0.2c-0.3,0.2-0.4,0.6-0.3,0.9
		c0.3,2.8-0.2,10.6-0.4,11.9c-0.1,0.6-0.3,1-0.5,1.1C5,48.4,5.4,47.9,5.7,47c0.6-2.2,1.2-8.4,1.4-10.8c0-0.3,0.2-0.6,0.4-0.8
		c2.2-1.5,6.1-4.2,7.5-8.6c0.2-0.6,0.7-1.1,1-1.3c0.1-0.1,0.4-0.2,0.6,0c4.6,2.8,18.9,8.5,37.3,2.6c0.4-0.1,0.8,0,1.1,0.2
		c0.1,0.1,0.1,0.1,0.2,0.2c4.2,5,5.7,5.3,8.9,7c0.1,0.1,0.2,0.1,0.3,0.2c0.1,0.1,0.1,0.1,0.2,0.2c0.1,0.2,0.2,0.3,0.3,0.5
		c0.9,2.7,0.9,8.5,1.3,10.8c0.2,1.1,0.9,2.3,1.8,2.1c-0.4-0.1-0.8-0.8-0.8-1.7c-0.1-2.5-0.3-10.2-1.3-13c-0.1-0.2-0.3-0.4-0.5-0.6
		c-3.7-2.2-4.6-2.6-9.4-8.4c-0.3-0.3-0.7-0.3-1.1-0.2c-20.6,6.7-34.2,0.1-39.3-3.3C14.9,21.7,14,22.1,13.9,23z"/>
	<path class="st30" d="M13.9,22.9c-0.3,6-5.4,9.7-7.9,11.5c-0.1,0.1-0.1,0.1-0.2,0.2c-0.3,0.2-0.4,0.6-0.4,0.9
		c0.3,2.8-0.3,10.9-0.4,12c-0.1,0.6-0.4,1-0.6,1.1c0.4-0.1,0.9-0.6,1.2-1.5c0.6-2.1,1.1-8.5,1.3-10.9c0-0.3,0.2-0.6,0.4-0.8
		c2.2-1.5,6-4.2,7.5-8.7c0.2-0.6,0.7-1.1,1-1.4c0.1-0.1,0.4-0.2,0.6,0C20.9,28.1,35.5,34,54,28c0.4-0.1,0.8,0,1.1,0.3
		c0.1,0.1,0.1,0.1,0.2,0.2c4.2,5,5.7,5.3,9,7.1c0.1,0.1,0.2,0.1,0.3,0.2c0.1,0.1,0.1,0.1,0.2,0.2c0.1,0.2,0.2,0.3,0.3,0.5
		c0.9,2.8,0.8,8.7,1.3,10.9c0.2,1.1,1,2.3,1.8,2.1c-0.5-0.1-0.8-0.8-0.9-1.7c-0.1-2.3-0.3-10.2-1.3-13c-0.1-0.2-0.3-0.4-0.5-0.6
		c-3.7-2.2-4.7-2.6-9.5-8.4c-0.3-0.3-0.7-0.4-1.1-0.2c-20.7,6.7-34.3,0-39.4-3.4C14.8,21.6,13.9,22.1,13.9,22.9z"/>
	<path class="st31" d="M13.8,22.9c-0.3,6-5.4,9.8-7.9,11.5c-0.1,0.1-0.1,0.1-0.2,0.2c-0.3,0.2-0.4,0.6-0.4,0.9
		C5.7,38.4,5.1,46.6,5,47.6c-0.1,0.6-0.4,0.9-0.6,1c0.4-0.1,1-0.6,1.2-1.5c0.5-2.1,1-8.6,1.2-11.1c0-0.3,0.2-0.6,0.4-0.8
		c2.2-1.5,6-4.3,7.5-8.8c0.2-0.6,0.6-1.2,0.9-1.5c0.1-0.1,0.4-0.2,0.7-0.1c4.4,2.9,19.2,8.9,37.8,2.8c0.4-0.1,0.8,0,1.1,0.3
		c0.1,0.1,0.1,0.1,0.2,0.2c4.3,5.1,5.7,5.4,9,7.2c0.1,0.1,0.2,0.1,0.3,0.2c0.1,0.1,0.1,0.1,0.2,0.2c0.1,0.2,0.2,0.3,0.2,0.5
		c0.9,2.8,0.8,8.9,1.2,10.9c0.2,1.1,1,2.3,1.8,2c-0.5-0.1-0.9-0.8-0.9-1.7c0-2.2-0.3-10.2-1.3-13c-0.1-0.2-0.3-0.4-0.5-0.6
		c-3.7-2.2-4.7-2.6-9.5-8.4c-0.3-0.3-0.7-0.4-1.1-0.2c-20.7,6.7-34.4,0-39.5-3.4C14.8,21.6,13.9,22,13.8,22.9z"/>
	<path class="st32" d="M13.8,22.8c-0.3,6-5.4,9.8-7.9,11.6c-0.1,0.1-0.1,0.1-0.2,0.2c-0.3,0.2-0.4,0.6-0.4,0.9
		C5.6,38.4,5,46.8,5,47.6c-0.1,0.6-0.4,0.9-0.7,1c0.4-0.1,1-0.6,1.3-1.4c0.5-2,0.9-8.7,1.1-11.2c0-0.3,0.2-0.6,0.4-0.8
		c2.1-1.5,6-4.3,7.5-8.9c0.2-0.6,0.6-1.2,0.8-1.6c0.1-0.2,0.4-0.3,0.7-0.1c4.3,2.9,19.3,9,38.1,2.9c0.4-0.1,0.8,0,1.1,0.3
		c0.1,0.1,0.1,0.1,0.2,0.2c4.3,5.2,5.6,5.4,9,7.3c0.1,0.1,0.2,0.1,0.3,0.2c0.1,0.1,0.1,0.2,0.2,0.2c0.1,0.2,0.2,0.3,0.2,0.6
		c0.9,2.9,0.8,9.1,1.2,11c0.2,1.1,1,2.4,1.9,2c-0.5,0-1-0.8-1-1.6c0-2.1-0.2-10.3-1.3-13.1c-0.1-0.2-0.3-0.4-0.5-0.6
		c-3.7-2.2-4.7-2.6-9.5-8.4c-0.3-0.3-0.7-0.4-1.1-0.2c-20.7,6.7-34.4,0-39.6-3.4C14.7,21.5,13.8,22,13.8,22.8z"/>
	<path class="st33" d="M13.8,22.7c-0.3,6-5.4,9.9-7.9,11.7c-0.1,0.1-0.1,0.1-0.2,0.2c-0.3,0.2-0.4,0.6-0.4,0.9
		c0.3,3-0.3,11.6-0.4,12.2c-0.1,0.6-0.4,0.9-0.7,1c0.5-0.1,1.1-0.6,1.4-1.4c0.5-2,0.9-8.8,1-11.3c0-0.3,0.2-0.6,0.4-0.8
		c2.1-1.5,6-4.4,7.5-9c0.2-0.6,0.5-1.2,0.8-1.7c0.1-0.2,0.4-0.3,0.7-0.2c4.3,2.9,19.4,9.2,38.4,3c0.4-0.1,0.8,0,1.1,0.3
		c0.1,0.1,0.1,0.1,0.2,0.2c4.4,5.3,5.6,5.5,9,7.4c0.1,0.1,0.2,0.2,0.3,0.2c0.1,0.1,0.1,0.2,0.2,0.3c0.1,0.2,0.2,0.4,0.2,0.6
		c0.8,2.9,0.8,9.2,1.1,11.1c0.2,1.1,1,2.4,1.9,2c-0.6,0-1-0.7-1-1.6c0-2-0.2-10.3-1.2-13.1c-0.1-0.2-0.3-0.4-0.5-0.6
		c-3.7-2.2-4.7-2.6-9.6-8.4c-0.3-0.3-0.7-0.4-1.1-0.3c-20.7,6.7-34.5-0.1-39.6-3.5C14.7,21.5,13.8,21.9,13.8,22.7z"/>
	<path class="st34" d="M13.7,22.7c-0.3,6-5.4,10-7.9,11.8c-0.1,0.1-0.1,0.1-0.2,0.2c-0.3,0.2-0.4,0.6-0.4,0.9
		c0.3,3-0.3,11.8-0.4,12.3c-0.1,0.6-0.5,0.9-0.7,1c0.5-0.1,1.1-0.6,1.4-1.4c0.5-1.9,0.8-8.9,1-11.5c0-0.3,0.2-0.6,0.4-0.7
		c2.1-1.5,6-4.4,7.5-9.2c0.2-0.6,0.5-1.2,0.7-1.8c0.1-0.2,0.4-0.4,0.7-0.2c4.2,3,19.6,9.4,38.6,3.1c0.4-0.1,0.8,0,1.1,0.3
		c0.1,0.1,0.1,0.1,0.2,0.2c4.5,5.4,5.6,5.5,9.1,7.5c0.1,0.1,0.2,0.2,0.3,0.3c0.1,0.1,0.1,0.2,0.2,0.3c0.1,0.2,0.2,0.4,0.2,0.6
		c0.8,3,0.8,9.4,1,11.2c0.2,1.1,1.1,2.4,2,2c-0.6,0-1.1-0.7-1.1-1.6c0.1-1.8-0.2-10.3-1.2-13.2c-0.1-0.2-0.3-0.4-0.5-0.6
		c-3.7-2.2-4.8-2.6-9.6-8.5c-0.3-0.3-0.7-0.4-1.1-0.3c-20.8,6.7-34.6-0.1-39.7-3.5C14.6,21.4,13.7,21.9,13.7,22.7z"/>
	<path class="st35" d="M13.7,22.6c-0.3,6-5.3,10-7.9,11.9c-0.1,0.1-0.1,0.1-0.2,0.2c-0.3,0.2-0.4,0.6-0.4,0.9c0.3,3-0.3,12-0.4,12.4
		c-0.1,0.6-0.5,0.9-0.8,1c0.5-0.1,1.2-0.6,1.5-1.4c0.5-1.9,0.7-9,0.9-11.6c0-0.3,0.2-0.6,0.4-0.7c2.1-1.5,6-4.5,7.5-9.3
		c0.2-0.6,0.5-1.3,0.6-1.8c0.1-0.3,0.4-0.4,0.7-0.3c4.1,3,19.7,9.6,38.9,3.1c0.4-0.1,0.8,0,1.1,0.3c0.1,0.1,0.1,0.1,0.2,0.2
		c4.5,5.4,5.6,5.6,9.1,7.6c0.1,0.1,0.2,0.2,0.3,0.3c0.1,0.1,0.1,0.2,0.2,0.3c0.1,0.2,0.1,0.4,0.2,0.6c0.8,3,0.7,9.6,1,11.3
		c0.2,1.1,1.1,2.4,2,1.9c-0.6,0-1.1-0.7-1.1-1.6c0.1-1.7-0.2-10.3-1.2-13.2c-0.1-0.2-0.3-0.4-0.5-0.6c-3.7-2.2-4.8-2.6-9.6-8.5
		c-0.3-0.3-0.7-0.4-1.1-0.3c-20.8,6.7-34.7-0.1-39.8-3.6C14.6,21.4,13.7,21.8,13.7,22.6z"/>
	<path class="st36" d="M13.6,22.5c-0.3,6-5.3,10.1-7.8,11.9c-0.1,0.1-0.1,0.1-0.2,0.2c-0.3,0.2-0.4,0.6-0.4,0.9
		C5.5,38.6,4.8,47.8,4.8,48c-0.1,0.6-0.5,0.8-0.8,1c0.5-0.1,1.2-0.6,1.5-1.4c0.4-1.8,0.6-9.1,0.8-11.8c0-0.3,0.2-0.6,0.4-0.7
		c2.1-1.5,6-4.5,7.5-9.4c0.2-0.6,0.4-1.3,0.5-1.9c0.1-0.3,0.4-0.5,0.7-0.3c4.1,3,19.8,9.8,39.1,3.2c0.4-0.1,0.8,0,1.1,0.3
		c0.1,0.1,0.1,0.1,0.2,0.2c4.6,5.5,5.5,5.6,9.1,7.7c0.1,0.1,0.2,0.2,0.3,0.3c0.1,0.1,0.1,0.2,0.2,0.3c0.1,0.2,0.1,0.4,0.2,0.6
		c0.8,3.1,0.7,9.8,0.9,11.4c0.2,1.1,1.1,2.5,2,1.9c-0.6,0.1-1.2-0.7-1.1-1.5c0.1-1.6-0.2-10.4-1.2-13.2c-0.1-0.2-0.3-0.4-0.5-0.6
		c-3.7-2.2-4.8-2.6-9.7-8.5c-0.3-0.3-0.7-0.4-1.1-0.3C34.1,32,20.1,25.1,15,21.7C14.5,21.3,13.7,21.7,13.6,22.5z"/>
	<path class="st37" d="M67.5,48c0.1-1.5-0.2-10.4-1.2-13.3c-0.1-0.2-0.3-0.4-0.5-0.6c-3.7-2.2-4.9-2.7-9.7-8.5
		c-0.3-0.3-0.7-0.4-1.1-0.3c-20.9,6.7-34.9-0.2-40-3.6c-0.7-0.4-1.5,0-1.5,0.8c-0.3,6.2-5.6,10.4-8.1,12.2C5.1,34.9,5,35.3,5,35.6
		c0.3,3.1-0.4,12.5-0.4,12.5c-0.1,0.5-0.5,0.8-0.9,1C4.3,49,5,48.5,5.3,47.8c0.6-1.8,0.7-9.2,0.9-12c0-0.3,0.1-0.5,0.4-0.7
		c2.4-1.7,7-5.4,8-11.5c0-0.3,0.4-0.5,0.7-0.3c4,3,19.9,9.9,39.4,3.3c0.4-0.1,0.8,0,1.1,0.3c4.8,5.8,5.7,5.9,9.3,8
		c0.2,0.1,0.4,0.3,0.5,0.6c0.9,2.7,0.8,10.5,1.1,12.1c0.1,1.1,1.1,2.5,2.1,1.9C68,49.6,67.4,48.9,67.5,48z"/>
</g>
<radialGradient id="SVGID_00000080184301374226240000000001713199354010484877_" cx="-315.7411" cy="-309.0638" r="3.799" gradientTransform="matrix(2.1854 0 0 -2.6188 725.9972 -737.5416)" gradientUnits="userSpaceOnUse">
	<stop  offset="0.696" style="stop-color:#CC9000"/>
	<stop  offset="1" style="stop-color:#CC9000;stop-opacity:0"/>
</radialGradient>
<path style="fill:url(#SVGID_00000080184301374226240000000001713199354010484877_);" d="M35.9,77.6c-8.3,0-8.6-4.9-8.6-4.9
	s0.2,9.7,8.6,9.7s8.6-9.7,8.6-9.7S44.2,77.6,35.9,77.6z"/>
<radialGradient id="SVGID_00000178927865445649273900000014827865469370606978_" cx="-220.3672" cy="-851.8663" r="5.8574" fx="-220.3722" fy="-851.6475" gradientTransform="matrix(1.5818 0 0 -0.9532 384.5768 -739.6081)" gradientUnits="userSpaceOnUse">
	<stop  offset="0.371" style="stop-color:#FFD226"/>
	<stop  offset="0.948" style="stop-color:#FFE16E"/>
	<stop  offset="1" style="stop-color:#FFE16E;stop-opacity:0"/>
</radialGradient>
<path style="fill:url(#SVGID_00000178927865445649273900000014827865469370606978_);" d="M45.1,72c0,0,0.1,6-9.1,6s-9.1-6-9.1-6
	s2,1.8,9.1,1.8S45.1,72,45.1,72z"/>
<radialGradient id="SVGID_00000013156242445499110500000008616021878944919429_" cx="-247.1237" cy="-360.5218" r="4.691" gradientTransform="matrix(1.6666 0 0 -2.011 447.9725 -655.2379)" gradientUnits="userSpaceOnUse">
	<stop  offset="0" style="stop-color:#1C1911"/>
	<stop  offset="0.999" style="stop-color:#171714"/>
</radialGradient>
<path style="fill:url(#SVGID_00000013156242445499110500000008616021878944919429_);" d="M27.5,70c-0.5,0-0.8,0.6-0.5,1.1
	c1.8,3.7,6,4.9,9,4.9c3.3,0,7.2-1.1,9-4.9c0.2-0.5,0-1.1-0.5-1.1C38.1,70,34.1,70,27.5,70z"/>
<path class="st41" d="M12,51.1c-0.1,0.9,0.1,0.8,0.5,1.2c0,0,4,5.3,16.1,1.7c0.9-0.3,1.5-0.9,1.4-1.5C28.4,40.8,14,42.2,12,51.1z"/>
<path class="st42" d="M12.2,51c-0.3,0.6-0.2,1.1,0,1.6c0.9,2.2,7.8,9.9,17.1,1.8c0.7-0.6,0.8-1.1,0.6-1.8C29.8,51.9,27.3,46,21,46
	S12.7,50.1,12.2,51z"/>
<linearGradient id="SVGID_00000066490080103479530320000014766522814425505422_" gradientUnits="userSpaceOnUse" x1="-253.001" y1="-354.498" x2="-248.001" y2="-354.498" gradientTransform="matrix(2 0 0 -2 522.002 -657.996)">
	<stop  offset="0" style="stop-color:#C69C6D"/>
	<stop  offset="1" style="stop-color:#754C24"/>
</linearGradient>
<circle style="fill:url(#SVGID_00000066490080103479530320000014766522814425505422_);" cx="21" cy="51" r="5"/>
<radialGradient id="SVGID_00000121269836185069294860000010229014365364598916_" cx="-250.501" cy="-354.498" r="1.2665" gradientTransform="matrix(2 0 0 -2 522.002 -657.996)" gradientUnits="userSpaceOnUse">
	<stop  offset="0" style="stop-color:#1C1911"/>
	<stop  offset="0.999" style="stop-color:#171714"/>
</radialGradient>
<circle style="fill:url(#SVGID_00000121269836185069294860000010229014365364598916_);" cx="21" cy="51" r="2.5"/>
<path class="st41" d="M60,51.1c0.1,0.9-0.1,0.8-0.5,1.2c0,0-4,5.3-16.1,1.7c-0.9-0.3-1.5-0.9-1.4-1.5C43.6,40.7,58,42.1,60,51.1z"/>
<path class="st42" d="M59.8,51c0.3,0.6,0.2,1.1,0,1.6c-0.9,2.2-7.8,9.9-17.1,1.8c-0.7-0.6-0.8-1.1-0.6-1.8S44.7,46,51,46
	S59.3,50.1,59.8,51z"/>
<linearGradient id="SVGID_00000091000452315777208380000018110401123734294670_" gradientUnits="userSpaceOnUse" x1="-252.001" y1="-354.498" x2="-247.001" y2="-354.498" gradientTransform="matrix(2 0 0 -2 550.002 -657.996)">
	<stop  offset="0" style="stop-color:#C69C6D"/>
	<stop  offset="1" style="stop-color:#754C24"/>
</linearGradient>
<circle style="fill:url(#SVGID_00000091000452315777208380000018110401123734294670_);" cx="51" cy="51" r="5"/>
<radialGradient id="SVGID_00000116205385152850367010000013186240403329435533_" cx="-1033.5029" cy="-354.498" r="1.2675" gradientTransform="matrix(-2 0 0 -2 -2016.006 -657.996)" gradientUnits="userSpaceOnUse">
	<stop  offset="0" style="stop-color:#1C1911"/>
	<stop  offset="0.999" style="stop-color:#171714"/>
</radialGradient>
<circle style="fill:url(#SVGID_00000116205385152850367010000013186240403329435533_);" cx="51" cy="51" r="2.5"/>
<circle class="st42" cx="19" cy="49" r="1"/>
<circle class="st42" cx="49" cy="49" r="1"/>
<g>
	<path class="st47" d="M15.2,40.2c0.9-0.4,1.8-0.6,2.7-0.9c0.9-0.2,1.8-0.5,2.7-0.6c1.8-0.4,3.7-0.6,5.5-0.8l0,0
		c1.1-0.1,2.1,0.7,2.2,1.8s-0.7,2.1-1.8,2.2c-0.1,0-0.3,0-0.4,0c-1.7-0.2-3.5-0.3-5.2-0.2c-0.9,0-1.7,0-2.6,0.1
		c-0.8,0.1-1.8,0.2-2.5,0.3h-0.1c-0.5,0.1-1.1-0.3-1.2-0.8C14.5,40.8,14.7,40.3,15.2,40.2z"/>
</g>
<g>
	<path class="st47" d="M55.9,41.8c-0.8-0.1-1.7-0.2-2.6-0.2c-0.9,0-1.8,0-2.6,0c-1.8,0-3.5,0.1-5.2,0.3c-1.1,0.1-2.1-0.7-2.2-1.8
		C43.2,39,44,38,45.1,37.9c0.1,0,0.3,0,0.4,0c1.8,0.2,3.7,0.4,5.5,0.7c0.9,0.2,1.8,0.3,2.7,0.6c0.9,0.2,1.8,0.4,2.7,0.8
		c0.5,0.2,0.8,0.7,0.6,1.3C56.9,41.6,56.5,41.9,55.9,41.8L55.9,41.8z"/>
</g>
<g>
	
		<radialGradient id="SVGID_00000110456782559896030610000016288118066220449417_" cx="-351.9126" cy="-270.0955" r="2.511" gradientTransform="matrix(2.74 0 0 -2.639 1000.0495 -651.7534)" gradientUnits="userSpaceOnUse">
		<stop  offset="0.62" style="stop-color:#CC9000"/>
		<stop  offset="0.862" style="stop-color:#EEBD20;stop-opacity:0.363"/>
		<stop  offset="1" style="stop-color:#FED12E;stop-opacity:0"/>
	</radialGradient>
	<path style="fill:url(#SVGID_00000110456782559896030610000016288118066220449417_);" d="M35.8,63c-2.3,0-4.2-0.6-5.4-1.2
		c-0.9-0.5-1.7-0.3-1.2,1.2c0.8,2,2.5,4.3,6.5,4.3c3.9,0,5.7-2.3,6.5-4.2c0.6-1.5-0.3-1.7-1-1.3C39.8,62.5,38,63,35.8,63z"/>
	
		<radialGradient id="SVGID_00000109007795631759135640000001201480553002035382_" cx="-415.4101" cy="482.9138" r="2.236" gradientTransform="matrix(2.9098 0 8.200000e-03 1.6424 1240.6454 -734.1026)" gradientUnits="userSpaceOnUse">
		<stop  offset="0.479" style="stop-color:#FED53F"/>
		<stop  offset="0.926" style="stop-color:#FED53F;stop-opacity:0.141"/>
		<stop  offset="1" style="stop-color:#FED53F;stop-opacity:0"/>
	</radialGradient>
	<path style="fill:url(#SVGID_00000109007795631759135640000001201480553002035382_);" d="M42.8,59.2c-0.1,2.2-3.2,3.9-7.1,3.9
		s-6.9-2-6.9-4.2S32,55,35.9,55S42.8,57,42.8,59.2z"/>
	
		<radialGradient id="SVGID_00000061466539161025258030000018183094938045118101_" cx="-243.112" cy="704.8965" r="1.7929" gradientTransform="matrix(2 0 0 1.1156 522.002 -727.3245)" gradientUnits="userSpaceOnUse">
		<stop  offset="4.000000e-03" style="stop-color:#FFF4C9"/>
		<stop  offset="1" style="stop-color:#FFF4C9;stop-opacity:0"/>
	</radialGradient>
	<ellipse style="fill:url(#SVGID_00000061466539161025258030000018183094938045118101_);" cx="35.8" cy="59.1" rx="3.6" ry="2"/>
</g>
</svg>
