<?xml version="1.0" encoding="utf-8"?>
<!-- Generator: Adobe Illustrator 25.2.1, SVG Export Plug-In . SVG Version: 6.00 Build 0)  -->
<svg version="1.1" id="Layer_1" xmlns="http://www.w3.org/2000/svg" xmlns:xlink="http://www.w3.org/1999/xlink" x="0px" y="0px"
	 viewBox="0 0 215.6 94.3" style="enable-background:new 0 0 215.6 94.3;" xml:space="preserve">
<style type="text/css">
	.st0{display:none;}
	.st1{display:inline;}
	.st2{fill:#010101;}
	.st3{fill:none;stroke:#FFFFFF;stroke-miterlimit:10;}
	.st4{fill:none;stroke:#FFFFFF;stroke-width:0.5;stroke-miterlimit:10;}
</style>
<g id="Logo_1_" class="st0">
	<g class="st1">
		<g id="XMLID_3_">
			<g>
				<path class="st2" d="M687.4,190.4v26.9c0,3.1-2.5,5.7-5.7,5.7H523c-3.1,0-5.7-2.5-5.7-5.7v-26.9c0-0.8,0.6-1.4,1.4-1.4h8.5
					c0.8,0,1.4,0.6,1.4,1.4v19.8c0,0.8,0.6,1.4,1.4,1.4h1.4h2.8h2.8h2.8h2.8h2.8h2.8h2.8h2.8h2.8h2.8h2.8h2.8h2.8h2.8h2.8h2.8h2.8
					h2.8h2.8h2.8h2.8h2.8h2.8h2.8h2.8h2.8h2.8h2.8h2.8h2.8h2.8h2.8h2.8h2.8h2.8h2.8h2.8h2.8h2.8h2.8h2.8h2.8h2.8h2.8h2.8h2.8h2.8
					h2.8h2.8h2.8h2.8h1.4c0.8,0,1.4-0.6,1.4-1.4v-19.8c0-0.8,0.6-1.4,1.4-1.4h5.7C686.7,189,687.4,189.7,687.4,190.4z"/>
				<path class="st2" d="M676,211.7L676,211.7h-2.8l0,0v-21.3c0-0.8,0.6-1.4,1.4-1.4c0.8,0,1.4,0.6,1.4,1.4L676,211.7L676,211.7z"/>
				<path class="st2" d="M670.4,211.7L670.4,211.7h-2.8l0,0v-21.3c0-0.8,0.6-1.4,1.4-1.4c0.8,0,1.4,0.6,1.4,1.4L670.4,211.7
					L670.4,211.7z"/>
				<path class="st2" d="M664.7,211.7L664.7,211.7h-2.8l0,0v-21.3c0-0.8,0.6-1.4,1.4-1.4c0.8,0,1.4,0.6,1.4,1.4L664.7,211.7
					L664.7,211.7z"/>
				<path class="st2" d="M659,211.7L659,211.7h-2.8l0,0v-21.3c0-0.8,0.6-1.4,1.4-1.4c0.8,0,1.4,0.6,1.4,1.4L659,211.7L659,211.7z"/>
				<path class="st2" d="M653.3,211.7L653.3,211.7h-2.8l0,0v-21.3c0-0.8,0.6-1.4,1.4-1.4c0.8,0,1.4,0.6,1.4,1.4L653.3,211.7
					L653.3,211.7z"/>
				<path class="st2" d="M647.7,211.7L647.7,211.7h-2.8l0,0v-21.3c0-0.8,0.6-1.4,1.4-1.4c0.8,0,1.4,0.6,1.4,1.4L647.7,211.7
					L647.7,211.7z"/>
				<path class="st2" d="M642,211.7L642,211.7h-2.8l0,0v-21.3c0-0.8,0.6-1.4,1.4-1.4c0.8,0,1.4,0.6,1.4,1.4L642,211.7L642,211.7z"/>
				<path class="st2" d="M636.3,211.7L636.3,211.7h-2.8l0,0v-21.3c0-0.8,0.6-1.4,1.4-1.4c0.8,0,1.4,0.6,1.4,1.4L636.3,211.7
					L636.3,211.7z"/>
				<path class="st2" d="M630.7,211.7L630.7,211.7h-2.8l0,0v-21.3c0-0.8,0.6-1.4,1.4-1.4c0.8,0,1.4,0.6,1.4,1.4L630.7,211.7
					L630.7,211.7z"/>
				<path class="st2" d="M625,211.7L625,211.7h-2.8l0,0v-21.3c0-0.8,0.6-1.4,1.4-1.4c0.8,0,1.4,0.6,1.4,1.4L625,211.7L625,211.7z"/>
				<path class="st2" d="M619.3,211.7L619.3,211.7h-2.8l0,0v-21.3c0-0.8,0.6-1.4,1.4-1.4c0.8,0,1.4,0.6,1.4,1.4L619.3,211.7
					L619.3,211.7z"/>
				<path class="st2" d="M613.7,211.7L613.7,211.7h-2.8l0,0v-21.3c0-0.8,0.6-1.4,1.4-1.4c0.8,0,1.4,0.6,1.4,1.4L613.7,211.7
					L613.7,211.7z"/>
				<path class="st2" d="M608,211.7L608,211.7h-2.8l0,0v-21.3c0-0.8,0.6-1.4,1.4-1.4c0.8,0,1.4,0.6,1.4,1.4L608,211.7L608,211.7z"/>
				<path class="st2" d="M602.3,190.4v21.3h-2.8v-21.3c0-0.8,0.6-1.4,1.4-1.4C601.7,189,602.3,189.7,602.3,190.4z"/>
				<path class="st2" d="M596.7,190.4v21.3h-2.8v-21.3c0-0.8,0.6-1.4,1.4-1.4C596,189,596.7,189.7,596.7,190.4z"/>
				<path class="st2" d="M591,190.4v21.3h-2.8v-21.3c0-0.8,0.6-1.4,1.4-1.4C590.4,189,591,189.7,591,190.4z"/>
				<path class="st2" d="M585.3,190.4v21.3h-2.8v-21.3c0-0.8,0.6-1.4,1.4-1.4C584.7,189,585.3,189.7,585.3,190.4z"/>
				<path class="st2" d="M579.6,190.4v21.3h-2.8v-21.3c0-0.8,0.6-1.4,1.4-1.4C579,189,579.6,189.7,579.6,190.4z"/>
				<path class="st2" d="M574,190.4v21.3h-2.8v-21.3c0-0.8,0.6-1.4,1.4-1.4C573.3,189,574,189.7,574,190.4z"/>
				<path class="st2" d="M568.3,190.4v21.3h-2.8v-21.3c0-0.8,0.6-1.4,1.4-1.4C567.7,189,568.3,189.7,568.3,190.4z"/>
				<path class="st2" d="M562.6,190.4v21.3h-2.8v-21.3c0-0.8,0.6-1.4,1.4-1.4C562,189,562.6,189.7,562.6,190.4z"/>
				<path class="st2" d="M557,190.4v21.3h-2.8v-21.3c0-0.8,0.6-1.4,1.4-1.4S557,189.7,557,190.4z"/>
				<path class="st2" d="M551.3,190.4v21.3h-2.8v-21.3c0-0.8,0.6-1.4,1.4-1.4C550.7,189,551.3,189.7,551.3,190.4z"/>
				<path class="st2" d="M545.6,190.4v21.3h-2.8v-21.3c0-0.8,0.6-1.4,1.4-1.4C545,189,545.6,189.7,545.6,190.4z"/>
				<path class="st2" d="M540,190.4v21.3h-2.8v-21.3c0-0.8,0.6-1.4,1.4-1.4S540,189.7,540,190.4z"/>
				<path class="st2" d="M534.3,190.4v21.3h-2.8v-21.3c0-0.8,0.6-1.4,1.4-1.4C533.7,189,534.3,189.7,534.3,190.4z"/>
			</g>
		</g>
	</g>
	<text transform="matrix(1 0 0 1 488.9388 269.5198)" class="st1" style="font-family:'BookAntiqua'; font-size:41.345px;">R E F O R M</text>
	<text transform="matrix(1 0 0 1 559.8041 296.9241)" class="st1" style="font-family:'BookAntiqua-Bold'; font-size:12.0543px;">BARBERSHOP</text>
	<rect x="659" y="293.2" class="st1" width="28.3" height="1.4"/>
	<rect x="517.3" y="293.2" class="st1" width="28.3" height="1.4"/>
	<g class="st1">
		<g id="XMLID_1_">
			<g>
				<path class="st2" d="M625.9,16.6L625.9,16.6h-2.4l0,0V-1.1c0-0.7,0.5-1.2,1.2-1.2s1.2,0.5,1.2,1.2V16.6z"/>
				<path class="st2" d="M621.2,16.6L621.2,16.6h-2.4l0,0V-1.1c0-0.7,0.5-1.2,1.2-1.2s1.2,0.5,1.2,1.2V16.6z"/>
				<path class="st2" d="M616.5,16.6L616.5,16.6h-2.4l0,0V-1.1c0-0.7,0.5-1.2,1.2-1.2s1.2,0.5,1.2,1.2V16.6z"/>
				<path class="st2" d="M611.8,16.6L611.8,16.6h-2.4l0,0V-1.1c0-0.7,0.5-1.2,1.2-1.2s1.2,0.5,1.2,1.2V16.6z"/>
				<path class="st2" d="M607,16.6L607,16.6h-2.4l0,0V-1.1c0-0.7,0.5-1.2,1.2-1.2s1.2,0.5,1.2,1.2V16.6z"/>
				<path class="st2" d="M602.3,16.6L602.3,16.6h-2.4l0,0V-1.1c0-0.7,0.5-1.2,1.2-1.2s1.2,0.5,1.2,1.2V16.6z"/>
				<path class="st2" d="M597.6,16.6L597.6,16.6h-2.4l0,0V-1.1c0-0.7,0.5-1.2,1.2-1.2s1.2,0.5,1.2,1.2V16.6z"/>
				<path class="st2" d="M592.9,16.6L592.9,16.6h-2.4l0,0V-1.1c0-0.7,0.5-1.2,1.2-1.2s1.2,0.5,1.2,1.2V16.6z"/>
				<path class="st2" d="M588.2,16.6L588.2,16.6h-2.4l0,0V-1.1c0-0.7,0.5-1.2,1.2-1.2s1.2,0.5,1.2,1.2V16.6z"/>
				<path class="st2" d="M581.1-1.1c0-0.7,0.5-1.2,1.2-1.2s1.2,0.5,1.2,1.2v17.7l0,0h-2.4l0,0V-1.1z"/>
				<path class="st2" d="M576.3,16.6L576.3,16.6V-1.1c0-0.7,0.5-1.2,1.2-1.2s1.2,0.5,1.2,1.2v17.7l0,0H576.3z"/>
				<path class="st2" d="M571.6-1.1c0-0.7,0.5-1.2,1.2-1.2s1.2,0.5,1.2,1.2v17.7l0,0h-2.4l0,0V-1.1z"/>
				<path class="st2" d="M566.9,16.6L566.9,16.6V-1.1c0-0.7,0.5-1.2,1.2-1.2s1.2,0.5,1.2,1.2v17.7l0,0
					C569.3,16.6,566.9,16.6,566.9,16.6z"/>
				<path class="st2" d="M562.2,16.6V-1.1c0-0.7,0.5-1.2,1.2-1.2s1.2,0.5,1.2,1.2v17.7C564.6,16.6,562.2,16.6,562.2,16.6z"/>
				<path class="st2" d="M557.4,16.6V-1.1c0-0.7,0.5-1.2,1.2-1.2s1.2,0.5,1.2,1.2v17.7C559.8,16.6,557.4,16.6,557.4,16.6z"/>
				<path class="st2" d="M552.7,16.6V-1.1c0-0.7,0.5-1.2,1.2-1.2s1.2,0.5,1.2,1.2v17.7C555.1,16.6,552.7,16.6,552.7,16.6z"/>
				<path class="st2" d="M548,16.6V-1.1c0-0.7,0.5-1.2,1.2-1.2s1.2,0.5,1.2,1.2v17.7H548z"/>
				<path class="st2" d="M543.3,16.6V-1.1c0-0.7,0.5-1.2,1.2-1.2s1.2,0.5,1.2,1.2v17.7H543.3z"/>
				<path class="st2" d="M538.5,16.6V-1.1c0-0.7,0.5-1.2,1.2-1.2s1.2,0.5,1.2,1.2v17.7H538.5z"/>
				<path class="st2" d="M533.8,16.6V-1.1c0-0.7,0.5-1.2,1.2-1.2s1.2,0.5,1.2,1.2v17.7H533.8z"/>
				<path class="st2" d="M529.1,16.6V-1.1c0-0.7,0.5-1.2,1.2-1.2s1.2,0.5,1.2,1.2v17.7H529.1z"/>
				<path class="st2" d="M524.4,16.6V-1.1c0-0.7,0.5-1.2,1.2-1.2s1.2,0.5,1.2,1.2v17.7C526.8,16.6,524.4,16.6,524.4,16.6z"/>
				<path class="st2" d="M519.6,16.6V-1.1c0-0.7,0.5-1.2,1.2-1.2s1.2,0.5,1.2,1.2v17.7H519.6z"/>
				<path class="st2" d="M514.9,16.6V-1.1c0-0.7,0.5-1.2,1.2-1.2s1.2,0.5,1.2,1.2v17.7C517.3,16.6,514.9,16.6,514.9,16.6z"/>
				<path class="st2" d="M510.2,16.6V-1.1c0-0.7,0.5-1.2,1.2-1.2s1.2,0.5,1.2,1.2v17.7C512.6,16.6,510.2,16.6,510.2,16.6z"/>
				<path class="st2" d="M507.8,16.6h-2.4V-1.1c0-0.7,0.5-1.2,1.2-1.2s1.2,0.5,1.2,1.2L507.8,16.6L507.8,16.6z"/>
				<path class="st2" d="M493.7-1.1c0-0.7,0.5-1.2,1.2-1.2h7.1c0.7,0,1.2,0.5,1.2,1.2v16.5c0,0.7,0.5,1.2,1.2,1.2h1.2h2.4h2.4h2.4
					h2.4h2.4h2.4h2.4h2.4h2.4h2.4h2.4h2.4h2.4h2.4h2.4h2.4h2.4h2.4h2.4h2.4h2.4h2.4h2.4h2.4h2.4h2.4h2.4h2.4h2.4h2.4h2.4h2.4h2.4
					h2.4h2.4h2.4h2.4h2.4h2.4h2.4h2.4h2.4h2.4h2.4h2.4h2.4h2.4h2.4h2.4h2.4h2.4h1.2c0.7,0,1.2-0.5,1.2-1.2V-1.1
					c0-0.7,0.5-1.2,1.2-1.2h4.7c0.7,0,1.2,0.5,1.2,1.2v22.4c0,2.6-2.1,4.7-4.7,4.7H498.4c-2.6,0-4.7-2.1-4.7-4.7L493.7-1.1
					L493.7-1.1z"/>
			</g>
		</g>
	</g>
	<text transform="matrix(1 0 0 1 463.7035 64.2176)" class="st1" style="font-family:'BookAntiqua'; font-size:36.7651px;">R E F O R M</text>
	<text transform="matrix(1 0 0 1 522.1047 92.854)" class="st1" style="font-family:'BookAntiqua-Bold'; font-size:12.0273px;">BARBERSHOP</text>
	<rect x="621.2" y="88.4" class="st1" width="28.3" height="1.4"/>
	<rect x="479.5" y="88.4" class="st1" width="28.3" height="1.4"/>
</g>
<g id="Layer_2_1_">
	<g>
		<g id="XMLID_5_">
			<g>
				<path class="st3" d="M178.6,1.7v22.4c0,2.6-2.1,4.7-4.7,4.7H41.6c-2.6,0-4.7-2.1-4.7-4.7V1.7c0-0.7,0.5-1.2,1.2-1.2h7.1
					c0.7,0,1.2,0.5,1.2,1.2v16.5c0,0.7,0.5,1.2,1.2,1.2h1.2h2.4h2.4H56h2.4h2.4h2.4h2.4h2H70h2.4h2.4h2.4h2.4H82h2.4h2.4h2.4h2.4h2
					H96h2.4h2.4h2.4h2.4h2.4h2.4h2.4h2.4h2.4h2.4h2.4h2.4h2.4h2.4h2.4h2.4h2.4h2.4h2.4h2.4h2.4h2.4h2.4h2.4h2.4h2.4h2.4h2.4h2.4h2.4
					h2.4h1.2c0.7,0,1.2-0.5,1.2-1.2V1.7c0-0.7,0.5-1.2,1.2-1.2h4.7C178.1,0.5,178.6,1.1,178.6,1.7z"/>
				<path class="st3" d="M169.2,19.4L169.2,19.4h-2.4l0,0V1.7c0-0.7,0.5-1.2,1.2-1.2s1.2,0.5,1.2,1.2V19.4z"/>
				<path class="st3" d="M164.5,19.4L164.5,19.4h-2.4l0,0V1.7c0-0.7,0.5-1.2,1.2-1.2s1.2,0.5,1.2,1.2V19.4z"/>
				<path class="st3" d="M159.7,19.4L159.7,19.4h-2.4l0,0V1.7c0-0.7,0.5-1.2,1.2-1.2s1.2,0.5,1.2,1.2V19.4z"/>
				<path class="st3" d="M155,19.4L155,19.4h-2.4l0,0V1.7c0-0.7,0.5-1.2,1.2-1.2S155,1,155,1.7V19.4z"/>
				<path class="st3" d="M150.3,19.4L150.3,19.4h-2.4l0,0V1.7c0-0.7,0.5-1.2,1.2-1.2s1.2,0.5,1.2,1.2V19.4z"/>
				<path class="st3" d="M145.6,19.4L145.6,19.4h-2.4l0,0V1.7c0-0.7,0.5-1.2,1.2-1.2s1.2,0.5,1.2,1.2V19.4z"/>
				<path class="st3" d="M140.8,19.4L140.8,19.4h-2.4l0,0V1.7c0-0.7,0.5-1.2,1.2-1.2s1.2,0.5,1.2,1.2V19.4z"/>
				<path class="st3" d="M136.1,19.4L136.1,19.4h-2.4l0,0V1.7c0-0.7,0.5-1.2,1.2-1.2s1.2,0.5,1.2,1.2V19.4z"/>
				<path class="st3" d="M131.4,19.4L131.4,19.4H129l0,0V1.7c0-0.7,0.5-1.2,1.2-1.2s1.2,0.5,1.2,1.2V19.4z"/>
				<path class="st3" d="M126.7,19.4L126.7,19.4h-2.4l0,0V1.7c0-0.7,0.5-1.2,1.2-1.2s1.2,0.5,1.2,1.2
					C126.7,1.7,126.7,19.4,126.7,19.4z"/>
				<path class="st3" d="M121.9,19.4L121.9,19.4h-2.4l0,0V1.7c0-0.7,0.5-1.2,1.2-1.2s1.2,0.5,1.2,1.2
					C121.9,1.7,121.9,19.4,121.9,19.4z"/>
				<path class="st3" d="M117.2,19.4L117.2,19.4h-2.4l0,0V1.7c0-0.7,0.5-1.2,1.2-1.2s1.2,0.5,1.2,1.2
					C117.2,1.7,117.2,19.4,117.2,19.4z"/>
				<path class="st3" d="M112.5,19.4L112.5,19.4h-2.4l0,0V1.7c0-0.7,0.5-1.2,1.2-1.2s1.2,0.5,1.2,1.2
					C112.5,1.7,112.5,19.4,112.5,19.4z"/>
				<path class="st3" d="M107.8,1.7v17.7h-2.4V1.7c0-0.7,0.5-1.2,1.2-1.2C107.2,0.5,107.8,1.1,107.8,1.7z"/>
				<path class="st3" d="M103,1.7v17.7h-2.4V1.7c0-0.7,0.5-1.2,1.2-1.2C102.5,0.5,103,1.1,103,1.7z"/>
				<path class="st3" d="M98.3,1.7v17.7h-2.4V1.7c0-0.7,0.5-1.2,1.2-1.2C97.8,0.5,98.3,1.1,98.3,1.7z"/>
				<path class="st3" d="M93.6,1.7v17.7h-2.4V1.7c0-0.7,0.5-1.2,1.2-1.2C93.1,0.5,93.6,1.1,93.6,1.7z"/>
				<path class="st3" d="M88.9,1.7v17.7h-2.4V1.7c0-0.7,0.5-1.2,1.2-1.2C88.3,0.5,88.9,1.1,88.9,1.7z"/>
				<path class="st3" d="M84.1,1.7v17.7h-2.4V1.7c0-0.7,0.5-1.2,1.2-1.2C83.6,0.5,84.1,1.1,84.1,1.7z"/>
				<path class="st3" d="M79.4,1.7v17.7H77V1.7c0-0.7,0.5-1.2,1.2-1.2C78.9,0.5,79.4,1.1,79.4,1.7z"/>
				<path class="st3" d="M74.7,1.7v17.7h-2.4V1.7c0-0.7,0.5-1.2,1.2-1.2C74.2,0.5,74.7,1.1,74.7,1.7z"/>
				<path class="st3" d="M70,1.7v17.7h-2.4V1.7c0-0.7,0.5-1.2,1.2-1.2C69.4,0.5,70,1.1,70,1.7z"/>
				<path class="st3" d="M65.2,1.7v17.7h-2.4V1.7c0-0.7,0.5-1.2,1.2-1.2S65.2,1.1,65.2,1.7z"/>
				<path class="st3" d="M60.5,1.7v17.7h-2.4V1.7c0-0.7,0.5-1.2,1.2-1.2S60.5,1.1,60.5,1.7z"/>
				<path class="st3" d="M55.8,1.7v17.7h-2.4V1.7c0-0.7,0.5-1.2,1.2-1.2S55.8,1.1,55.8,1.7z"/>
				<path class="st3" d="M51.1,1.7v17.7h-2.4V1.7c0-0.7,0.5-1.2,1.2-1.2C50.5,0.5,51.1,1.1,51.1,1.7z"/>
			</g>
		</g>
	</g>
	<g>
		<path class="st3" d="M197.2,65.1c0.3-0.2,0.4-0.6,0.5-0.9c3.3-6.6,6.4-13.3,9.4-20c0.3-0.6,0.5-0.7,1.2-0.7c2,0.1,4,0.1,6-0.1
			c0.5,0,0.8,0.1,0.8,0.7c0,0.4-0.2,0.6-0.6,0.6c-0.6,0-1.2,0-1.8,0.1c-0.7,0.1-1,0.4-1.2,1.2c-0.2,1.1-0.1,2.3-0.1,3.4
			c0,5.5,0,11,0,16.4c0,0.8,0.1,1.6,0.2,2.4c0.1,0.9,0.4,1.1,1.2,1.3c0.5,0.1,1.1,0.1,1.6,0.1s0.6,0.2,0.6,0.6s-0.1,0.7-0.6,0.6
			c-3.2-0.2-6.4-0.2-9.7,0c-0.5,0-0.6-0.2-0.6-0.6c0-0.5,0.1-0.7,0.6-0.7c0.4,0,0.9,0,1.3,0c1-0.1,1.3-0.5,1.4-1.4
			c0.1-1,0.1-2,0.1-3c0-5.5,0-10.9,0-16.4c0-0.2,0-0.4,0-0.6c-0.3,0-0.3,0.3-0.4,0.5c-3.5,7.3-7.1,14.5-10.2,21.9
			c-0.1,0.3-0.2,0.7-0.7,0.7s-0.6-0.4-0.8-0.7c-3.2-7-6.6-14-9.9-20.9c-0.1-0.3-0.2-0.6-0.5-0.8c-0.2,0.2-0.1,0.4-0.1,0.7
			c0,5.6,0,11.2,0,16.8c0,0.6,0.1,1.2,0.2,1.9c0.1,0.7,0.5,1.1,1.2,1.2c0.6,0.1,1.1,0.2,1.7,0.1c0.5,0,0.6,0.2,0.6,0.7
			s-0.1,0.7-0.6,0.6c-2.7-0.3-5.3-0.1-8,0c-0.5,0-0.7-0.1-0.7-0.7c0-0.5,0.2-0.7,0.7-0.7c0.4,0,0.7,0,1.1,0c1.2-0.1,1.6-0.5,1.7-1.7
			c0.2-1.8,0.3-3.6,0.2-5.5c0-5.2,0.1-10.3-0.1-15.5c-0.1-1.6-0.4-2-2-2.2c-0.3,0-0.6,0-0.9,0c-0.5,0-0.8-0.1-0.8-0.7
			c0-0.7,0.4-0.6,0.8-0.6c2.1,0.1,4.1,0.2,6.2,0c0.5,0,0.6,0.3,0.7,0.6c1.6,3.3,3.1,6.7,4.7,10c1.7,3.5,3.4,7,5.1,10.4
			C196.9,64.7,197,64.9,197.2,65.1z"/>
		<path class="st3" d="M7.9,57.3c0,3.4-0.1,6.9,0.1,10.3c0.1,1.6,0.5,2,2.1,2.1c0.4,0,0.7,0,1.1,0c0.6-0.1,0.7,0.2,0.7,0.7
			c0,0.6-0.3,0.6-0.7,0.6c-3.3-0.3-6.6-0.1-9.9,0c-0.6,0-0.8-0.1-0.8-0.8c0-0.4,0.1-0.5,0.5-0.5c0.6,0,1.2,0,1.9-0.1s1-0.5,1.1-1.2
			c0.2-2,0.1-4,0.2-6c0-4.5,0-8.9,0-13.4c0-0.9,0-1.9-0.1-2.8C4,45.4,3.7,45,2.9,44.9c-0.4-0.1-0.9-0.1-1.4-0.1s-1,0.1-1-0.7
			s0.6-0.6,1-0.6c1.3,0,2.5,0.1,3.8,0.1c2.7,0,5.5-0.1,8.2-0.1c1.3,0,2.5,0,3.8,0.3c5.2,1,5.9,5.8,4.1,9c-1.3,2.3-3.3,3.5-5.7,4.1
			c-1,0.3-1,0.3-0.4,1.1c2.6,3.7,5.5,7.3,8.3,10.8c0.4,0.5,0.9,0.9,1.5,0.9s0.3,0.5,0.4,0.8c0,0.3-0.1,0.5-0.5,0.4
			c-1.4-0.1-2.9-0.2-4.3,0c-0.4,0.1-0.6-0.3-0.8-0.5c-2.5-3.4-5-6.8-7.5-10.1c-0.8-1.1-1.7-2.1-2.6-3.1c-0.2-0.2-0.4-0.5-0.3-0.8
			c0.2-0.4,0.5-0.3,0.7-0.3c1.2,0,2.4,0,3.5-0.3c4.3-1.2,5.1-5.4,3.9-8.1c-0.9-2-2.7-2.7-4.7-2.8c-1.4-0.1-2.8,0.1-4.1,0.5
			c-0.4,0.1-0.6,0.3-0.7,0.8C8,48,7.9,49.7,7.9,51.5C7.8,53.4,7.9,55.4,7.9,57.3z"/>
		<path class="st3" d="M150.8,56.4c0,3,0,6,0,8.9c0,1,0.1,2,0.1,3c0,0.7,0.4,1.2,1.2,1.3c0.6,0.1,1.3,0.1,1.9,0.1
			c0.5,0,0.7,0.2,0.7,0.7s-0.1,0.7-0.6,0.6c-3.4-0.3-6.7-0.1-10.1,0c-0.5,0-0.7-0.1-0.7-0.6s0.2-0.7,0.7-0.7c0.6,0,1.2,0,1.9-0.1
			s1-0.5,1-1.2c0.1-1,0.1-2,0.1-3c0-5.2,0-10.3,0-15.5c0-1.2-0.1-2.4-0.2-3.5c-0.1-1-0.4-1.3-1.4-1.5c-0.5-0.1-1.1-0.1-1.6-0.1
			s-0.6-0.2-0.6-0.6c0-0.4,0.1-0.7,0.6-0.7c1.2,0.1,2.4,0.1,3.5,0.1c3,0.1,6-0.2,8.9-0.2c1.3,0,2.5,0,3.8,0.3
			c4.2,0.8,6.2,4.8,4.3,8.6c-0.8,1.6-2.1,2.8-3.7,3.6c-0.8,0.4-1.6,0.7-2.4,0.9c-0.6,0.1-0.8,0.3-0.3,0.9c2.7,3.7,5.6,7.4,8.4,11
			c0.4,0.5,0.9,1,1.6,1c0.6,0,0.4,0.5,0.4,0.8s-0.1,0.5-0.5,0.5c-1.5-0.1-2.9-0.2-4.4,0c-0.4,0.1-0.6-0.3-0.8-0.6
			c-2.4-3.2-4.7-6.4-7.2-9.6c-0.9-1.2-2-2.4-3-3.6c-0.2-0.2-0.4-0.5-0.3-0.8c0.2-0.4,0.5-0.2,0.7-0.2c1.2,0,2.4,0,3.5-0.3
			c4.3-1.2,5-5.3,3.9-8c-0.7-1.7-2.1-2.5-3.8-2.8s-3.3-0.1-4.9,0.3c-0.6,0.2-0.9,0.5-0.9,1.2c0,1.7-0.2,3.3-0.1,5
			C150.8,53.1,150.8,54.7,150.8,56.4z"/>
		<g id="XMLID_2_">
			<g>
				<path class="st3" d="M122.1,43.6c6,1.5,9.5,6.2,9.5,12.6c0,8.1-5.8,14.3-13.9,15c-2.7,0.2-5.3,0-7.8-1.1
					c-4.6-2.1-6.8-5.9-7.5-10.7c-0.4-2.5-0.2-5,0.6-7.3c1.7-4.9,5.3-7.7,10.3-8.7C116.2,42.9,119.1,42.9,122.1,43.6z M127.4,57.4
					c0-1.1-0.1-2.4-0.4-3.7c-1-4.2-3.2-7.3-7.5-8.5c-1.2-0.3-2.5-0.4-3.8-0.4c-4.2,0.1-7.5,2.4-8.8,6.4c-1.5,4.9-0.9,9.6,1.9,13.9
					c2,3.1,4.9,4.5,8.6,4.5c4.4,0,7.6-2.2,9.1-6.4C127.2,61.4,127.4,59.5,127.4,57.4z"/>
			</g>
		</g>
		<path class="st3" d="M46.2,43.6c4,0,7.5-0.2,10.9,0c0.7,0,0.7,0.2,0.6,0.8c-0.4,1.4-0.5,2.9-0.6,4.4c0,0.5,0,0.9-0.7,0.9
			s-0.7-0.3-0.7-0.8c0-0.6-0.1-1.3-0.1-1.9c0-0.5-0.3-0.8-0.8-1c-2.7-0.7-5.4-0.6-8.2-0.5c-0.1,0-0.3,0-0.4,0
			c-1.7,0.1-1.7,0.1-1.7,1.9c0,2.6-0.1,5.2-0.1,7.9c0,0.5,0.1,0.8,0.7,0.8c2.3,0,4.7,0.2,7-0.1c1-0.1,1.3-0.4,1.4-1.5
			c0-0.4,0-0.9,0-1.3c0-0.6,0.3-0.6,0.7-0.6s0.7,0,0.7,0.6c-0.1,1.4-0.1,2.9-0.1,4.3c0,1.1,0.1,2.3,0.1,3.4c0,0.6-0.2,0.8-0.7,0.8
			c-0.6,0-0.7-0.2-0.7-0.8c0-0.5,0-1.1-0.1-1.7c-0.2-0.7-0.5-1.1-1.3-1.2c-2.4-0.3-4.8-0.3-7.3-0.1c-0.5,0-0.4,0.4-0.4,0.7
			c0,2.6,0,5.1,0.1,7.7c0,0.4,0,0.8,0,1.2c0,1.5,0,1.6,1.5,1.6c3,0.1,5.9,0.3,8.9-0.2c0.9-0.1,1.5-0.5,1.6-1.5
			c0.1-0.9,0.4-1.7,0.5-2.5c0.1-0.7,0.6-0.6,1-0.6c0.6,0,0.4,0.4,0.4,0.7c-0.1,1.8-0.5,3.6-0.4,5.5c0,0.4-0.3,0.4-0.6,0.5
			c-1.4,0.2-2.9,0.1-4.3,0.1c-5,0-10-0.3-15.1,0c-0.5,0-0.9,0-0.9-0.7c0-0.4,0.2-0.6,0.6-0.6c0.4,0,0.9-0.1,1.3-0.1
			c0.8,0,1.2-0.5,1.3-1.3c0.1-0.6,0.2-1.1,0.2-1.7c0-5.5,0-11,0-16.4c0-1.2-0.1-2.4-0.1-3.5c-0.1-1.2-0.4-1.5-1.6-1.6
			c-0.5,0-0.9-0.1-1.4-0.1c-0.6,0-0.9-0.2-0.8-0.9c0-0.4,0.2-0.6,0.6-0.6c0.7,0,1.5,0,2.2,0C41.8,43.7,44.3,43.6,46.2,43.6z"/>
		<path class="st3" d="M79.4,43.6c3.6-0.1,6.6-0.2,9.5-0.1c0.2,0,0.5,0,0.7,0c0.6,0,0.8,0.3,0.6,0.9c-0.3,1.5-0.5,2.9-0.5,4.4
			c0,0.4,0,0.7-0.6,0.7c-0.5,0-0.8-0.1-0.8-0.7c0-0.7-0.2-1.5-0.2-2.2c0-0.5-0.3-0.7-0.8-0.8c-1.7-0.4-3.4-0.6-5.1-0.5
			c-1.2,0-2.4,0-3.5,0.2c-0.4,0.1-0.6,0.2-0.6,0.7c-0.3,3.1-0.1,6.2-0.2,9.4c0,0.4,0.2,0.6,0.6,0.6c2.3,0.1,4.6,0,6.8-0.1
			c0.6,0,1-0.4,1.1-1s0.2-1.2,0.3-1.8c0.1-0.6,0.5-0.5,0.9-0.5c0.5,0,0.5,0.3,0.5,0.6c-0.2,2.7-0.2,5.3-0.1,8c0,0.5-0.3,0.6-0.7,0.6
			c-0.4,0-0.7-0.1-0.7-0.6c0-0.7,0-1.3-0.1-2s-0.5-1.2-1.2-1.3C83,57.8,80.8,58,78.5,58c-0.4,0-0.5,0.2-0.5,0.5
			c0.1,3.3-0.2,6.6,0.2,9.9c0.1,0.8,0.5,1.2,1.3,1.3c0.5,0,1.1,0,1.7,0c0.5,0,0.6,0.2,0.6,0.7S81.6,71,81.2,71
			c-2-0.1-4.1-0.1-6.1-0.1c-1.4,0-2.8,0.1-4.3,0.1c-0.5,0-0.7-0.1-0.7-0.6s0.1-0.7,0.6-0.7c0.7,0,1.4,0.1,2.2-0.1
			c0.5-0.1,0.9-0.4,1-1c0.2-1.3,0.2-2.5,0.2-3.8c0-5,0-10,0-15c0-1.2-0.1-2.4-0.2-3.7c-0.1-0.7-0.5-1.1-1.2-1.2
			c-0.6-0.1-1.2-0.1-1.9-0.1c-0.5,0-0.7-0.2-0.7-0.7s0.3-0.7,0.7-0.6C74,43.7,77,43.6,79.4,43.6z"/>
	</g>
	<g id="XMLID_4_">
		<g>
			<path class="st4" d="M148,85.8c1.4,0.1,2.1,1.2,1.6,2.6c-0.4,1.1-1.8,1.9-3,1.6c-0.2,0-0.4-0.1-0.4-0.3c0-0.3,0.3-0.2,0.5-0.2
				c0.9-0.1,1.4-0.7,1.3-1.7c-0.1-1-0.6-1.5-1.5-1.5c-0.5,0-0.8,0.2-0.8,0.7c0,0.9,0,1.9,0,2.8l0,0c0,0.8,0,1.7,0,2.5
				c0,0.6,0.1,1,0.8,1c0.2,0,0.4,0,0.4,0.3c0,0.2-0.3,0.2-0.4,0.2c-1,0-2,0-3,0c-0.2,0-0.4,0-0.5-0.3c0-0.3,0.2-0.3,0.4-0.3
				c0.5-0.1,0.6-0.3,0.6-0.7c0.1-1.8,0.1-3.7,0-5.5c0-0.4-0.1-0.8-0.6-0.8c-0.2,0-0.3-0.1-0.3-0.3c0-0.3,0.2-0.3,0.4-0.3
				C144.9,85.7,146.4,85.7,148,85.8z"/>
			<path class="st4" d="M140.5,86.2c1.3,0.8,1.8,2.1,1.7,3.6c-0.1,1.7-0.8,3.1-2.5,3.8c-1.5,0.6-3,0.6-4.5,0
				c-0.7-0.3-1.3-0.8-1.6-1.5c-1.6-2.9,0.2-6.2,3.5-6.5c0.2,0,0.4,0,0.7,0C138.7,85.6,139.6,85.7,140.5,86.2z M140,91.9
				c0.3-0.6,0.3-1.3,0.4-2c0-0.8-0.1-1.7-0.5-2.5c-0.5-1-1.4-1.4-2.4-1.3c-1,0-1.8,0.5-2.2,1.5c-0.6,1.6-0.5,3.1,0.3,4.7
				c0.5,1,1.4,1.3,2.4,1.2C138.9,93.4,139.6,92.9,140,91.9z"/>
			<path class="st4" d="M131.9,93.4c0.2,0,0.3,0.1,0.3,0.3c0,0.2-0.2,0.2-0.4,0.2c-0.5,0-1,0-1.5,0s-1,0-1.5,0c-0.2,0-0.4,0-0.4-0.3
				c0-0.2,0.1-0.3,0.3-0.3c0.6,0,0.7-0.4,0.7-0.9c0-0.6,0-1.2,0-1.9c0-0.4-0.1-0.6-0.5-0.6c-0.8,0-1.7,0-2.5,0
				c-0.5,0-0.6,0.2-0.6,0.6c0,0.5,0,1.1,0,1.6c0,0.6,0,1.1,0.8,1.1c0.2,0,0.3,0.1,0.3,0.3c0,0.2-0.2,0.2-0.3,0.2c-1.1,0-2.1,0-3.2,0
				c-0.2,0-0.3,0-0.3-0.2s0.1-0.3,0.3-0.3c0.6,0,0.8-0.4,0.8-1c0-1.7,0-3.4,0-5.2c0-0.5-0.1-0.9-0.7-1c-0.2,0-0.4-0.1-0.3-0.3
				c0-0.2,0.2-0.2,0.4-0.2c1,0,2.1,0,3.1,0c0.2,0,0.4,0,0.4,0.3s-0.2,0.3-0.4,0.3c-0.5,0.1-0.7,0.4-0.7,0.8c0,0.6,0,1.2,0,1.9
				c0,0.4,0.2,0.5,0.5,0.5c0.8,0,1.7,0,2.5,0c0.5,0,0.6-0.2,0.6-0.6c0-0.5,0-0.9,0-1.4c0-0.6,0-1.2-0.8-1.2c-0.2,0-0.2-0.1-0.2-0.3
				c0-0.2,0.1-0.2,0.3-0.2c1.1,0,2.2,0,3.3,0c0.1,0,0.3,0,0.3,0.2s-0.1,0.3-0.3,0.3c-0.7,0-0.8,0.6-0.8,1.1c0,1.7,0,3.3,0,5
				C131.1,92.9,131.2,93.3,131.9,93.4z"/>
			<path class="st4" d="M122,90.4c0.3,1,0.1,1.9-0.6,2.6c-0.8,0.8-1.8,1.1-2.9,1.1c-0.3,0-0.5,0-0.8-0.1c-1.6-0.2-1.8-0.6-1.5-2.2
				c0-0.2,0.1-0.3,0.3-0.3c0.2,0,0.2,0.2,0.2,0.3c0.3,1.4,1.9,2.1,3.1,1.4c0.6-0.4,0.8-0.9,0.7-1.6c-0.1-0.6-0.5-0.9-1.1-1
				c-0.5-0.1-1.1-0.2-1.6-0.3c-1.2-0.3-1.7-0.8-1.8-1.9c-0.1-1,0.5-2.1,1.4-2.5c1.2-0.5,2.5-0.4,3.7,0c0.3,0.1,0.4,0.3,0.3,0.6
				c-0.1,0.4-0.1,0.7-0.1,1.1c0,0.2,0,0.3-0.2,0.3c-0.3,0-0.3-0.1-0.3-0.3c0-0.4-0.1-0.9-0.6-1.1c-0.6-0.3-1.2-0.4-1.9-0.1
				c-0.6,0.2-0.9,0.7-0.9,1.3c0,0.6,0.4,1,1,1.1c0.5,0.1,1.1,0.2,1.6,0.3C121,89.2,121.7,89.5,122,90.4z"/>
			<path class="st4" d="M114.9,93.3c0.2,0.1,0.3,0.1,0.3,0.4c-0.1,0.2-0.3,0.2-0.4,0.2c0,0,0,0-0.1,0c-1.2,0.2-2.1-0.2-2.7-1.4
				c-0.4-0.9-1-1.6-1.6-2.4c-0.2-0.3-0.2-0.5,0.2-0.5c1.2-0.2,1.8-1.1,1.5-2.2c-0.2-0.8-1.4-1.4-2.1-1.1c-0.2,0.1-0.2,0.3-0.2,0.5
				c0,0.5,0,1,0,1.5s0,1-0.1,1.5c0,0.9,0.1,1.8,0.1,2.7c0,0.5,0.1,0.8,0.6,0.9c0.2,0,0.3,0.1,0.3,0.3c0,0.2-0.2,0.2-0.4,0.2
				c-1,0-2,0-2.9,0c-0.2,0-0.4,0-0.4-0.3c0-0.2,0.1-0.3,0.3-0.3c0.6-0.1,0.6-0.5,0.6-0.9c0-1.7,0-3.4,0-5.2c0-0.5,0-0.9-0.6-1
				c-0.2,0-0.3-0.1-0.3-0.3c0-0.2,0.2-0.2,0.3-0.2c1.7,0,3.3,0,5,0c0.7,0,1.2,0.4,1.4,1.1c0.2,0.8,0,1.6-0.7,2.2
				c-0.3,0.3-0.9,0.3-0.9,0.7c0,0.3,0.4,0.7,0.6,1c0.4,0.6,0.8,1.2,1.3,1.8C114.4,92.9,114.5,93.2,114.9,93.3z"/>
			<path class="st4" d="M106,92.1c0.3,0,0.2,0.2,0.2,0.4c0,0,0,0,0,0.1c0,1.4,0,1.4-1.4,1.4s-2.8,0-4.2,0c-0.2,0-0.4,0.1-0.5-0.1
				s0.1-0.3,0.3-0.3c0.2-0.1,0.2-0.4,0.2-0.6c0.1-2,0.1-3.9,0.1-5.9c0-0.4-0.2-0.6-0.6-0.6c-0.2,0-0.4,0-0.4-0.3s0.3-0.3,0.5-0.3
				c0.9,0,1.7,0,2.6,0s1.7,0,2.6,0c0.5,0,0.7,0.2,0.6,0.6c0,0.2,0,0.3-0.1,0.5c0,0.2,0,0.5-0.2,0.5c-0.3,0-0.3-0.3-0.3-0.5
				c0-0.3-0.2-0.4-0.5-0.5c-0.7-0.1-1.4-0.1-2.1-0.1c-0.3,0-0.4,0.2-0.4,0.5c0,0.8,0,1.5,0,2.3c0,0.1,0,0.3,0.1,0.4
				c0.4,0.2,0.9,0.1,1.3,0.1c0.5,0,0.9,0,0.9-0.6c0-0.2,0.1-0.3,0.3-0.3c0.2,0,0.2,0.2,0.2,0.3c0,0.6,0,1.2,0,1.7
				c0,0.2,0,0.4-0.2,0.4c-0.3,0-0.3-0.2-0.3-0.4c0-0.6-0.5-0.7-0.9-0.7c-1.5,0-1.4-0.2-1.4,1.3c0,0.5,0,1,0,1.5
				c0,0.3,0.1,0.5,0.5,0.5s0.9,0,1.3,0c0.7,0,1.4-0.1,1.4-1C105.7,92.2,105.8,92,106,92.1z"/>
			<path class="st4" d="M96.6,89.4c1.7,0.3,2.4,1.1,2.1,2.3c-0.2,1.1-0.9,1.8-2,2c-1.3,0.3-2.7,0.1-4.1,0.1c-0.3,0-0.4-0.2-0.2-0.4
				c0.3-0.2,0.3-0.5,0.3-0.8c0-1.8,0.1-3.7,0-5.5c0-0.5-0.1-0.9-0.7-0.9c-0.2,0-0.3-0.1-0.3-0.3c0-0.3,0.2-0.3,0.4-0.3
				c1.5,0,3,0,4.5,0c1,0,1.6,0.6,1.8,1.3c0.2,0.8-0.3,1.6-1.2,2C97,89.2,96.9,89.3,96.6,89.4z M96.9,91.5c0-1.2-0.6-1.8-1.8-1.8
				c-0.4,0-0.5,0.1-0.5,0.5c0,0.8,0,1.6,0,2.5c0,0.5,0.3,0.6,0.7,0.6C96.3,93.4,96.9,92.7,96.9,91.5z M95.2,89.2
				c1.2-0.1,1.8-1.3,1.3-2.3c-0.2-0.4-1-0.7-1.6-0.6c-0.5,0.2-0.2,0.6-0.3,0.9c0,0.2,0,0.4,0,0.5l0,0c0,0.3,0,0.6,0,0.9
				C94.5,89.1,94.7,89.2,95.2,89.2z"/>
			<path class="st4" d="M91,93.4c0.2,0.1,0.2,0.2,0.2,0.3c0,0.2-0.2,0.2-0.3,0.2c-0.6,0-1.2,0-1.7,0c-0.2,0-0.4-0.2-0.5-0.3
				c-0.8-1.1-1.5-2.3-2.3-3.4c-0.3-0.4-0.2-0.5,0.3-0.6c1.2-0.2,1.8-1.2,1.4-2.3c-0.2-0.7-1.4-1.2-2.1-1c-0.3,0.1-0.2,0.4-0.2,0.6
				c0,1,0,1.9,0,2.9c-0.1,0.9,0,1.9,0,2.8c0,0.4,0.1,0.7,0.6,0.8c0.2,0,0.4,0.1,0.3,0.3c0,0.3-0.2,0.2-0.4,0.2c-1,0-1.9,0-2.9,0
				c-0.2,0-0.4,0-0.4-0.2c0-0.3,0.2-0.3,0.3-0.3c0.5-0.1,0.6-0.4,0.6-0.8c0-1.8,0-3.5,0-5.3c0-0.5,0-0.9-0.6-0.9
				c-0.2,0-0.3-0.1-0.3-0.3c0-0.3,0.2-0.3,0.4-0.3c1.6,0,3.2,0,4.8,0c0.7,0,1.3,0.4,1.6,1.1c0.3,0.8,0,1.6-0.7,2.2
				c-0.3,0.2-0.9,0.2-0.8,0.7c0,0.3,0.4,0.6,0.6,0.9c0.4,0.5,0.7,1.1,1.1,1.6C90.3,92.8,90.5,93.2,91,93.4z"/>
			<path class="st4" d="M82.3,93.4c0.2,0,0.3,0.2,0.2,0.3c0,0.2-0.2,0.2-0.3,0.2c-0.5,0-1,0-1.5,0s-1,0-1.5,0c-0.2,0-0.3,0-0.3-0.2
				s0.1-0.3,0.3-0.3c0.6-0.1,0.6-0.4,0.4-0.8v-0.1c-0.4-1-0.4-1-1.5-1c-0.3,0-0.6,0-0.9,0c-1.1,0-1,0-1.4,1c-0.2,0.5-0.2,0.9,0.5,1
				c0.2,0,0.3,0.1,0.3,0.3c0,0.2-0.2,0.2-0.3,0.2c-0.7,0-1.3,0-2,0c-0.2,0-0.4,0-0.4-0.3c0-0.2,0.1-0.3,0.3-0.3
				c0.5-0.1,0.6-0.5,0.8-0.8c0.9-2,1.7-4.1,2.6-6.1c0.1-0.3,0.2-0.7,0.7-0.7s0.6,0.4,0.7,0.7c0.9,2,1.7,4,2.6,6
				C81.6,92.9,81.8,93.3,82.3,93.4z M78.2,90.8c0.3,0,0.5-0.1,0.3-0.4c-0.3-0.8-0.6-1.6-1-2.4c-0.3,0.4-0.4,0.8-0.6,1.2
				C76.2,91.1,75.8,90.8,78.2,90.8z"/>
			<path class="st4" d="M72.7,91.1c0.1,1-0.4,2-1.5,2.5c-0.6,0.3-1.1,0.4-1.8,0.4c-0.9,0-1.9,0-2.8,0c-0.1,0-0.3,0-0.3-0.1
				s0-0.2,0.1-0.3c0.2-0.2,0.3-0.4,0.3-0.7c0.1-1.9,0.1-3.7,0-5.6c0-0.5-0.1-0.8-0.7-0.9c-0.2,0-0.3-0.1-0.3-0.3
				c0-0.2,0.2-0.2,0.4-0.2c1.5,0,3,0,4.5,0c1,0,1.6,0.6,1.7,1.4s-0.3,1.5-1.2,2c-0.2,0.1-0.4,0.2-0.6,0.3c0.1,0.1,0.1,0.1,0.1,0.1
				C72,89.7,72.6,90.1,72.7,91.1z M69.4,93.4c1-0.1,1.5-0.8,1.5-1.9c0-1-0.5-1.6-1.5-1.7c-0.5,0-0.9,0-0.8,0.7c0,0.4,0,0.7,0,1.1
				s0,0.8,0,1.1C68.5,93.3,68.9,93.4,69.4,93.4z M69.2,89.2c1.2-0.1,1.8-1.3,1.2-2.3c-0.2-0.4-1.1-0.7-1.6-0.6
				c-0.5,0.2-0.2,0.6-0.3,0.9c0,0.2,0,0.4,0,0.5l0,0c0,0.3,0,0.6,0,0.9C68.5,89.1,68.8,89.3,69.2,89.2z"/>
		</g>
	</g>
	<rect x="164.5" y="89.8" class="st4" width="28.3" height="1.4"/>
	<rect x="22.7" y="89.8" class="st4" width="28.3" height="1.4"/>
</g>
</svg>
