<?xml version="1.0" encoding="utf-8"?>
<!-- Generator: Adobe Illustrator 25.2.1, SVG Export Plug-In . SVG Version: 6.00 Build 0)  -->
<svg version="1.1" id="Layer_1" xmlns="http://www.w3.org/2000/svg" xmlns:xlink="http://www.w3.org/1999/xlink" x="0px" y="0px"
	 viewBox="0 0 214.6 93.6" style="enable-background:new 0 0 214.6 93.6;" xml:space="preserve">
<style type="text/css">
	.st0{display:none;}
	.st1{display:inline;}
	.st2{fill:#010101;}
	.st3{fill:#FFFFFF;}
</style>
<g id="Logo_1_" class="st0">
	<g class="st1">
		<g id="XMLID_3_">
			<g>
				<path class="st2" d="M686.9,189.9v26.9c0,3.1-2.5,5.7-5.7,5.7H522.5c-3.1,0-5.7-2.5-5.7-5.7v-26.9c0-0.8,0.6-1.4,1.4-1.4h8.5
					c0.8,0,1.4,0.6,1.4,1.4v19.8c0,0.8,0.6,1.4,1.4,1.4h1.4h2.8h2.8h2.8h2.8h2.8h2.8h2.8h2.8h2.8h2.8h2.8h2.8h2.8h2.8h2.8h2.8h2.8
					h2.8h2.8h2.8h2.8h2.8h2.8h2.8h2.8h2.8h2.8h2.8h2.8h2.8h2.8h2.8h2.8h2.8h2.8h2.8h2.8h2.8h2.8h2.8h2.8h2.8h2.8h2.8h2.8h2.8h2.8
					h2.8h2.8h2.8h2.8h1.4c0.8,0,1.4-0.6,1.4-1.4v-19.8c0-0.8,0.6-1.4,1.4-1.4h5.7C686.2,188.5,686.9,189.2,686.9,189.9z"/>
				<path class="st2" d="M675.5,211.2L675.5,211.2h-2.8l0,0v-21.3c0-0.8,0.6-1.4,1.4-1.4c0.8,0,1.4,0.6,1.4,1.4L675.5,211.2
					L675.5,211.2z"/>
				<path class="st2" d="M669.9,211.2L669.9,211.2h-2.8l0,0v-21.3c0-0.8,0.6-1.4,1.4-1.4c0.8,0,1.4,0.6,1.4,1.4L669.9,211.2
					L669.9,211.2z"/>
				<path class="st2" d="M664.2,211.2L664.2,211.2h-2.8l0,0v-21.3c0-0.8,0.6-1.4,1.4-1.4c0.8,0,1.4,0.6,1.4,1.4L664.2,211.2
					L664.2,211.2z"/>
				<path class="st2" d="M658.5,211.2L658.5,211.2h-2.8l0,0v-21.3c0-0.8,0.6-1.4,1.4-1.4c0.8,0,1.4,0.6,1.4,1.4L658.5,211.2
					L658.5,211.2z"/>
				<path class="st2" d="M652.8,211.2L652.8,211.2H650l0,0v-21.3c0-0.8,0.6-1.4,1.4-1.4c0.8,0,1.4,0.6,1.4,1.4L652.8,211.2
					L652.8,211.2z"/>
				<path class="st2" d="M647.2,211.2L647.2,211.2h-2.8l0,0v-21.3c0-0.8,0.6-1.4,1.4-1.4c0.8,0,1.4,0.6,1.4,1.4L647.2,211.2
					L647.2,211.2z"/>
				<path class="st2" d="M641.5,211.2L641.5,211.2h-2.8l0,0v-21.3c0-0.8,0.6-1.4,1.4-1.4c0.8,0,1.4,0.6,1.4,1.4L641.5,211.2
					L641.5,211.2z"/>
				<path class="st2" d="M635.8,211.2L635.8,211.2H633l0,0v-21.3c0-0.8,0.6-1.4,1.4-1.4c0.8,0,1.4,0.6,1.4,1.4L635.8,211.2
					L635.8,211.2z"/>
				<path class="st2" d="M630.2,211.2L630.2,211.2h-2.8l0,0v-21.3c0-0.8,0.6-1.4,1.4-1.4c0.8,0,1.4,0.6,1.4,1.4L630.2,211.2
					L630.2,211.2z"/>
				<path class="st2" d="M624.5,211.2L624.5,211.2h-2.8l0,0v-21.3c0-0.8,0.6-1.4,1.4-1.4c0.8,0,1.4,0.6,1.4,1.4L624.5,211.2
					L624.5,211.2z"/>
				<path class="st2" d="M618.8,211.2L618.8,211.2H616l0,0v-21.3c0-0.8,0.6-1.4,1.4-1.4c0.8,0,1.4,0.6,1.4,1.4L618.8,211.2
					L618.8,211.2z"/>
				<path class="st2" d="M613.2,211.2L613.2,211.2h-2.8l0,0v-21.3c0-0.8,0.6-1.4,1.4-1.4c0.8,0,1.4,0.6,1.4,1.4L613.2,211.2
					L613.2,211.2z"/>
				<path class="st2" d="M607.5,211.2L607.5,211.2h-2.8l0,0v-21.3c0-0.8,0.6-1.4,1.4-1.4c0.8,0,1.4,0.6,1.4,1.4L607.5,211.2
					L607.5,211.2z"/>
				<path class="st2" d="M601.8,189.9v21.3H599v-21.3c0-0.8,0.6-1.4,1.4-1.4C601.2,188.5,601.8,189.2,601.8,189.9z"/>
				<path class="st2" d="M596.2,189.9v21.3h-2.8v-21.3c0-0.8,0.6-1.4,1.4-1.4C595.5,188.5,596.2,189.2,596.2,189.9z"/>
				<path class="st2" d="M590.5,189.9v21.3h-2.8v-21.3c0-0.8,0.6-1.4,1.4-1.4C589.9,188.5,590.5,189.2,590.5,189.9z"/>
				<path class="st2" d="M584.8,189.9v21.3H582v-21.3c0-0.8,0.6-1.4,1.4-1.4C584.2,188.5,584.8,189.2,584.8,189.9z"/>
				<path class="st2" d="M579.1,189.9v21.3h-2.8v-21.3c0-0.8,0.6-1.4,1.4-1.4C578.5,188.5,579.1,189.2,579.1,189.9z"/>
				<path class="st2" d="M573.5,189.9v21.3h-2.8v-21.3c0-0.8,0.6-1.4,1.4-1.4C572.8,188.5,573.5,189.2,573.5,189.9z"/>
				<path class="st2" d="M567.8,189.9v21.3H565v-21.3c0-0.8,0.6-1.4,1.4-1.4C567.2,188.5,567.8,189.2,567.8,189.9z"/>
				<path class="st2" d="M562.1,189.9v21.3h-2.8v-21.3c0-0.8,0.6-1.4,1.4-1.4C561.5,188.5,562.1,189.2,562.1,189.9z"/>
				<path class="st2" d="M556.5,189.9v21.3h-2.8v-21.3c0-0.8,0.6-1.4,1.4-1.4S556.5,189.2,556.5,189.9z"/>
				<path class="st2" d="M550.8,189.9v21.3H548v-21.3c0-0.8,0.6-1.4,1.4-1.4C550.2,188.5,550.8,189.2,550.8,189.9z"/>
				<path class="st2" d="M545.1,189.9v21.3h-2.8v-21.3c0-0.8,0.6-1.4,1.4-1.4C544.5,188.5,545.1,189.2,545.1,189.9z"/>
				<path class="st2" d="M539.5,189.9v21.3h-2.8v-21.3c0-0.8,0.6-1.4,1.4-1.4S539.5,189.2,539.5,189.9z"/>
				<path class="st2" d="M533.8,189.9v21.3H531v-21.3c0-0.8,0.6-1.4,1.4-1.4C533.2,188.5,533.8,189.2,533.8,189.9z"/>
			</g>
		</g>
	</g>
	<text transform="matrix(1 0 0 1 488.4388 269.0198)" class="st1" style="font-family:'BookAntiqua'; font-size:41.345px;">R E F O R M</text>
	<text transform="matrix(1 0 0 1 559.3041 296.424)" class="st1" style="font-family:'BookAntiqua-Bold'; font-size:12.0543px;">BARBERSHOP</text>
	<rect x="658.5" y="292.7" class="st1" width="28.3" height="1.4"/>
	<rect x="516.8" y="292.7" class="st1" width="28.3" height="1.4"/>
	<g class="st1">
		<g id="XMLID_1_">
			<g>
				<path class="st2" d="M625.4,16.1L625.4,16.1H623l0,0V-1.6c0-0.7,0.5-1.2,1.2-1.2s1.2,0.5,1.2,1.2V16.1z"/>
				<path class="st2" d="M620.7,16.1L620.7,16.1h-2.4l0,0V-1.6c0-0.7,0.5-1.2,1.2-1.2s1.2,0.5,1.2,1.2V16.1z"/>
				<path class="st2" d="M616,16.1L616,16.1h-2.4l0,0V-1.6c0-0.7,0.5-1.2,1.2-1.2s1.2,0.5,1.2,1.2V16.1z"/>
				<path class="st2" d="M611.3,16.1L611.3,16.1h-2.4l0,0V-1.6c0-0.7,0.5-1.2,1.2-1.2s1.2,0.5,1.2,1.2V16.1z"/>
				<path class="st2" d="M606.5,16.1L606.5,16.1h-2.4l0,0V-1.6c0-0.7,0.5-1.2,1.2-1.2s1.2,0.5,1.2,1.2V16.1z"/>
				<path class="st2" d="M601.8,16.1L601.8,16.1h-2.4l0,0V-1.6c0-0.7,0.5-1.2,1.2-1.2s1.2,0.5,1.2,1.2V16.1z"/>
				<path class="st2" d="M597.1,16.1L597.1,16.1h-2.4l0,0V-1.6c0-0.7,0.5-1.2,1.2-1.2s1.2,0.5,1.2,1.2V16.1z"/>
				<path class="st2" d="M592.4,16.1L592.4,16.1H590l0,0V-1.6c0-0.7,0.5-1.2,1.2-1.2s1.2,0.5,1.2,1.2V16.1z"/>
				<path class="st2" d="M587.7,16.1L587.7,16.1h-2.4l0,0V-1.6c0-0.7,0.5-1.2,1.2-1.2s1.2,0.5,1.2,1.2V16.1z"/>
				<path class="st2" d="M580.6-1.6c0-0.7,0.5-1.2,1.2-1.2s1.2,0.5,1.2,1.2v17.7l0,0h-2.4l0,0V-1.6z"/>
				<path class="st2" d="M575.8,16.1L575.8,16.1V-1.6c0-0.7,0.5-1.2,1.2-1.2s1.2,0.5,1.2,1.2v17.7l0,0
					C578.2,16.1,575.8,16.1,575.8,16.1z"/>
				<path class="st2" d="M571.1-1.6c0-0.7,0.5-1.2,1.2-1.2s1.2,0.5,1.2,1.2v17.7l0,0h-2.4l0,0V-1.6z"/>
				<path class="st2" d="M566.4,16.1L566.4,16.1V-1.6c0-0.7,0.5-1.2,1.2-1.2s1.2,0.5,1.2,1.2v17.7l0,0
					C568.8,16.1,566.4,16.1,566.4,16.1z"/>
				<path class="st2" d="M561.7,16.1V-1.6c0-0.7,0.5-1.2,1.2-1.2s1.2,0.5,1.2,1.2v17.7C564.1,16.1,561.7,16.1,561.7,16.1z"/>
				<path class="st2" d="M556.9,16.1V-1.6c0-0.7,0.5-1.2,1.2-1.2s1.2,0.5,1.2,1.2v17.7C559.3,16.1,556.9,16.1,556.9,16.1z"/>
				<path class="st2" d="M552.2,16.1V-1.6c0-0.7,0.5-1.2,1.2-1.2s1.2,0.5,1.2,1.2v17.7C554.6,16.1,552.2,16.1,552.2,16.1z"/>
				<path class="st2" d="M547.5,16.1V-1.6c0-0.7,0.5-1.2,1.2-1.2s1.2,0.5,1.2,1.2v17.7C549.9,16.1,547.5,16.1,547.5,16.1z"/>
				<path class="st2" d="M542.8,16.1V-1.6c0-0.7,0.5-1.2,1.2-1.2s1.2,0.5,1.2,1.2v17.7C545.2,16.1,542.8,16.1,542.8,16.1z"/>
				<path class="st2" d="M538,16.1V-1.6c0-0.7,0.5-1.2,1.2-1.2s1.2,0.5,1.2,1.2v17.7C540.4,16.1,538,16.1,538,16.1z"/>
				<path class="st2" d="M533.3,16.1V-1.6c0-0.7,0.5-1.2,1.2-1.2s1.2,0.5,1.2,1.2v17.7C535.7,16.1,533.3,16.1,533.3,16.1z"/>
				<path class="st2" d="M528.6,16.1V-1.6c0-0.7,0.5-1.2,1.2-1.2s1.2,0.5,1.2,1.2v17.7C531,16.1,528.6,16.1,528.6,16.1z"/>
				<path class="st2" d="M523.9,16.1V-1.6c0-0.7,0.5-1.2,1.2-1.2s1.2,0.5,1.2,1.2v17.7C526.3,16.1,523.9,16.1,523.9,16.1z"/>
				<path class="st2" d="M519.1,16.1V-1.6c0-0.7,0.5-1.2,1.2-1.2s1.2,0.5,1.2,1.2v17.7C521.5,16.1,519.1,16.1,519.1,16.1z"/>
				<path class="st2" d="M514.4,16.1V-1.6c0-0.7,0.5-1.2,1.2-1.2s1.2,0.5,1.2,1.2v17.7C516.8,16.1,514.4,16.1,514.4,16.1z"/>
				<path class="st2" d="M509.7,16.1V-1.6c0-0.7,0.5-1.2,1.2-1.2s1.2,0.5,1.2,1.2v17.7C512.1,16.1,509.7,16.1,509.7,16.1z"/>
				<path class="st2" d="M507.3,16.1h-2.4V-1.6c0-0.7,0.5-1.2,1.2-1.2s1.2,0.5,1.2,1.2L507.3,16.1L507.3,16.1z"/>
				<path class="st2" d="M493.2-1.6c0-0.7,0.5-1.2,1.2-1.2h7.1c0.7,0,1.2,0.5,1.2,1.2v16.5c0,0.7,0.5,1.2,1.2,1.2h1.2h2.4h2.4h2.4
					h2.4h2.4h2.4h2.4h2.4h2.4h2.4h2.4h2.4h2.4h2.4h2.4h2.4h2.4h2.4h2.4h2.4h2.4h2.4h2.4h2.4h2.4h2.4h2.4h2.4h2.4h2.4h2.4h2.4h2.4
					h2.4h2.4h2.4h2.4h2.4h2.4h2.4h2.4h2.4h2.4h2.4h2.4h2.4h2.4h2.4h2.4h2.4h2.4h1.2c0.7,0,1.2-0.5,1.2-1.2V-1.6
					c0-0.7,0.5-1.2,1.2-1.2h4.7c0.7,0,1.2,0.5,1.2,1.2v22.4c0,2.6-2.1,4.7-4.7,4.7H497.9c-2.6,0-4.7-2.1-4.7-4.7L493.2-1.6
					L493.2-1.6z"/>
			</g>
		</g>
	</g>
	<text transform="matrix(1 0 0 1 463.2035 63.7177)" class="st1" style="font-family:'BookAntiqua'; font-size:36.7651px;">R E F O R M</text>
	<text transform="matrix(1 0 0 1 521.6049 92.354)" class="st1" style="font-family:'BookAntiqua-Bold'; font-size:12.0273px;">BARBERSHOP</text>
	<rect x="620.7" y="87.9" class="st1" width="28.3" height="1.4"/>
	<rect x="479" y="87.9" class="st1" width="28.3" height="1.4"/>
</g>
<g id="Layer_2_1_">
	<g>
		<g id="XMLID_5_">
			<g>
				<path class="st3" d="M178.1,1.2v22.4c0,2.6-2.1,4.7-4.7,4.7H41.1c-2.6,0-4.7-2.1-4.7-4.7V1.2c0-0.7,0.5-1.2,1.2-1.2h7.1
					c0.7,0,1.2,0.5,1.2,1.2v16.5c0,0.7,0.5,1.2,1.2,1.2h1.2h2.4h2.4h2.4h2.4h2.4h2.4h2.4h2h2.4h2.4h2.4h2.4h2.4h2.4h2.4h2.4h2.4h2.4
					h2h2.4h2.4h2.4h2.4h2.4h2.4h2.4h2.4h2.4h2.4h2.4h2.4h2.4h2.4h2.4h2.4h2.4h2.4h2.4h2.4h2.4h2.4h2.4h2.4h2.4h2.4h2.4h2.4h2.4h2.4
					h2.4h2.4h1.2c0.7,0,1.2-0.5,1.2-1.2V1.2c0-0.7,0.5-1.2,1.2-1.2h4.7C177.6,0,178.1,0.6,178.1,1.2z"/>
				<path class="st3" d="M168.7,18.9L168.7,18.9h-2.4l0,0V1.2c0-0.7,0.5-1.2,1.2-1.2s1.2,0.5,1.2,1.2V18.9z"/>
				<path class="st3" d="M164,18.9L164,18.9h-2.4l0,0V1.2c0-0.7,0.5-1.2,1.2-1.2s1.2,0.5,1.2,1.2V18.9z"/>
				<path class="st3" d="M159.2,18.9L159.2,18.9h-2.4l0,0V1.2c0-0.7,0.5-1.2,1.2-1.2s1.2,0.5,1.2,1.2V18.9z"/>
				<path class="st3" d="M154.5,18.9L154.5,18.9h-2.4l0,0V1.2c0-0.7,0.5-1.2,1.2-1.2s1.2,0.5,1.2,1.2V18.9z"/>
				<path class="st3" d="M149.8,18.9L149.8,18.9h-2.4l0,0V1.2c0-0.7,0.5-1.2,1.2-1.2s1.2,0.5,1.2,1.2V18.9z"/>
				<path class="st3" d="M145.1,18.9L145.1,18.9h-2.4l0,0V1.2c0-0.7,0.5-1.2,1.2-1.2s1.2,0.5,1.2,1.2V18.9z"/>
				<path class="st3" d="M140.3,18.9L140.3,18.9h-2.4l0,0V1.2c0-0.7,0.5-1.2,1.2-1.2s1.2,0.5,1.2,1.2V18.9z"/>
				<path class="st3" d="M135.6,18.9L135.6,18.9h-2.4l0,0V1.2c0-0.7,0.5-1.2,1.2-1.2s1.2,0.5,1.2,1.2V18.9z"/>
				<path class="st3" d="M130.9,18.9L130.9,18.9h-2.4l0,0V1.2c0-0.7,0.5-1.2,1.2-1.2s1.2,0.5,1.2,1.2V18.9z"/>
				<path class="st3" d="M126.2,18.9L126.2,18.9h-2.4l0,0V1.2c0-0.7,0.5-1.2,1.2-1.2c0.7,0,1.2,0.5,1.2,1.2V18.9z"/>
				<path class="st3" d="M121.4,18.9L121.4,18.9H119l0,0V1.2c0-0.7,0.5-1.2,1.2-1.2s1.2,0.5,1.2,1.2
					C121.4,1.2,121.4,18.9,121.4,18.9z"/>
				<path class="st3" d="M116.7,18.9L116.7,18.9h-2.4l0,0V1.2c0-0.7,0.5-1.2,1.2-1.2s1.2,0.5,1.2,1.2
					C116.7,1.2,116.7,18.9,116.7,18.9z"/>
				<path class="st3" d="M112,18.9L112,18.9h-2.4l0,0V1.2c0-0.7,0.5-1.2,1.2-1.2s1.2,0.5,1.2,1.2C112,1.2,112,18.9,112,18.9z"/>
				<path class="st3" d="M107.3,1.2v17.7h-2.4V1.2c0-0.7,0.5-1.2,1.2-1.2C106.7,0,107.3,0.6,107.3,1.2z"/>
				<path class="st3" d="M102.5,1.2v17.7h-2.4V1.2c0-0.7,0.5-1.2,1.2-1.2C102,0,102.5,0.6,102.5,1.2z"/>
				<path class="st3" d="M97.8,1.2v17.7h-2.4V1.2c0-0.7,0.5-1.2,1.2-1.2C97.3,0,97.8,0.6,97.8,1.2z"/>
				<path class="st3" d="M93.1,1.2v17.7h-2.4V1.2c0-0.7,0.5-1.2,1.2-1.2C92.6,0,93.1,0.6,93.1,1.2z"/>
				<path class="st3" d="M88.4,1.2v17.7H86V1.2C86,0.5,86.5,0,87.2,0C87.8,0,88.4,0.6,88.4,1.2z"/>
				<path class="st3" d="M83.6,1.2v17.7h-2.4V1.2c0-0.7,0.5-1.2,1.2-1.2C83.1,0,83.6,0.6,83.6,1.2z"/>
				<path class="st3" d="M78.9,1.2v17.7h-2.4V1.2C76.5,0.5,77,0,77.7,0C78.4,0,78.9,0.6,78.9,1.2z"/>
				<path class="st3" d="M74.2,1.2v17.7h-2.4V1.2C71.8,0.5,72.3,0,73,0C73.7,0,74.2,0.6,74.2,1.2z"/>
				<path class="st3" d="M69.5,1.2v17.7h-2.4V1.2c0-0.7,0.5-1.2,1.2-1.2C68.9,0,69.5,0.6,69.5,1.2z"/>
				<path class="st3" d="M64.7,1.2v17.7h-2.4V1.2c0-0.7,0.5-1.2,1.2-1.2C64.2,0,64.7,0.6,64.7,1.2z"/>
				<path class="st3" d="M60,1.2v17.7h-2.4V1.2c0-0.7,0.5-1.2,1.2-1.2S60,0.6,60,1.2z"/>
				<path class="st3" d="M55.3,1.2v17.7h-2.4V1.2c0-0.7,0.5-1.2,1.2-1.2S55.3,0.6,55.3,1.2z"/>
				<path class="st3" d="M50.6,1.2v17.7h-2.4V1.2c0-0.7,0.5-1.2,1.2-1.2C50,0,50.6,0.6,50.6,1.2z"/>
			</g>
		</g>
	</g>
	<g>
		<path class="st3" d="M196.7,64.6c0.3-0.2,0.4-0.6,0.5-0.9c3.3-6.6,6.4-13.3,9.4-20c0.3-0.6,0.5-0.7,1.2-0.7c2,0.1,4,0.1,6-0.1
			c0.5,0,0.8,0.1,0.8,0.7c0,0.4-0.2,0.6-0.6,0.6c-0.6,0-1.2,0-1.8,0.1c-0.7,0.1-1,0.4-1.2,1.2c-0.2,1.1-0.1,2.3-0.1,3.4
			c0,5.5,0,11,0,16.4c0,0.8,0.1,1.6,0.2,2.4c0.1,0.9,0.4,1.1,1.2,1.3c0.5,0.1,1.1,0.1,1.6,0.1s0.6,0.2,0.6,0.6s-0.1,0.7-0.6,0.6
			c-3.2-0.2-6.4-0.2-9.7,0c-0.5,0-0.6-0.2-0.6-0.6c0-0.5,0.1-0.7,0.6-0.7c0.4,0,0.9,0,1.3,0c1-0.1,1.3-0.5,1.4-1.4
			c0.1-1,0.1-2,0.1-3c0-5.5,0-10.9,0-16.4c0-0.2,0-0.4,0-0.6c-0.3,0-0.3,0.3-0.4,0.5c-3.5,7.3-7.1,14.5-10.2,21.9
			c-0.1,0.3-0.2,0.7-0.7,0.7s-0.6-0.4-0.8-0.7c-3.2-7-6.6-14-9.9-20.9c-0.1-0.3-0.2-0.6-0.5-0.8c-0.2,0.2-0.1,0.4-0.1,0.7
			c0,5.6,0,11.2,0,16.8c0,0.6,0.1,1.2,0.2,1.9c0.1,0.7,0.5,1.1,1.2,1.2c0.6,0.1,1.1,0.2,1.7,0.1c0.5,0,0.6,0.2,0.6,0.7
			s-0.1,0.7-0.6,0.6c-2.7-0.3-5.3-0.1-8,0c-0.5,0-0.7-0.1-0.7-0.7c0-0.5,0.2-0.7,0.7-0.7c0.4,0,0.7,0,1.1,0c1.2-0.1,1.6-0.5,1.7-1.7
			c0.2-1.8,0.3-3.6,0.2-5.5c0-5.2,0.1-10.3-0.1-15.5c-0.1-1.6-0.4-2-2-2.2c-0.3,0-0.6,0-0.9,0c-0.5,0-0.8-0.1-0.8-0.7
			c0-0.7,0.4-0.6,0.8-0.6c2.1,0.1,4.1,0.2,6.2,0c0.5,0,0.6,0.3,0.7,0.6c1.6,3.3,3.1,6.7,4.7,10c1.7,3.5,3.4,7,5.1,10.4
			C196.4,64.2,196.5,64.4,196.7,64.6z"/>
		<path class="st3" d="M7.4,56.8c0,3.4-0.1,6.9,0.1,10.3c0.1,1.6,0.5,2,2.1,2.1c0.4,0,0.7,0,1.1,0c0.6-0.1,0.7,0.2,0.7,0.7
			c0,0.6-0.3,0.6-0.7,0.6c-3.3-0.3-6.6-0.1-9.9,0c-0.6,0-0.8-0.1-0.8-0.8c0-0.4,0.1-0.5,0.5-0.5c0.6,0,1.2,0,1.9-0.1s1-0.5,1.1-1.2
			c0.2-2,0.1-4,0.2-6c0-4.5,0-8.9,0-13.4c0-0.9,0-1.9-0.1-2.8c-0.1-0.8-0.4-1.2-1.2-1.3C2,44.3,1.5,44.3,1,44.3s-1,0.1-1-0.7
			S0.6,43,1,43c1.3,0,2.5,0.1,3.8,0.1c2.7,0,5.5-0.1,8.2-0.1c1.3,0,2.5,0,3.8,0.3c5.2,1,5.9,5.8,4.1,9c-1.3,2.3-3.3,3.5-5.7,4.1
			c-1,0.3-1,0.3-0.4,1.1c2.6,3.7,5.5,7.3,8.3,10.8c0.4,0.5,0.9,0.9,1.5,0.9s0.3,0.5,0.4,0.8c0,0.3-0.1,0.5-0.5,0.4
			c-1.4-0.1-2.9-0.2-4.3,0c-0.4,0.1-0.6-0.3-0.8-0.5c-2.5-3.4-5-6.8-7.5-10.1c-0.8-1.1-1.7-2.1-2.6-3.1c-0.2-0.2-0.4-0.5-0.3-0.8
			c0.2-0.4,0.5-0.3,0.7-0.3c1.2,0,2.4,0,3.5-0.3c4.3-1.2,5.1-5.4,3.9-8.1c-0.9-2-2.7-2.7-4.7-2.8c-1.4-0.1-2.8,0.1-4.1,0.5
			c-0.4,0.1-0.6,0.3-0.7,0.8c-0.1,1.8-0.2,3.5-0.2,5.3C7.3,52.9,7.4,54.9,7.4,56.8z"/>
		<path class="st3" d="M150.3,55.9c0,3,0,6,0,8.9c0,1,0.1,2,0.1,3c0,0.7,0.4,1.2,1.2,1.3c0.6,0.1,1.3,0.1,1.9,0.1
			c0.5,0,0.7,0.2,0.7,0.7s-0.1,0.7-0.6,0.6c-3.4-0.3-6.7-0.1-10.1,0c-0.5,0-0.7-0.1-0.7-0.6s0.2-0.7,0.7-0.7c0.6,0,1.2,0,1.9-0.1
			s1-0.5,1-1.2c0.1-1,0.1-2,0.1-3c0-5.2,0-10.3,0-15.5c0-1.2-0.1-2.4-0.2-3.5c-0.1-1-0.4-1.3-1.4-1.5c-0.5-0.1-1.1-0.1-1.6-0.1
			s-0.6-0.2-0.6-0.6c0-0.4,0.1-0.7,0.6-0.7c1.2,0.1,2.4,0.1,3.5,0.1c3,0.1,6-0.2,8.9-0.2c1.3,0,2.5,0,3.8,0.3
			c4.2,0.8,6.2,4.8,4.3,8.6c-0.8,1.6-2.1,2.8-3.7,3.6c-0.8,0.4-1.6,0.7-2.4,0.9c-0.6,0.1-0.8,0.3-0.3,0.9c2.7,3.7,5.6,7.4,8.4,11
			c0.4,0.5,0.9,1,1.6,1c0.6,0,0.4,0.5,0.4,0.8s-0.1,0.5-0.5,0.5c-1.5-0.1-2.9-0.2-4.4,0c-0.4,0.1-0.6-0.3-0.8-0.6
			c-2.4-3.2-4.7-6.4-7.2-9.6c-0.9-1.2-2-2.4-3-3.6c-0.2-0.2-0.4-0.5-0.3-0.8c0.2-0.4,0.5-0.2,0.7-0.2c1.2,0,2.4,0,3.5-0.3
			c4.3-1.2,5-5.3,3.9-8c-0.7-1.7-2.1-2.5-3.8-2.8s-3.3-0.1-4.9,0.3c-0.6,0.2-0.9,0.5-0.9,1.2c0,1.7-0.2,3.3-0.1,5
			C150.3,52.6,150.3,54.2,150.3,55.9z"/>
		<g id="XMLID_2_">
			<g>
				<path class="st3" d="M121.6,43.1c6,1.5,9.5,6.2,9.5,12.6c0,8.1-5.8,14.3-13.9,15c-2.7,0.2-5.3,0-7.8-1.1
					c-4.6-2.1-6.8-5.9-7.5-10.7c-0.4-2.5-0.2-5,0.6-7.3c1.7-4.9,5.3-7.7,10.3-8.7C115.7,42.4,118.6,42.4,121.6,43.1z M126.9,56.9
					c0-1.1-0.1-2.4-0.4-3.7c-1-4.2-3.2-7.3-7.5-8.5c-1.2-0.3-2.5-0.4-3.8-0.4c-4.2,0.1-7.5,2.4-8.8,6.4c-1.5,4.9-0.9,9.6,1.9,13.9
					c2,3.1,4.9,4.5,8.6,4.5c4.4,0,7.6-2.2,9.1-6.4C126.7,60.9,126.9,59,126.9,56.9z"/>
			</g>
		</g>
		<path class="st3" d="M45.7,43.1c4,0,7.5-0.2,10.9,0c0.7,0,0.7,0.2,0.6,0.8c-0.4,1.4-0.5,2.9-0.6,4.4c0,0.5,0,0.9-0.7,0.9
			s-0.7-0.3-0.7-0.8c0-0.6-0.1-1.3-0.1-1.9c0-0.5-0.3-0.8-0.8-1c-2.7-0.7-5.4-0.6-8.2-0.5c-0.1,0-0.3,0-0.4,0
			C44,45.1,44,45.1,44,46.9c0,2.6-0.1,5.2-0.1,7.9c0,0.5,0.1,0.8,0.7,0.8c2.3,0,4.7,0.2,7-0.1c1-0.1,1.3-0.4,1.4-1.5
			c0-0.4,0-0.9,0-1.3c0-0.6,0.3-0.6,0.7-0.6s0.7,0,0.7,0.6c-0.1,1.4-0.1,2.9-0.1,4.3c0,1.1,0.1,2.3,0.1,3.4c0,0.6-0.2,0.8-0.7,0.8
			c-0.6,0-0.7-0.2-0.7-0.8c0-0.5,0-1.1-0.1-1.7c-0.2-0.7-0.5-1.1-1.3-1.2c-2.4-0.3-4.8-0.3-7.3-0.1c-0.5,0-0.4,0.4-0.4,0.7
			c0,2.6,0,5.1,0.1,7.7c0,0.4,0,0.8,0,1.2c0,1.5,0,1.6,1.5,1.6c3,0.1,5.9,0.3,8.9-0.2c0.9-0.1,1.5-0.5,1.6-1.5
			c0.1-0.9,0.4-1.7,0.5-2.5c0.1-0.7,0.6-0.6,1-0.6c0.6,0,0.4,0.4,0.4,0.7c-0.1,1.8-0.5,3.6-0.4,5.5c0,0.4-0.3,0.4-0.6,0.5
			c-1.4,0.2-2.9,0.1-4.3,0.1c-5,0-10-0.3-15.1,0c-0.5,0-0.9,0-0.9-0.7c0-0.4,0.2-0.6,0.6-0.6c0.4,0,0.9-0.1,1.3-0.1
			c0.8,0,1.2-0.5,1.3-1.3c0.1-0.6,0.2-1.1,0.2-1.7c0-5.5,0-11,0-16.4c0-1.2-0.1-2.4-0.1-3.5c-0.1-1.2-0.4-1.5-1.6-1.6
			c-0.5,0-0.9-0.1-1.4-0.1c-0.6,0-0.9-0.2-0.8-0.9c0-0.4,0.2-0.6,0.6-0.6c0.7,0,1.5,0,2.2,0C41.3,43.2,43.8,43.1,45.7,43.1z"/>
		<path class="st3" d="M78.9,43.1c3.6-0.1,6.6-0.2,9.5-0.1c0.2,0,0.5,0,0.7,0c0.6,0,0.8,0.3,0.6,0.9c-0.3,1.5-0.5,2.9-0.5,4.4
			c0,0.4,0,0.7-0.6,0.7c-0.5,0-0.8-0.1-0.8-0.7c0-0.7-0.2-1.5-0.2-2.2c0-0.5-0.3-0.7-0.8-0.8c-1.7-0.4-3.4-0.6-5.1-0.5
			c-1.2,0-2.4,0-3.5,0.2c-0.4,0.1-0.6,0.2-0.6,0.7c-0.3,3.1-0.1,6.2-0.2,9.4c0,0.4,0.2,0.6,0.6,0.6c2.3,0.1,4.6,0,6.8-0.1
			c0.6,0,1-0.4,1.1-1s0.2-1.2,0.3-1.8c0.1-0.6,0.5-0.5,0.9-0.5c0.5,0,0.5,0.3,0.5,0.6c-0.2,2.7-0.2,5.3-0.1,8c0,0.5-0.3,0.6-0.7,0.6
			c-0.4,0-0.7-0.1-0.7-0.6c0-0.7,0-1.3-0.1-2s-0.5-1.2-1.2-1.3c-2.3-0.3-4.5-0.1-6.8-0.1c-0.4,0-0.5,0.2-0.5,0.5
			c0.1,3.3-0.2,6.6,0.2,9.9c0.1,0.8,0.5,1.2,1.3,1.3c0.5,0,1.1,0,1.7,0c0.5,0,0.6,0.2,0.6,0.7s-0.2,0.6-0.6,0.6
			c-2-0.1-4.1-0.1-6.1-0.1c-1.4,0-2.8,0.1-4.3,0.1c-0.5,0-0.7-0.1-0.7-0.6s0.1-0.7,0.6-0.7c0.7,0,1.4,0.1,2.2-0.1
			c0.5-0.1,0.9-0.4,1-1c0.2-1.3,0.2-2.5,0.2-3.8c0-5,0-10,0-15c0-1.2-0.1-2.4-0.2-3.7c-0.1-0.7-0.5-1.1-1.2-1.2
			c-0.6-0.1-1.2-0.1-1.9-0.1c-0.5,0-0.7-0.2-0.7-0.7s0.3-0.7,0.7-0.6C73.5,43.2,76.5,43.1,78.9,43.1z"/>
	</g>
	<g id="XMLID_4_">
		<g>
			<path class="st3" d="M147.5,85.3c1.4,0.1,2.1,1.2,1.6,2.6c-0.4,1.1-1.8,1.9-3,1.6c-0.2,0-0.4-0.1-0.4-0.3c0-0.3,0.3-0.2,0.5-0.2
				c0.9-0.1,1.4-0.7,1.3-1.7c-0.1-1-0.6-1.5-1.5-1.5c-0.5,0-0.8,0.2-0.8,0.7c0,0.9,0,1.9,0,2.8l0,0c0,0.8,0,1.7,0,2.5
				c0,0.6,0.1,1,0.8,1c0.2,0,0.4,0,0.4,0.3c0,0.2-0.3,0.2-0.4,0.2c-1,0-2,0-3,0c-0.2,0-0.4,0-0.5-0.3c0-0.3,0.2-0.3,0.4-0.3
				c0.5-0.1,0.6-0.3,0.6-0.7c0.1-1.8,0.1-3.7,0-5.5c0-0.4-0.1-0.8-0.6-0.8c-0.2,0-0.3-0.1-0.3-0.3c0-0.3,0.2-0.3,0.4-0.3
				C144.4,85.2,145.9,85.2,147.5,85.3z"/>
			<path class="st3" d="M140,85.7c1.3,0.8,1.8,2.1,1.7,3.6c-0.1,1.7-0.8,3.1-2.5,3.8c-1.5,0.6-3,0.6-4.5,0c-0.7-0.3-1.3-0.8-1.6-1.5
				c-1.6-2.9,0.2-6.2,3.5-6.5c0.2,0,0.4,0,0.7,0C138.2,85.1,139.1,85.2,140,85.7z M139.5,91.4c0.3-0.6,0.3-1.3,0.4-2
				c0-0.8-0.1-1.7-0.5-2.5c-0.5-1-1.4-1.4-2.4-1.3c-1,0-1.8,0.5-2.2,1.5c-0.6,1.6-0.5,3.1,0.3,4.7c0.5,1,1.4,1.3,2.4,1.2
				C138.4,92.9,139.1,92.4,139.5,91.4z"/>
			<path class="st3" d="M131.4,92.9c0.2,0,0.3,0.1,0.3,0.3c0,0.2-0.2,0.2-0.4,0.2c-0.5,0-1,0-1.5,0s-1,0-1.5,0c-0.2,0-0.4,0-0.4-0.3
				c0-0.2,0.1-0.3,0.3-0.3c0.6,0,0.7-0.4,0.7-0.9c0-0.6,0-1.2,0-1.9c0-0.4-0.1-0.6-0.5-0.6c-0.8,0-1.7,0-2.5,0
				c-0.5,0-0.6,0.2-0.6,0.6c0,0.5,0,1.1,0,1.6c0,0.6,0,1.1,0.8,1.1c0.2,0,0.3,0.1,0.3,0.3c0,0.2-0.2,0.2-0.3,0.2c-1.1,0-2.1,0-3.2,0
				c-0.2,0-0.3,0-0.3-0.2s0.1-0.3,0.3-0.3c0.6,0,0.8-0.4,0.8-1c0-1.7,0-3.4,0-5.2c0-0.5-0.1-0.9-0.7-1c-0.2,0-0.4-0.1-0.3-0.3
				c0-0.2,0.2-0.2,0.4-0.2c1,0,2.1,0,3.1,0c0.2,0,0.4,0,0.4,0.3s-0.2,0.3-0.4,0.3c-0.5,0.1-0.7,0.4-0.7,0.8c0,0.6,0,1.2,0,1.9
				c0,0.4,0.2,0.5,0.5,0.5c0.8,0,1.7,0,2.5,0c0.5,0,0.6-0.2,0.6-0.6c0-0.5,0-0.9,0-1.4c0-0.6,0-1.2-0.8-1.2c-0.2,0-0.2-0.1-0.2-0.3
				c0-0.2,0.1-0.2,0.3-0.2c1.1,0,2.2,0,3.3,0c0.1,0,0.3,0,0.3,0.2s-0.1,0.3-0.3,0.3c-0.7,0-0.8,0.6-0.8,1.1c0,1.7,0,3.3,0,5
				C130.6,92.4,130.7,92.8,131.4,92.9z"/>
			<path class="st3" d="M121.5,89.9c0.3,1,0.1,1.9-0.6,2.6c-0.8,0.8-1.8,1.1-2.9,1.1c-0.3,0-0.5,0-0.8-0.1c-1.6-0.2-1.8-0.6-1.5-2.2
				c0-0.2,0.1-0.3,0.3-0.3c0.2,0,0.2,0.2,0.2,0.3c0.3,1.4,1.9,2.1,3.1,1.4c0.6-0.4,0.8-0.9,0.7-1.6c-0.1-0.6-0.5-0.9-1.1-1
				c-0.5-0.1-1.1-0.2-1.6-0.3c-1.2-0.3-1.7-0.8-1.8-1.9c-0.1-1,0.5-2.1,1.4-2.5c1.2-0.5,2.5-0.4,3.7,0c0.3,0.1,0.4,0.3,0.3,0.6
				c-0.1,0.4-0.1,0.7-0.1,1.1c0,0.2,0,0.3-0.2,0.3c-0.3,0-0.3-0.1-0.3-0.3c0-0.4-0.1-0.9-0.6-1.1c-0.6-0.3-1.2-0.4-1.9-0.1
				c-0.6,0.2-0.9,0.7-0.9,1.3c0,0.6,0.4,1,1,1.1c0.5,0.1,1.1,0.2,1.6,0.3C120.5,88.7,121.2,89,121.5,89.9z"/>
			<path class="st3" d="M114.4,92.8c0.2,0.1,0.3,0.1,0.3,0.4c-0.1,0.2-0.3,0.2-0.4,0.2c0,0,0,0-0.1,0c-1.2,0.2-2.1-0.2-2.7-1.4
				c-0.4-0.9-1-1.6-1.6-2.4c-0.2-0.3-0.2-0.5,0.2-0.5c1.2-0.2,1.8-1.1,1.5-2.2c-0.2-0.8-1.4-1.4-2.1-1.1c-0.2,0.1-0.2,0.3-0.2,0.5
				c0,0.5,0,1,0,1.5s0,1-0.1,1.5c0,0.9,0.1,1.8,0.1,2.7c0,0.5,0.1,0.8,0.6,0.9c0.2,0,0.3,0.1,0.3,0.3c0,0.2-0.2,0.2-0.4,0.2
				c-1,0-2,0-2.9,0c-0.2,0-0.4,0-0.4-0.3c0-0.2,0.1-0.3,0.3-0.3c0.6-0.1,0.6-0.5,0.6-0.9c0-1.7,0-3.4,0-5.2c0-0.5,0-0.9-0.6-1
				c-0.2,0-0.3-0.1-0.3-0.3c0-0.2,0.2-0.2,0.3-0.2c1.7,0,3.3,0,5,0c0.7,0,1.2,0.4,1.4,1.1c0.2,0.8,0,1.6-0.7,2.2
				c-0.3,0.3-0.9,0.3-0.9,0.7c0,0.3,0.4,0.7,0.6,1c0.4,0.6,0.8,1.2,1.3,1.8C113.9,92.4,114,92.7,114.4,92.8z"/>
			<path class="st3" d="M105.5,91.6c0.3,0,0.2,0.2,0.2,0.4c0,0,0,0,0,0.1c0,1.4,0,1.4-1.4,1.4s-2.8,0-4.2,0c-0.2,0-0.4,0.1-0.5-0.1
				s0.1-0.3,0.3-0.3c0.2-0.1,0.2-0.4,0.2-0.6c0.1-2,0.1-3.9,0.1-5.9c0-0.4-0.2-0.6-0.6-0.6c-0.2,0-0.4,0-0.4-0.3s0.3-0.3,0.5-0.3
				c0.9,0,1.7,0,2.6,0s1.7,0,2.6,0c0.5,0,0.7,0.2,0.6,0.6c0,0.2,0,0.3-0.1,0.5c0,0.2,0,0.5-0.2,0.5c-0.3,0-0.3-0.3-0.3-0.5
				c0-0.3-0.2-0.4-0.5-0.5c-0.7-0.1-1.4-0.1-2.1-0.1c-0.3,0-0.4,0.2-0.4,0.5c0,0.8,0,1.5,0,2.3c0,0.1,0,0.3,0.1,0.4
				c0.4,0.2,0.9,0.1,1.3,0.1c0.5,0,0.9,0,0.9-0.6c0-0.2,0.1-0.3,0.3-0.3c0.2,0,0.2,0.2,0.2,0.3c0,0.6,0,1.2,0,1.7
				c0,0.2,0,0.4-0.2,0.4c-0.3,0-0.3-0.2-0.3-0.4c0-0.6-0.5-0.7-0.9-0.7c-1.5,0-1.4-0.2-1.4,1.3c0,0.5,0,1,0,1.5
				c0,0.3,0.1,0.5,0.5,0.5s0.9,0,1.3,0c0.7,0,1.4-0.1,1.4-1C105.2,91.7,105.3,91.5,105.5,91.6z"/>
			<path class="st3" d="M96.1,88.9c1.7,0.3,2.4,1.1,2.1,2.3c-0.2,1.1-0.9,1.8-2,2c-1.3,0.3-2.7,0.1-4.1,0.1c-0.3,0-0.4-0.2-0.2-0.4
				c0.3-0.2,0.3-0.5,0.3-0.8c0-1.8,0.1-3.7,0-5.5c0-0.5-0.1-0.9-0.7-0.9c-0.2,0-0.3-0.1-0.3-0.3c0-0.3,0.2-0.3,0.4-0.3
				c1.5,0,3,0,4.5,0c1,0,1.6,0.6,1.8,1.3c0.2,0.8-0.3,1.6-1.2,2C96.5,88.7,96.4,88.8,96.1,88.9z M96.4,91c0-1.2-0.6-1.8-1.8-1.8
				c-0.4,0-0.5,0.1-0.5,0.5c0,0.8,0,1.6,0,2.5c0,0.5,0.3,0.6,0.7,0.6C95.8,92.9,96.4,92.2,96.4,91z M94.7,88.7
				c1.2-0.1,1.8-1.3,1.3-2.3c-0.2-0.4-1-0.7-1.6-0.6c-0.5,0.2-0.2,0.6-0.3,0.9c0,0.2,0,0.4,0,0.5l0,0c0,0.3,0,0.6,0,0.9
				C94,88.6,94.2,88.7,94.7,88.7z"/>
			<path class="st3" d="M90.5,92.9c0.2,0.1,0.2,0.2,0.2,0.3c0,0.2-0.2,0.2-0.3,0.2c-0.6,0-1.2,0-1.7,0c-0.2,0-0.4-0.2-0.5-0.3
				c-0.8-1.1-1.5-2.3-2.3-3.4c-0.3-0.4-0.2-0.5,0.3-0.6c1.2-0.2,1.8-1.2,1.4-2.3c-0.2-0.7-1.4-1.2-2.1-1c-0.3,0.1-0.2,0.4-0.2,0.6
				c0,1,0,1.9,0,2.9c-0.1,0.9,0,1.9,0,2.8c0,0.4,0.1,0.7,0.6,0.8c0.2,0,0.4,0.1,0.3,0.3c0,0.3-0.2,0.2-0.4,0.2c-1,0-1.9,0-2.9,0
				c-0.2,0-0.4,0-0.4-0.2c0-0.3,0.2-0.3,0.3-0.3c0.5-0.1,0.6-0.4,0.6-0.8c0-1.8,0-3.5,0-5.3c0-0.5,0-0.9-0.6-0.9
				c-0.2,0-0.3-0.1-0.3-0.3c0-0.3,0.2-0.3,0.4-0.3c1.6,0,3.2,0,4.8,0c0.7,0,1.3,0.4,1.6,1.1c0.3,0.8,0,1.6-0.7,2.2
				c-0.3,0.2-0.9,0.2-0.8,0.7c0,0.3,0.4,0.6,0.6,0.9c0.4,0.5,0.7,1.1,1.1,1.6C89.8,92.3,90,92.7,90.5,92.9z"/>
			<path class="st3" d="M81.8,92.9c0.2,0,0.3,0.2,0.2,0.3c0,0.2-0.2,0.2-0.3,0.2c-0.5,0-1,0-1.5,0s-1,0-1.5,0c-0.2,0-0.3,0-0.3-0.2
				s0.1-0.3,0.3-0.3c0.6-0.1,0.6-0.4,0.4-0.8V92c-0.4-1-0.4-1-1.5-1c-0.3,0-0.6,0-0.9,0c-1.1,0-1,0-1.4,1c-0.2,0.5-0.2,0.9,0.5,1
				c0.2,0,0.3,0.1,0.3,0.3c0,0.2-0.2,0.2-0.3,0.2c-0.7,0-1.3,0-2,0c-0.2,0-0.4,0-0.4-0.3c0-0.2,0.1-0.3,0.3-0.3
				c0.5-0.1,0.6-0.5,0.8-0.8c0.9-2,1.7-4.1,2.6-6.1c0.1-0.3,0.2-0.7,0.7-0.7s0.6,0.4,0.7,0.7c0.9,2,1.7,4,2.6,6
				C81.1,92.4,81.3,92.8,81.8,92.9z M77.7,90.3c0.3,0,0.5-0.1,0.3-0.4c-0.3-0.8-0.6-1.6-1-2.4c-0.3,0.4-0.4,0.8-0.6,1.2
				C75.7,90.6,75.3,90.3,77.7,90.3z"/>
			<path class="st3" d="M72.2,90.6c0.1,1-0.4,2-1.5,2.5c-0.6,0.3-1.1,0.4-1.8,0.4c-0.9,0-1.9,0-2.8,0c-0.1,0-0.3,0-0.3-0.1
				s0-0.2,0.1-0.3c0.2-0.2,0.3-0.4,0.3-0.7c0.1-1.9,0.1-3.7,0-5.6c0-0.5-0.1-0.8-0.7-0.9c-0.2,0-0.3-0.1-0.3-0.3
				c0-0.2,0.2-0.2,0.4-0.2c1.5,0,3,0,4.5,0c1,0,1.6,0.6,1.7,1.4s-0.3,1.5-1.2,2c-0.2,0.1-0.4,0.2-0.6,0.3c0.1,0.1,0.1,0.1,0.1,0.1
				C71.5,89.2,72.1,89.6,72.2,90.6z M68.9,92.9c1-0.1,1.5-0.8,1.5-1.9c0-1-0.5-1.6-1.5-1.7c-0.5,0-0.9,0-0.8,0.7c0,0.4,0,0.7,0,1.1
				s0,0.8,0,1.1C68,92.8,68.4,92.9,68.9,92.9z M68.7,88.7c1.2-0.1,1.8-1.3,1.2-2.3c-0.2-0.4-1.1-0.7-1.6-0.6
				c-0.5,0.2-0.2,0.6-0.3,0.9c0,0.2,0,0.4,0,0.5l0,0c0,0.3,0,0.6,0,0.9C68,88.6,68.3,88.8,68.7,88.7z"/>
		</g>
	</g>
	<rect x="164" y="89.3" class="st3" width="28.3" height="1.4"/>
	<rect x="22.2" y="89.3" class="st3" width="28.3" height="1.4"/>
</g>
</svg>
