<?xml version="1.0" encoding="utf-8"?>
<!-- Generator: Adobe Illustrator 23.0.1, SVG Export Plug-In . SVG Version: 6.00 Build 0)  -->
<svg version="1.1" xmlns="http://www.w3.org/2000/svg" xmlns:xlink="http://www.w3.org/1999/xlink" x="0px" y="0px"
	 viewBox="0 0 220.3 99.2" style="enable-background:new 0 0 220.3 99.2;" xml:space="preserve">
<style type="text/css">
	.st0{display:none;}
	.st1{display:inline;}
	.st2{fill:#010101;}
</style>
<g id="Logo_1_" class="st0">
	<g class="st1">
		<g id="XMLID_3_">
			<g>
				<path class="st2" d="M689.8,192.7v26.9c0,3.1-2.5,5.7-5.7,5.7H525.4c-3.1,0-5.7-2.5-5.7-5.7v-26.9c0-0.8,0.6-1.4,1.4-1.4h8.5
					c0.8,0,1.4,0.6,1.4,1.4v19.8c0,0.8,0.6,1.4,1.4,1.4h1.4h2.8h2.8h2.8h2.8h2.8h2.8h2.8h2.8h2.8h2.8h2.8h2.8h2.8h2.8h2.8h2.8h2.8
					h2.8h2.8h2.8h2.8h2.8h2.8h2.8h2.8l2.8,0h2.8h2.8h2.8h2.8h2.8h2.8h2.8h2.8h2.8h2.8h2.8h2.8h2.8h2.8h2.8h2.8h2.8h2.8h2.8h2.8h2.8
					h2.8h2.8h2.8h2.8h1.4c0.8,0,1.4-0.6,1.4-1.4v-19.8c0-0.8,0.6-1.4,1.4-1.4h5.7C689.1,191.3,689.8,192,689.8,192.7z"/>
				<path class="st2" d="M678.4,214L678.4,214l-2.8,0v0v-21.3c0-0.8,0.6-1.4,1.4-1.4c0.8,0,1.4,0.6,1.4,1.4V214z"/>
				<path class="st2" d="M672.8,214L672.8,214l-2.8,0v0v-21.3c0-0.8,0.6-1.4,1.4-1.4c0.8,0,1.4,0.6,1.4,1.4V214z"/>
				<path class="st2" d="M667.1,214L667.1,214l-2.8,0v0v-21.3c0-0.8,0.6-1.4,1.4-1.4c0.8,0,1.4,0.6,1.4,1.4V214z"/>
				<path class="st2" d="M661.4,214L661.4,214l-2.8,0v0v-21.3c0-0.8,0.6-1.4,1.4-1.4c0.8,0,1.4,0.6,1.4,1.4V214z"/>
				<path class="st2" d="M655.7,214L655.7,214l-2.8,0v0v-21.3c0-0.8,0.6-1.4,1.4-1.4c0.8,0,1.4,0.6,1.4,1.4V214z"/>
				<path class="st2" d="M650.1,214L650.1,214l-2.8,0v0v-21.3c0-0.8,0.6-1.4,1.4-1.4c0.8,0,1.4,0.6,1.4,1.4V214z"/>
				<path class="st2" d="M644.4,214L644.4,214l-2.8,0v0v-21.3c0-0.8,0.6-1.4,1.4-1.4c0.8,0,1.4,0.6,1.4,1.4V214z"/>
				<path class="st2" d="M638.7,214L638.7,214l-2.8,0v0v-21.3c0-0.8,0.6-1.4,1.4-1.4c0.8,0,1.4,0.6,1.4,1.4V214z"/>
				<path class="st2" d="M633.1,214L633.1,214l-2.8,0v0v-21.3c0-0.8,0.6-1.4,1.4-1.4c0.8,0,1.4,0.6,1.4,1.4V214z"/>
				<path class="st2" d="M627.4,214L627.4,214l-2.8,0v0v-21.3c0-0.8,0.6-1.4,1.4-1.4c0.8,0,1.4,0.6,1.4,1.4V214z"/>
				<path class="st2" d="M621.7,214L621.7,214l-2.8,0v0v-21.3c0-0.8,0.6-1.4,1.4-1.4c0.8,0,1.4,0.6,1.4,1.4V214z"/>
				<path class="st2" d="M616.1,214L616.1,214l-2.8,0v0v-21.3c0-0.8,0.6-1.4,1.4-1.4c0.8,0,1.4,0.6,1.4,1.4V214z"/>
				<path class="st2" d="M610.4,214L610.4,214l-2.8,0v0v-21.3c0-0.8,0.6-1.4,1.4-1.4c0.8,0,1.4,0.6,1.4,1.4V214z"/>
				<path class="st2" d="M604.7,192.7V214h-2.8v-21.3c0-0.8,0.6-1.4,1.4-1.4C604.1,191.3,604.7,192,604.7,192.7z"/>
				<path class="st2" d="M599.1,192.7V214h-2.8v-21.3c0-0.8,0.6-1.4,1.4-1.4C598.4,191.3,599.1,192,599.1,192.7z"/>
				<path class="st2" d="M593.4,192.7V214h-2.8v-21.3c0-0.8,0.6-1.4,1.4-1.4C592.8,191.3,593.4,192,593.4,192.7z"/>
				<path class="st2" d="M587.7,192.7V214h-2.8v-21.3c0-0.8,0.6-1.4,1.4-1.4C587.1,191.3,587.7,192,587.7,192.7z"/>
				<path class="st2" d="M582,192.7V214h-2.8v-21.3c0-0.8,0.6-1.4,1.4-1.4C581.4,191.3,582,192,582,192.7z"/>
				<path class="st2" d="M576.4,192.7V214h-2.8v-21.3c0-0.8,0.6-1.4,1.4-1.4C575.7,191.3,576.4,192,576.4,192.7z"/>
				<path class="st2" d="M570.7,192.7V214h-2.8v-21.3c0-0.8,0.6-1.4,1.4-1.4C570.1,191.3,570.7,192,570.7,192.7z"/>
				<path class="st2" d="M565,192.7V214h-2.8v-21.3c0-0.8,0.6-1.4,1.4-1.4C564.4,191.3,565,192,565,192.7z"/>
				<path class="st2" d="M559.4,192.7V214h-2.8v-21.3c0-0.8,0.6-1.4,1.4-1.4S559.4,192,559.4,192.7z"/>
				<path class="st2" d="M553.7,192.7V214h-2.8v-21.3c0-0.8,0.6-1.4,1.4-1.4C553.1,191.3,553.7,192,553.7,192.7z"/>
				<path class="st2" d="M548,192.7V214h-2.8v-21.3c0-0.8,0.6-1.4,1.4-1.4C547.4,191.3,548,192,548,192.7z"/>
				<path class="st2" d="M542.4,192.7V214h-2.8v-21.3c0-0.8,0.6-1.4,1.4-1.4S542.4,192,542.4,192.7z"/>
				<path class="st2" d="M536.7,192.7V214h-2.8v-21.3c0-0.8,0.6-1.4,1.4-1.4C536.1,191.3,536.7,192,536.7,192.7z"/>
			</g>
			<g>
			</g>
		</g>
	</g>
	<text transform="matrix(1 0 0 1 491.3387 271.8198)" class="st1" style="font-family:'BookAntiqua'; font-size:41.345px;">R E F O R M</text>
	<text transform="matrix(1 0 0 1 562.2041 299.224)" class="st1" style="font-family:'BookAntiqua-Bold'; font-size:12.0543px;">BARBERSHOP</text>
	<rect x="661.4" y="295.5" class="st1" width="28.3" height="1.4"/>
	<rect x="519.7" y="295.5" class="st1" width="28.3" height="1.4"/>
	<g class="st1">
		<g id="XMLID_1_">
			<g>
				<path class="st2" d="M628.3,18.9L628.3,18.9l-2.4,0v0V1.2c0-0.7,0.5-1.2,1.2-1.2s1.2,0.5,1.2,1.2V18.9z"/>
				<path class="st2" d="M623.6,18.9L623.6,18.9l-2.4,0v0V1.2c0-0.7,0.5-1.2,1.2-1.2c0.7,0,1.2,0.5,1.2,1.2V18.9z"/>
				<path class="st2" d="M618.9,18.9L618.9,18.9l-2.4,0v0V1.2c0-0.7,0.5-1.2,1.2-1.2c0.7,0,1.2,0.5,1.2,1.2V18.9z"/>
				<path class="st2" d="M614.2,18.9L614.2,18.9l-2.4,0v0V1.2c0-0.7,0.5-1.2,1.2-1.2s1.2,0.5,1.2,1.2V18.9z"/>
				<path class="st2" d="M609.4,18.9L609.4,18.9l-2.4,0v0V1.2c0-0.7,0.5-1.2,1.2-1.2c0.7,0,1.2,0.5,1.2,1.2V18.9z"/>
				<path class="st2" d="M604.7,18.9L604.7,18.9l-2.4,0v0V1.2c0-0.7,0.5-1.2,1.2-1.2c0.7,0,1.2,0.5,1.2,1.2V18.9z"/>
				<path class="st2" d="M600,18.9L600,18.9l-2.4,0v0V1.2c0-0.7,0.5-1.2,1.2-1.2s1.2,0.5,1.2,1.2V18.9z"/>
				<path class="st2" d="M595.3,18.9L595.3,18.9l-2.4,0v0V1.2c0-0.7,0.5-1.2,1.2-1.2c0.7,0,1.2,0.5,1.2,1.2V18.9z"/>
				<path class="st2" d="M590.6,18.9L590.6,18.9l-2.4,0v0V1.2c0-0.7,0.5-1.2,1.2-1.2c0.7,0,1.2,0.5,1.2,1.2V18.9z"/>
				<path class="st2" d="M583.5,1.2c0-0.7,0.5-1.2,1.2-1.2c0.7,0,1.2,0.5,1.2,1.2v17.7v0h-2.4v0V1.2z"/>
				<path class="st2" d="M578.7,18.9L578.7,18.9V1.2c0-0.7,0.5-1.2,1.2-1.2c0.7,0,1.2,0.5,1.2,1.2v17.7v0H578.7z"/>
				<path class="st2" d="M574,1.2c0-0.7,0.5-1.2,1.2-1.2c0.7,0,1.2,0.5,1.2,1.2v17.7v0H574v0V1.2z"/>
				<path class="st2" d="M569.3,18.9L569.3,18.9V1.2c0-0.7,0.5-1.2,1.2-1.2c0.7,0,1.2,0.5,1.2,1.2v17.7v0H569.3z"/>
				<path class="st2" d="M564.6,18.9V1.2c0-0.7,0.5-1.2,1.2-1.2c0.7,0,1.2,0.5,1.2,1.2v17.7H564.6z"/>
				<path class="st2" d="M559.8,18.9V1.2c0-0.7,0.5-1.2,1.2-1.2s1.2,0.5,1.2,1.2v17.7H559.8z"/>
				<path class="st2" d="M555.1,18.9V1.2c0-0.7,0.5-1.2,1.2-1.2c0.7,0,1.2,0.5,1.2,1.2v17.7H555.1z"/>
				<path class="st2" d="M550.4,18.9V1.2c0-0.7,0.5-1.2,1.2-1.2c0.7,0,1.2,0.5,1.2,1.2v17.7H550.4z"/>
				<path class="st2" d="M545.7,18.9V1.2c0-0.7,0.5-1.2,1.2-1.2s1.2,0.5,1.2,1.2v17.7H545.7z"/>
				<path class="st2" d="M540.9,18.9V1.2c0-0.7,0.5-1.2,1.2-1.2c0.7,0,1.2,0.5,1.2,1.2v17.7H540.9z"/>
				<path class="st2" d="M536.2,18.9V1.2c0-0.7,0.5-1.2,1.2-1.2c0.7,0,1.2,0.5,1.2,1.2v17.7H536.2z"/>
				<path class="st2" d="M531.5,18.9V1.2c0-0.7,0.5-1.2,1.2-1.2s1.2,0.5,1.2,1.2v17.7H531.5z"/>
				<path class="st2" d="M526.8,18.9V1.2c0-0.7,0.5-1.2,1.2-1.2c0.7,0,1.2,0.5,1.2,1.2v17.7H526.8z"/>
				<path class="st2" d="M522,18.9V1.2c0-0.7,0.5-1.2,1.2-1.2c0.7,0,1.2,0.5,1.2,1.2v17.7H522z"/>
				<path class="st2" d="M517.3,18.9V1.2c0-0.7,0.5-1.2,1.2-1.2c0.7,0,1.2,0.5,1.2,1.2v17.7H517.3z"/>
				<path class="st2" d="M512.6,18.9V1.2c0-0.7,0.5-1.2,1.2-1.2c0.7,0,1.2,0.5,1.2,1.2v17.7H512.6z"/>
				<path class="st2" d="M510.2,18.9h-2.4V1.2c0-0.7,0.5-1.2,1.2-1.2c0.7,0,1.2,0.5,1.2,1.2V18.9z"/>
				<path class="st2" d="M496.1,1.2c0-0.7,0.5-1.2,1.2-1.2h7.1c0.7,0,1.2,0.5,1.2,1.2v16.5c0,0.7,0.5,1.2,1.2,1.2h1.2h2.4h2.4h2.4
					h2.4h2.4h2.4h2.4h2.4h2.4h2.4h2.4h2.4h2.4h2.4h2.4h2.4h2.4h2.4h2.4h2.4h2.4h2.4h2.4h2.4h2.4l2.4,0h2.4h2.4h2.4h2.4h2.4h2.4h2.4
					h2.4h2.4h2.4h2.4h2.4h2.4h2.4h2.4h2.4h2.4h2.4h2.4h2.4h2.4h2.4h2.4h2.4h2.4h1.2c0.7,0,1.2-0.5,1.2-1.2V1.2
					c0-0.7,0.5-1.2,1.2-1.2h4.7c0.7,0,1.2,0.5,1.2,1.2v22.4c0,2.6-2.1,4.7-4.7,4.7H500.8c-2.6,0-4.7-2.1-4.7-4.7V1.2z"/>
			</g>
			<g>
			</g>
		</g>
	</g>
	<text transform="matrix(1 0 0 1 466.1035 66.5177)" class="st1" style="font-family:'BookAntiqua'; font-size:36.7651px;">R E F O R M</text>
	<text transform="matrix(1 0 0 1 524.5048 95.154)" class="st1" style="font-family:'BookAntiqua-Bold'; font-size:12.0273px;">BARBERSHOP</text>
	<rect x="623.6" y="90.7" class="st1" width="28.3" height="1.4"/>
	<rect x="481.9" y="90.7" class="st1" width="28.3" height="1.4"/>
</g>
<g id="Layer_2">
	<g>
		<g id="XMLID_5_">
			<g>
				<path class="st2" d="M181,4v22.4c0,2.6-2.1,4.7-4.7,4.7H44c-2.6,0-4.7-2.1-4.7-4.7V4c0-0.7,0.5-1.2,1.2-1.2h7.1
					c0.7,0,1.2,0.5,1.2,1.2v16.5c0,0.7,0.5,1.2,1.2,1.2h1.2h2.4h2.4h2.4h2.4h2.4h2.4h2.4H70h2.4h2.4h2.4h2.4h2.4h2.4h2.4h2.4h2.4
					h2.4H96h2.4h2.4h2.4h2.4h2.4h2.4l2.4,0h2.4h2.4h2.4h2.4h2.4h2.4h2.4h2.4h2.4h2.4h2.4h2.4h2.4h2.4h2.4h2.4h2.4h2.4h2.4h2.4h2.4
					h2.4h2.4h2.4h2.4h1.2c0.7,0,1.2-0.5,1.2-1.2V4c0-0.7,0.5-1.2,1.2-1.2h4.7C180.5,2.8,181,3.4,181,4z"/>
				<path class="st2" d="M171.6,21.7L171.6,21.7l-2.4,0v0V4c0-0.7,0.5-1.2,1.2-1.2s1.2,0.5,1.2,1.2V21.7z"/>
				<path class="st2" d="M166.9,21.7L166.9,21.7l-2.4,0v0V4c0-0.7,0.5-1.2,1.2-1.2c0.7,0,1.2,0.5,1.2,1.2V21.7z"/>
				<path class="st2" d="M162.1,21.7L162.1,21.7l-2.4,0v0V4c0-0.7,0.5-1.2,1.2-1.2c0.7,0,1.2,0.5,1.2,1.2V21.7z"/>
				<path class="st2" d="M157.4,21.7L157.4,21.7l-2.4,0v0V4c0-0.7,0.5-1.2,1.2-1.2c0.7,0,1.2,0.5,1.2,1.2V21.7z"/>
				<path class="st2" d="M152.7,21.7L152.7,21.7l-2.4,0v0V4c0-0.7,0.5-1.2,1.2-1.2c0.7,0,1.2,0.5,1.2,1.2V21.7z"/>
				<path class="st2" d="M148,21.7L148,21.7l-2.4,0v0V4c0-0.7,0.5-1.2,1.2-1.2c0.7,0,1.2,0.5,1.2,1.2V21.7z"/>
				<path class="st2" d="M143.2,21.7L143.2,21.7l-2.4,0v0V4c0-0.7,0.5-1.2,1.2-1.2s1.2,0.5,1.2,1.2V21.7z"/>
				<path class="st2" d="M138.5,21.7L138.5,21.7l-2.4,0v0V4c0-0.7,0.5-1.2,1.2-1.2c0.7,0,1.2,0.5,1.2,1.2V21.7z"/>
				<path class="st2" d="M133.8,21.7L133.8,21.7l-2.4,0v0V4c0-0.7,0.5-1.2,1.2-1.2c0.7,0,1.2,0.5,1.2,1.2V21.7z"/>
				<path class="st2" d="M129.1,21.7L129.1,21.7l-2.4,0v0V4c0-0.7,0.5-1.2,1.2-1.2c0.7,0,1.2,0.5,1.2,1.2V21.7z"/>
				<path class="st2" d="M124.3,21.7L124.3,21.7l-2.4,0v0V4c0-0.7,0.5-1.2,1.2-1.2c0.7,0,1.2,0.5,1.2,1.2V21.7z"/>
				<path class="st2" d="M119.6,21.7L119.6,21.7l-2.4,0v0V4c0-0.7,0.5-1.2,1.2-1.2c0.7,0,1.2,0.5,1.2,1.2V21.7z"/>
				<path class="st2" d="M114.9,21.7L114.9,21.7l-2.4,0v0V4c0-0.7,0.5-1.2,1.2-1.2c0.7,0,1.2,0.5,1.2,1.2V21.7z"/>
				<path class="st2" d="M110.2,4v17.7h-2.4V4c0-0.7,0.5-1.2,1.2-1.2C109.6,2.8,110.2,3.4,110.2,4z"/>
				<path class="st2" d="M105.4,4v17.7h-2.4V4c0-0.7,0.5-1.2,1.2-1.2C104.9,2.8,105.4,3.4,105.4,4z"/>
				<path class="st2" d="M100.7,4v17.7h-2.4V4c0-0.7,0.5-1.2,1.2-1.2C100.2,2.8,100.7,3.4,100.7,4z"/>
				<path class="st2" d="M96,4v17.7h-2.4V4c0-0.7,0.5-1.2,1.2-1.2C95.5,2.8,96,3.4,96,4z"/>
				<path class="st2" d="M91.3,4v17.7h-2.4V4c0-0.7,0.5-1.2,1.2-1.2C90.7,2.8,91.3,3.4,91.3,4z"/>
				<path class="st2" d="M86.5,4v17.7h-2.4V4c0-0.7,0.5-1.2,1.2-1.2C86,2.8,86.5,3.4,86.5,4z"/>
				<path class="st2" d="M81.8,4v17.7h-2.4V4c0-0.7,0.5-1.2,1.2-1.2C81.3,2.8,81.8,3.4,81.8,4z"/>
				<path class="st2" d="M77.1,4v17.7h-2.4V4c0-0.7,0.5-1.2,1.2-1.2C76.6,2.8,77.1,3.4,77.1,4z"/>
				<path class="st2" d="M72.4,4v17.7H70V4c0-0.7,0.5-1.2,1.2-1.2C71.8,2.8,72.4,3.4,72.4,4z"/>
				<path class="st2" d="M67.6,4v17.7h-2.4V4c0-0.7,0.5-1.2,1.2-1.2C67.1,2.8,67.6,3.4,67.6,4z"/>
				<path class="st2" d="M62.9,4v17.7h-2.4V4c0-0.7,0.5-1.2,1.2-1.2C62.4,2.8,62.9,3.4,62.9,4z"/>
				<path class="st2" d="M58.2,4v17.7h-2.4V4c0-0.7,0.5-1.2,1.2-1.2C57.7,2.8,58.2,3.4,58.2,4z"/>
				<path class="st2" d="M53.5,4v17.7h-2.4V4c0-0.7,0.5-1.2,1.2-1.2C52.9,2.8,53.5,3.4,53.5,4z"/>
			</g>
			<g>
			</g>
		</g>
	</g>
	<g>
		<path class="st2" d="M199.6,67.4c0.3-0.2,0.4-0.6,0.5-0.9c3.3-6.6,6.4-13.3,9.4-20c0.3-0.6,0.5-0.7,1.2-0.7c2,0.1,4,0.1,6-0.1
			c0.5,0,0.8,0.1,0.8,0.7c0,0.4-0.2,0.6-0.6,0.6c-0.6,0-1.2,0-1.8,0.1c-0.7,0.1-1,0.4-1.2,1.2c-0.2,1.1-0.1,2.3-0.1,3.4
			c0,5.5,0,11,0,16.4c0,0.8,0.1,1.6,0.2,2.4c0.1,0.9,0.4,1.1,1.2,1.3c0.5,0.1,1.1,0.1,1.6,0.1c0.5,0,0.6,0.2,0.6,0.6
			c0,0.4-0.1,0.7-0.6,0.6c-3.2-0.2-6.4-0.2-9.7,0c-0.5,0-0.6-0.2-0.6-0.6c0-0.5,0.1-0.7,0.6-0.7c0.4,0,0.9,0,1.3,0
			c1-0.1,1.3-0.5,1.4-1.4c0.1-1,0.1-2,0.1-3c0-5.5,0-10.9,0-16.4c0-0.2,0-0.4,0-0.6c-0.3,0-0.3,0.3-0.4,0.5
			c-3.5,7.3-7.1,14.5-10.2,21.9c-0.1,0.3-0.2,0.7-0.7,0.7c-0.5,0-0.6-0.4-0.8-0.7c-3.2-7-6.6-14-9.9-20.9c-0.1-0.3-0.2-0.6-0.5-0.8
			c-0.2,0.2-0.1,0.4-0.1,0.7c0,5.6,0,11.2,0,16.8c0,0.6,0.1,1.2,0.2,1.9c0.1,0.7,0.5,1.1,1.2,1.2c0.6,0.1,1.1,0.2,1.7,0.1
			c0.5,0,0.6,0.2,0.6,0.7c0,0.5-0.1,0.7-0.6,0.6c-2.7-0.3-5.3-0.1-8,0c-0.5,0-0.7-0.1-0.7-0.7c0-0.5,0.2-0.7,0.7-0.7
			c0.4,0,0.7,0,1.1,0c1.2-0.1,1.6-0.5,1.7-1.7c0.2-1.8,0.3-3.6,0.2-5.5c0-5.2,0.1-10.3-0.1-15.5c-0.1-1.6-0.4-2-2-2.2
			c-0.3,0-0.6,0-0.9,0c-0.5,0-0.8-0.1-0.8-0.7c0-0.7,0.4-0.6,0.8-0.6c2.1,0.1,4.1,0.2,6.2,0c0.5,0,0.6,0.3,0.7,0.6
			c1.6,3.3,3.1,6.7,4.7,10c1.7,3.5,3.4,7,5.1,10.4C199.3,67,199.4,67.2,199.6,67.4z"/>
		<path class="st2" d="M10.3,59.6c0,3.4-0.1,6.9,0.1,10.3c0.1,1.6,0.5,2,2.1,2.1c0.4,0,0.7,0,1.1,0c0.6-0.1,0.7,0.2,0.7,0.7
			c0,0.6-0.3,0.6-0.7,0.6c-3.3-0.3-6.6-0.1-9.9,0c-0.6,0-0.8-0.1-0.8-0.8C2.9,72.1,3,72,3.4,72c0.6,0,1.2,0,1.9-0.1
			c0.7-0.1,1-0.5,1.1-1.2c0.2-2,0.1-4,0.2-6c0-4.5,0-8.9,0-13.4c0-0.9,0-1.9-0.1-2.8c-0.1-0.8-0.4-1.2-1.2-1.3
			c-0.4-0.1-0.9-0.1-1.4-0.1c-0.5,0-1,0.1-1-0.7c0-0.8,0.6-0.6,1-0.6c1.3,0,2.5,0.1,3.8,0.1c2.7,0,5.5-0.1,8.2-0.1
			c1.3,0,2.5,0,3.8,0.3c5.2,1,5.9,5.8,4.1,9c-1.3,2.3-3.3,3.5-5.7,4.1c-1,0.3-1,0.3-0.4,1.1c2.6,3.7,5.5,7.3,8.3,10.8
			c0.4,0.5,0.9,0.9,1.5,0.9c0.6,0,0.3,0.5,0.4,0.8c0,0.3-0.1,0.5-0.5,0.4c-1.4-0.1-2.9-0.2-4.3,0c-0.4,0.1-0.6-0.3-0.8-0.5
			c-2.5-3.4-5-6.8-7.5-10.1c-0.8-1.1-1.7-2.1-2.6-3.1c-0.2-0.2-0.4-0.5-0.3-0.8c0.2-0.4,0.5-0.3,0.7-0.3c1.2,0,2.4,0,3.5-0.3
			c4.3-1.2,5.1-5.4,3.9-8.1c-0.9-2-2.7-2.7-4.7-2.8c-1.4-0.1-2.8,0.1-4.1,0.5c-0.4,0.1-0.6,0.3-0.7,0.8c-0.1,1.8-0.2,3.5-0.2,5.3
			C10.2,55.7,10.3,57.7,10.3,59.6z"/>
		<path class="st2" d="M153.2,58.7c0,3,0,6,0,8.9c0,1,0.1,2,0.1,3c0,0.7,0.4,1.2,1.2,1.3c0.6,0.1,1.3,0.1,1.9,0.1
			c0.5,0,0.7,0.2,0.7,0.7c0,0.5-0.1,0.7-0.6,0.6c-3.4-0.3-6.7-0.1-10.1,0c-0.5,0-0.7-0.1-0.7-0.6c0-0.5,0.2-0.7,0.7-0.7
			c0.6,0,1.2,0,1.9-0.1c0.7-0.1,1-0.5,1-1.2c0.1-1,0.1-2,0.1-3c0-5.2,0-10.3,0-15.5c0-1.2-0.1-2.4-0.2-3.5c-0.1-1-0.4-1.3-1.4-1.5
			c-0.5-0.1-1.1-0.1-1.6-0.1c-0.5,0-0.6-0.2-0.6-0.6c0-0.4,0.1-0.7,0.6-0.7c1.2,0.1,2.4,0.1,3.5,0.1c3,0.1,6-0.2,8.9-0.2
			c1.3,0,2.5,0,3.8,0.3c4.2,0.8,6.2,4.8,4.3,8.6c-0.8,1.6-2.1,2.8-3.7,3.6c-0.8,0.4-1.6,0.7-2.4,0.9c-0.6,0.1-0.8,0.3-0.3,0.9
			c2.7,3.7,5.6,7.4,8.4,11c0.4,0.5,0.9,1,1.6,1c0.6,0,0.4,0.5,0.4,0.8c0,0.3-0.1,0.5-0.5,0.5c-1.5-0.1-2.9-0.2-4.4,0
			c-0.4,0.1-0.6-0.3-0.8-0.6c-2.4-3.2-4.7-6.4-7.2-9.6c-0.9-1.2-2-2.4-3-3.6c-0.2-0.2-0.4-0.5-0.3-0.8c0.2-0.4,0.5-0.2,0.7-0.2
			c1.2,0,2.4,0,3.5-0.3c4.3-1.2,5-5.3,3.9-8c-0.7-1.7-2.1-2.5-3.8-2.8c-1.7-0.3-3.3-0.1-4.9,0.3c-0.6,0.2-0.9,0.5-0.9,1.2
			c0,1.7-0.2,3.3-0.1,5C153.2,55.4,153.2,57,153.2,58.7z"/>
		<g id="XMLID_2_">
			<g>
				<path class="st2" d="M124.5,45.9c6,1.5,9.5,6.2,9.5,12.6c0,8.1-5.8,14.3-13.9,15c-2.7,0.2-5.3,0-7.8-1.1
					c-4.6-2.1-6.8-5.9-7.5-10.7c-0.4-2.5-0.2-5,0.6-7.3c1.7-4.9,5.3-7.7,10.3-8.7C118.6,45.2,121.5,45.2,124.5,45.9z M129.8,59.7
					c0-1.1-0.1-2.4-0.4-3.7c-1-4.2-3.2-7.3-7.5-8.5c-1.2-0.3-2.5-0.4-3.8-0.4c-4.2,0.1-7.5,2.4-8.8,6.4c-1.5,4.9-0.9,9.6,1.9,13.9
					c2,3.1,4.9,4.5,8.6,4.5c4.4,0,7.6-2.2,9.1-6.4C129.6,63.7,129.8,61.8,129.8,59.7z"/>
			</g>
			<g>
			</g>
		</g>
		<path class="st2" d="M48.6,45.9c4,0,7.5-0.2,10.9,0c0.7,0,0.7,0.2,0.6,0.8c-0.4,1.4-0.5,2.9-0.6,4.4c0,0.5,0,0.9-0.7,0.9
			c-0.7,0-0.7-0.3-0.7-0.8c0-0.6-0.1-1.3-0.1-1.9c0-0.5-0.3-0.8-0.8-1c-2.7-0.7-5.4-0.6-8.2-0.5c-0.1,0-0.3,0-0.4,0
			c-1.7,0.1-1.7,0.1-1.7,1.9c0,2.6-0.1,5.2-0.1,7.9c0,0.5,0.1,0.8,0.7,0.8c2.3,0,4.7,0.2,7-0.1c1-0.1,1.3-0.4,1.4-1.5
			c0-0.4,0-0.9,0-1.3c0-0.6,0.3-0.6,0.7-0.6c0.4,0,0.7,0,0.7,0.6c-0.1,1.4-0.1,2.9-0.1,4.3c0,1.1,0.1,2.3,0.1,3.4
			c0,0.6-0.2,0.8-0.7,0.8c-0.6,0-0.7-0.2-0.7-0.8c0-0.5,0-1.1-0.1-1.7c-0.2-0.7-0.5-1.1-1.3-1.2c-2.4-0.3-4.8-0.3-7.3-0.1
			c-0.5,0-0.4,0.4-0.4,0.7c0,2.6,0,5.1,0.1,7.7c0,0.4,0,0.8,0,1.2c0,1.5,0,1.6,1.5,1.6c3,0.1,5.9,0.3,8.9-0.2
			c0.9-0.1,1.5-0.5,1.6-1.5c0.1-0.9,0.4-1.7,0.5-2.5c0.1-0.7,0.6-0.6,1-0.6c0.6,0,0.4,0.4,0.4,0.7c-0.1,1.8-0.5,3.6-0.4,5.5
			c0,0.4-0.3,0.4-0.6,0.5c-1.4,0.2-2.9,0.1-4.3,0.1c-5,0-10-0.3-15.1,0c-0.5,0-0.9,0-0.9-0.7c0-0.4,0.2-0.6,0.6-0.6
			c0.4,0,0.9-0.1,1.3-0.1c0.8,0,1.2-0.5,1.3-1.3c0.1-0.6,0.2-1.1,0.2-1.7c0-5.5,0-11,0-16.4c0-1.2-0.1-2.4-0.1-3.5
			c-0.1-1.2-0.4-1.5-1.6-1.6c-0.5,0-0.9-0.1-1.4-0.1c-0.6,0-0.9-0.2-0.8-0.9c0-0.4,0.2-0.6,0.6-0.6c0.7,0,1.5,0,2.2,0
			C44.2,46,46.7,45.9,48.6,45.9z"/>
		<path class="st2" d="M81.8,45.9c3.6-0.1,6.6-0.2,9.5-0.1c0.2,0,0.5,0,0.7,0c0.6,0,0.8,0.3,0.6,0.9c-0.3,1.5-0.5,2.9-0.5,4.4
			c0,0.4,0,0.7-0.6,0.7c-0.5,0-0.8-0.1-0.8-0.7c0-0.7-0.2-1.5-0.2-2.2c0-0.5-0.3-0.7-0.8-0.8c-1.7-0.4-3.4-0.6-5.1-0.5
			c-1.2,0-2.4,0-3.5,0.2c-0.4,0.1-0.6,0.2-0.6,0.7c-0.3,3.1-0.1,6.2-0.2,9.4c0,0.4,0.2,0.6,0.6,0.6c2.3,0.1,4.6,0,6.8-0.1
			c0.6,0,1-0.4,1.1-1c0.1-0.6,0.2-1.2,0.3-1.8c0.1-0.6,0.5-0.5,0.9-0.5c0.5,0,0.5,0.3,0.5,0.6c-0.2,2.7-0.2,5.3-0.1,8
			c0,0.5-0.3,0.6-0.7,0.6c-0.4,0-0.7-0.1-0.7-0.6c0-0.7,0-1.3-0.1-2c-0.1-0.7-0.5-1.2-1.2-1.3c-2.3-0.3-4.5-0.1-6.8-0.1
			c-0.4,0-0.5,0.2-0.5,0.5c0.1,3.3-0.2,6.6,0.2,9.9c0.1,0.8,0.5,1.2,1.3,1.3C82.4,72,83,72,83.6,72c0.5,0,0.6,0.2,0.6,0.7
			c0,0.5-0.2,0.6-0.6,0.6c-2-0.1-4.1-0.1-6.1-0.1c-1.4,0-2.8,0.1-4.3,0.1c-0.5,0-0.7-0.1-0.7-0.6c0-0.5,0.1-0.7,0.6-0.7
			c0.7,0,1.4,0.1,2.2-0.1c0.5-0.1,0.9-0.4,1-1c0.2-1.3,0.2-2.5,0.2-3.8c0-5,0-10,0-15c0-1.2-0.1-2.4-0.2-3.7
			c-0.1-0.7-0.5-1.1-1.2-1.2c-0.6-0.1-1.2-0.1-1.9-0.1c-0.5,0-0.7-0.2-0.7-0.7c0-0.5,0.3-0.7,0.7-0.6C76.4,46,79.4,45.9,81.8,45.9z"
			/>
	</g>
	<g id="XMLID_4_">
		<g>
			<path d="M150.4,88.1c1.4,0.1,2.1,1.2,1.6,2.6c-0.4,1.1-1.8,1.9-3,1.6c-0.2,0-0.4-0.1-0.4-0.3c0-0.3,0.3-0.2,0.5-0.2
				c0.9-0.1,1.4-0.7,1.3-1.7c-0.1-1-0.6-1.5-1.5-1.5c-0.5,0-0.8,0.2-0.8,0.7c0,0.9,0,1.9,0,2.8c0,0,0,0,0,0c0,0.8,0,1.7,0,2.5
				c0,0.6,0.1,1,0.8,1c0.2,0,0.4,0,0.4,0.3c0,0.2-0.3,0.2-0.4,0.2c-1,0-2,0-3,0c-0.2,0-0.4,0-0.5-0.3c0-0.3,0.2-0.3,0.4-0.3
				c0.5-0.1,0.6-0.3,0.6-0.7c0.1-1.8,0.1-3.7,0-5.5c0-0.4-0.1-0.8-0.6-0.8c-0.2,0-0.3-0.1-0.3-0.3c0-0.3,0.2-0.3,0.4-0.3
				C147.3,88,148.8,88,150.4,88.1z"/>
			<path d="M142.9,88.5c1.3,0.8,1.8,2.1,1.7,3.6c-0.1,1.7-0.8,3.1-2.5,3.8c-1.5,0.6-3,0.6-4.5,0c-0.7-0.3-1.3-0.8-1.6-1.5
				c-1.6-2.9,0.2-6.2,3.5-6.5c0.2,0,0.4,0,0.7,0C141.1,87.9,142,88,142.9,88.5z M142.4,94.2c0.3-0.6,0.3-1.3,0.4-2
				c0-0.8-0.1-1.7-0.5-2.5c-0.5-1-1.4-1.4-2.4-1.3c-1,0-1.8,0.5-2.2,1.5c-0.6,1.6-0.5,3.1,0.3,4.7c0.5,1,1.4,1.3,2.4,1.2
				C141.3,95.7,142,95.2,142.4,94.2z"/>
			<path d="M134.3,95.7c0.2,0,0.3,0.1,0.3,0.3c0,0.2-0.2,0.2-0.4,0.2c-0.5,0-1,0-1.5,0c-0.5,0-1,0-1.5,0c-0.2,0-0.4,0-0.4-0.3
				c0-0.2,0.1-0.3,0.3-0.3c0.6,0,0.7-0.4,0.7-0.9c0-0.6,0-1.2,0-1.9c0-0.4-0.1-0.6-0.5-0.6c-0.8,0-1.7,0-2.5,0
				c-0.5,0-0.6,0.2-0.6,0.6c0,0.5,0,1.1,0,1.6c0,0.6,0,1.1,0.8,1.1c0.2,0,0.3,0.1,0.3,0.3c0,0.2-0.2,0.2-0.3,0.2c-1.1,0-2.1,0-3.2,0
				c-0.2,0-0.3,0-0.3-0.2c0-0.2,0.1-0.3,0.3-0.3c0.6,0,0.8-0.4,0.8-1c0-1.7,0-3.4,0-5.2c0-0.5-0.1-0.9-0.7-1c-0.2,0-0.4-0.1-0.3-0.3
				c0-0.2,0.2-0.2,0.4-0.2c1,0,2.1,0,3.1,0c0.2,0,0.4,0,0.4,0.3c0,0.3-0.2,0.3-0.4,0.3c-0.5,0.1-0.7,0.4-0.7,0.8c0,0.6,0,1.2,0,1.9
				c0,0.4,0.2,0.5,0.5,0.5c0.8,0,1.7,0,2.5,0c0.5,0,0.6-0.2,0.6-0.6c0-0.5,0-0.9,0-1.4c0-0.6,0-1.2-0.8-1.2c-0.2,0-0.2-0.1-0.2-0.3
				c0-0.2,0.1-0.2,0.3-0.2c1.1,0,2.2,0,3.3,0c0.1,0,0.3,0,0.3,0.2c0,0.2-0.1,0.3-0.3,0.3c-0.7,0-0.8,0.6-0.8,1.1c0,1.7,0,3.3,0,5
				C133.5,95.2,133.6,95.6,134.3,95.7z"/>
			<path d="M124.4,92.7c0.3,1,0.1,1.9-0.6,2.6c-0.8,0.8-1.8,1.1-2.9,1.1c-0.3,0-0.5,0-0.8-0.1c-1.6-0.2-1.8-0.6-1.5-2.2
				c0-0.2,0.1-0.3,0.3-0.3c0.2,0,0.2,0.2,0.2,0.3c0.3,1.4,1.9,2.1,3.1,1.4c0.6-0.4,0.8-0.9,0.7-1.6c-0.1-0.6-0.5-0.9-1.1-1
				c-0.5-0.1-1.1-0.2-1.6-0.3c-1.2-0.3-1.7-0.8-1.8-1.9c-0.1-1,0.5-2.1,1.4-2.5c1.2-0.5,2.5-0.4,3.7,0c0.3,0.1,0.4,0.3,0.3,0.6
				c-0.1,0.4-0.1,0.7-0.1,1.1c0,0.2,0,0.3-0.2,0.3c-0.3,0-0.3-0.1-0.3-0.3c0-0.4-0.1-0.9-0.6-1.1c-0.6-0.3-1.2-0.4-1.9-0.1
				c-0.6,0.2-0.9,0.7-0.9,1.3c0,0.6,0.4,1,1,1.1c0.5,0.1,1.1,0.2,1.6,0.3C123.4,91.5,124.1,91.8,124.4,92.7z"/>
			<path d="M117.3,95.6c0.2,0.1,0.3,0.1,0.3,0.4c-0.1,0.2-0.3,0.2-0.4,0.2c0,0,0,0-0.1,0c-1.2,0.2-2.1-0.2-2.7-1.4
				c-0.4-0.9-1-1.6-1.6-2.4c-0.2-0.3-0.2-0.5,0.2-0.5c1.2-0.2,1.8-1.1,1.5-2.2c-0.2-0.8-1.4-1.4-2.1-1.1c-0.2,0.1-0.2,0.3-0.2,0.5
				c0,0.5,0,1,0,1.5c0,0.5,0,1-0.1,1.5c0,0.9,0.1,1.8,0.1,2.7c0,0.5,0.1,0.8,0.6,0.9c0.2,0,0.3,0.1,0.3,0.3c0,0.2-0.2,0.2-0.4,0.2
				c-1,0-2,0-2.9,0c-0.2,0-0.4,0-0.4-0.3c0-0.2,0.1-0.3,0.3-0.3c0.6-0.1,0.6-0.5,0.6-0.9c0-1.7,0-3.4,0-5.2c0-0.5,0-0.9-0.6-1
				c-0.2,0-0.3-0.1-0.3-0.3c0-0.2,0.2-0.2,0.3-0.2c1.7,0,3.3,0,5,0c0.7,0,1.2,0.4,1.4,1.1c0.2,0.8,0,1.6-0.7,2.2
				c-0.3,0.3-0.9,0.3-0.9,0.7c0,0.3,0.4,0.7,0.6,1c0.4,0.6,0.8,1.2,1.3,1.8C116.8,95.2,116.9,95.5,117.3,95.6z"/>
			<path d="M108.4,94.4c0.3,0,0.2,0.2,0.2,0.4c0,0,0,0,0,0.1c0,1.4,0,1.4-1.4,1.4c-1.4,0-2.8,0-4.2,0c-0.2,0-0.4,0.1-0.5-0.1
				c-0.1-0.2,0.1-0.3,0.3-0.3c0.2-0.1,0.2-0.4,0.2-0.6c0.1-2,0.1-3.9,0.1-5.9c0-0.4-0.2-0.6-0.6-0.6c-0.2,0-0.4,0-0.4-0.3
				c0-0.3,0.3-0.3,0.5-0.3c0.9,0,1.7,0,2.6,0s1.7,0,2.6,0c0.5,0,0.7,0.2,0.6,0.6c0,0.2,0,0.3-0.1,0.5c0,0.2,0,0.5-0.2,0.5
				c-0.3,0-0.3-0.3-0.3-0.5c0-0.3-0.2-0.4-0.5-0.5c-0.7-0.1-1.4-0.1-2.1-0.1c-0.3,0-0.4,0.2-0.4,0.5c0,0.8,0,1.5,0,2.3
				c0,0.1,0,0.3,0.1,0.4c0.4,0.2,0.9,0.1,1.3,0.1c0.5,0,0.9,0,0.9-0.6c0-0.2,0.1-0.3,0.3-0.3c0.2,0,0.2,0.2,0.2,0.3
				c0,0.6,0,1.2,0,1.7c0,0.2,0,0.4-0.2,0.4c-0.3,0-0.3-0.2-0.3-0.4c0-0.6-0.5-0.7-0.9-0.7c-1.5,0-1.4-0.2-1.4,1.3c0,0.5,0,1,0,1.5
				c0,0.3,0.1,0.5,0.5,0.5c0.4,0,0.9,0,1.3,0c0.7,0,1.4-0.1,1.4-1C108.1,94.5,108.2,94.3,108.4,94.4z"/>
			<path d="M99,91.7c1.7,0.3,2.4,1.1,2.1,2.3c-0.2,1.1-0.9,1.8-2,2c-1.3,0.3-2.7,0.1-4.1,0.1c-0.3,0-0.4-0.2-0.2-0.4
				c0.3-0.2,0.3-0.5,0.3-0.8c0-1.8,0.1-3.7,0-5.5c0-0.5-0.1-0.9-0.7-0.9c-0.2,0-0.3-0.1-0.3-0.3c0-0.3,0.2-0.3,0.4-0.3
				c1.5,0,3,0,4.5,0c1,0,1.6,0.6,1.8,1.3c0.2,0.8-0.3,1.6-1.2,2C99.4,91.5,99.3,91.6,99,91.7z M99.3,93.8c0-1.2-0.6-1.8-1.8-1.8
				c-0.4,0-0.5,0.1-0.5,0.5c0,0.8,0,1.6,0,2.5c0,0.5,0.3,0.6,0.7,0.6C98.7,95.7,99.3,95,99.3,93.8z M97.6,91.5
				c1.2-0.1,1.8-1.3,1.3-2.3c-0.2-0.4-1-0.7-1.6-0.6c-0.5,0.2-0.2,0.6-0.3,0.9c0,0.2,0,0.4,0,0.5c0,0,0,0,0,0c0,0.3,0,0.6,0,0.9
				C96.9,91.4,97.1,91.5,97.6,91.5z"/>
			<path d="M93.4,95.7c0.2,0.1,0.2,0.2,0.2,0.3c0,0.2-0.2,0.2-0.3,0.2c-0.6,0-1.2,0-1.7,0c-0.2,0-0.4-0.2-0.5-0.3
				c-0.8-1.1-1.5-2.3-2.3-3.4c-0.3-0.4-0.2-0.5,0.3-0.6c1.2-0.2,1.8-1.2,1.4-2.3c-0.2-0.7-1.4-1.2-2.1-1c-0.3,0.1-0.2,0.4-0.2,0.6
				c0,1,0,1.9,0,2.9c-0.1,0.9,0,1.9,0,2.8c0,0.4,0.1,0.7,0.6,0.8c0.2,0,0.4,0.1,0.3,0.3c0,0.3-0.2,0.2-0.4,0.2c-1,0-1.9,0-2.9,0
				c-0.2,0-0.4,0-0.4-0.2c0-0.3,0.2-0.3,0.3-0.3c0.5-0.1,0.6-0.4,0.6-0.8c0-1.8,0-3.5,0-5.3c0-0.5,0-0.9-0.6-0.9
				c-0.2,0-0.3-0.1-0.3-0.3c0-0.3,0.2-0.3,0.4-0.3c1.6,0,3.2,0,4.8,0c0.7,0,1.3,0.4,1.6,1.1c0.3,0.8,0,1.6-0.7,2.2
				c-0.3,0.2-0.9,0.2-0.8,0.7c0,0.3,0.4,0.6,0.6,0.9c0.4,0.5,0.7,1.1,1.1,1.6C92.7,95.1,92.9,95.5,93.4,95.7z"/>
			<path d="M84.7,95.7c0.2,0,0.3,0.2,0.2,0.3c0,0.2-0.2,0.2-0.3,0.2c-0.5,0-1,0-1.5,0c-0.5,0-1,0-1.5,0c-0.2,0-0.3,0-0.3-0.2
				c0-0.2,0.1-0.3,0.3-0.3c0.6-0.1,0.6-0.4,0.4-0.8c0,0,0-0.1,0-0.1c-0.4-1-0.4-1-1.5-1c-0.3,0-0.6,0-0.9,0c-1.1,0-1,0-1.4,1
				c-0.2,0.5-0.2,0.9,0.5,1c0.2,0,0.3,0.1,0.3,0.3c0,0.2-0.2,0.2-0.3,0.2c-0.7,0-1.3,0-2,0c-0.2,0-0.4,0-0.4-0.3
				c0-0.2,0.1-0.3,0.3-0.3c0.5-0.1,0.6-0.5,0.8-0.8c0.9-2,1.7-4.1,2.6-6.1c0.1-0.3,0.2-0.7,0.7-0.7c0.5,0,0.6,0.4,0.7,0.7
				c0.9,2,1.7,4,2.6,6C84,95.2,84.2,95.6,84.7,95.7z M80.6,93.1c0.3,0,0.5-0.1,0.3-0.4c-0.3-0.8-0.6-1.6-1-2.4
				c-0.3,0.4-0.4,0.8-0.6,1.2C78.6,93.4,78.2,93.1,80.6,93.1z"/>
			<path d="M75.1,93.4c0.1,1-0.4,2-1.5,2.5c-0.6,0.3-1.1,0.4-1.8,0.4c-0.9,0-1.9,0-2.8,0c-0.1,0-0.3,0-0.3-0.1c0-0.1,0-0.2,0.1-0.3
				c0.2-0.2,0.3-0.4,0.3-0.7c0.1-1.9,0.1-3.7,0-5.6c0-0.5-0.1-0.8-0.7-0.9c-0.2,0-0.3-0.1-0.3-0.3c0-0.2,0.2-0.2,0.4-0.2
				c1.5,0,3,0,4.5,0c1,0,1.6,0.6,1.7,1.4c0.1,0.8-0.3,1.5-1.2,2c-0.2,0.1-0.4,0.2-0.6,0.3c0.1,0.1,0.1,0.1,0.1,0.1
				C74.4,92,75,92.4,75.1,93.4z M71.8,95.7c1-0.1,1.5-0.8,1.5-1.9c0-1-0.5-1.6-1.5-1.7c-0.5,0-0.9,0-0.8,0.7c0,0.4,0,0.7,0,1.1
				c0,0.4,0,0.8,0,1.1C70.9,95.6,71.3,95.7,71.8,95.7z M71.6,91.5c1.2-0.1,1.8-1.3,1.2-2.3c-0.2-0.4-1.1-0.7-1.6-0.6
				c-0.5,0.2-0.2,0.6-0.3,0.9c0,0.2,0,0.4,0,0.5c0,0,0,0,0,0c0,0.3,0,0.6,0,0.9C70.9,91.4,71.2,91.6,71.6,91.5z"/>
		</g>
		<g>
		</g>
	</g>
	<rect x="166.9" y="92.1" width="28.3" height="1.4"/>
	<rect x="25.1" y="92.1" width="28.3" height="1.4"/>
</g>
</svg>
