<?xml version="1.0" encoding="utf-8"?>
<!-- Generator: Adobe Illustrator 23.0.1, SVG Export Plug-In . SVG Version: 6.00 Build 0)  -->
<svg version="1.1" id="Layer_1" xmlns="http://www.w3.org/2000/svg" xmlns:xlink="http://www.w3.org/1999/xlink" x="0px" y="0px"
	 viewBox="0 0 141.8 68.2" style="enable-background:new 0 0 141.8 68.2;" xml:space="preserve">
<style type="text/css">
	.st0{fill:#010101;}
	.st1{font-family:'BookAntiqua';}
	.st2{font-size:25.8406px;}
	.st3{font-family:'BookAntiqua-Bold';}
	.st4{font-size:7.5339px;}
</style>
<g>
	<g id="XMLID_3_">
		<g>
			<path class="st0" d="M124,1.4v16.8c0,1.9-1.6,3.5-3.5,3.5H21.2c-1.9,0-3.5-1.6-3.5-3.5V1.4c0-0.5,0.4-0.9,0.9-0.9h5.3
				c0.5,0,0.9,0.4,0.9,0.9v12.4c0,0.5,0.4,0.9,0.9,0.9h0.9h1.7h1.8h1.7h1.7h1.8h1.8H39h1.8h1.7h1.8H46h1.8h1.7h1.8H53h1.8h1.8h1.7
				H60h1.7h1.8h1.8H67h1.8h1.8h1.8H74h1.7h1.8h1.8H81h1.7h1.8h1.8H88h1.8h1.7h1.8H95h1.8h1.7h1.8h1.8h1.8h1.7h1.8h1.8h1.8h1.8h1.7
				h1.8h0.9c0.5,0,0.9-0.4,0.9-0.9V1.4c0-0.5,0.4-0.9,0.9-0.9h3.5C123.6,0.5,124,0.9,124,1.4z"/>
			<path class="st0" d="M116.9,1.4v13.3h-1.8V1.4c0-0.5,0.4-0.9,0.9-0.9C116.5,0.5,116.9,0.9,116.9,1.4z"/>
			<path class="st0" d="M113.4,1.4v13.3h-1.7V1.4c0-0.5,0.4-0.9,0.9-0.9C113,0.5,113.4,0.9,113.4,1.4z"/>
			<path class="st0" d="M109.8,1.4v13.3h-1.8V1.4c0-0.5,0.4-0.9,0.9-0.9C109.4,0.5,109.8,0.9,109.8,1.4L109.8,1.4z"/>
			<path class="st0" d="M106.3,1.4v13.3h-1.7V1.4c0-0.5,0.4-0.9,0.9-0.9C105.9,0.5,106.3,0.9,106.3,1.4z"/>
			<path class="st0" d="M102.7,1.4v13.3H101V1.4c0-0.5,0.4-0.9,0.9-0.9C102.3,0.5,102.7,0.9,102.7,1.4z"/>
			<path class="st0" d="M99.2,1.4v13.3h-1.7V1.4c0-0.5,0.4-0.9,0.9-0.9C98.8,0.5,99.2,0.9,99.2,1.4z"/>
			<path class="st0" d="M95.6,1.4v13.3h-1.8V1.4c0-0.5,0.4-0.9,0.9-0.9C95.2,0.5,95.6,0.9,95.6,1.4z"/>
			<path class="st0" d="M92.1,1.4v13.3h-1.8V1.4c0-0.5,0.4-0.9,0.9-0.9C91.7,0.5,92.1,0.9,92.1,1.4z"/>
			<path class="st0" d="M88.6,1.4v13.3h-1.8V1.4c0-0.5,0.4-0.9,0.9-0.9C88.2,0.5,88.6,0.9,88.6,1.4z"/>
			<path class="st0" d="M85,1.4v13.3h-1.8V1.4c0-0.5,0.4-0.9,0.9-0.9C84.6,0.5,85,0.9,85,1.4z"/>
			<path class="st0" d="M81.5,1.4v13.3h-1.8V1.4c0-0.5,0.4-0.9,0.9-0.9C81.1,0.5,81.5,0.9,81.5,1.4z"/>
			<path class="st0" d="M77.9,1.4v13.3h-1.8V1.4c0-0.5,0.4-0.9,0.9-0.9C77.5,0.5,77.9,0.9,77.9,1.4z"/>
			<path class="st0" d="M74.4,1.4v13.3h-1.7V1.4c0-0.5,0.4-0.9,0.9-0.9C74,0.5,74.4,0.9,74.4,1.4z"/>
			<path class="st0" d="M70.8,1.4v13.3h-1.8V1.4c0-0.5,0.4-0.9,0.9-0.9C70.4,0.5,70.8,0.9,70.8,1.4z"/>
			<path class="st0" d="M67.3,1.4v13.3h-1.7V1.4c0-0.5,0.4-0.9,0.9-0.9C66.9,0.5,67.3,0.9,67.3,1.4z"/>
			<path class="st0" d="M63.8,1.4v13.3H62V1.4c0-0.5,0.4-0.9,0.9-0.9C63.4,0.5,63.8,0.9,63.8,1.4z"/>
			<path class="st0" d="M60.2,1.4v13.3h-1.8V1.4c0-0.5,0.4-0.9,0.9-0.9C59.8,0.5,60.2,0.9,60.2,1.4z"/>
			<path class="st0" d="M56.7,1.4v13.3h-1.7V1.4c0-0.5,0.4-0.9,0.9-0.9C56.3,0.5,56.7,0.9,56.7,1.4z"/>
			<path class="st0" d="M53.1,1.4v13.3h-1.7V1.4c0-0.5,0.4-0.9,0.9-0.9C52.7,0.5,53.1,0.9,53.1,1.4z"/>
			<path class="st0" d="M49.6,1.4v13.3h-1.7V1.4c0-0.5,0.4-0.9,0.9-0.9C49.2,0.5,49.6,0.9,49.6,1.4z"/>
			<path class="st0" d="M46,1.4v13.3h-1.7V1.4c0-0.5,0.4-0.9,0.9-0.9C45.6,0.5,46,0.9,46,1.4z"/>
			<path class="st0" d="M42.5,1.4v13.3h-1.7V1.4c0-0.5,0.4-0.9,0.9-0.9C42.1,0.5,42.5,0.9,42.5,1.4z"/>
			<path class="st0" d="M39,1.4v13.3h-1.8V1.4c0-0.5,0.4-0.9,0.9-0.9S39,0.9,39,1.4z"/>
			<path class="st0" d="M35.4,1.4v13.3h-1.8V1.4c0-0.5,0.4-0.9,0.9-0.9C35,0.5,35.4,0.9,35.4,1.4z"/>
			<path class="st0" d="M31.9,1.4v13.3h-1.7V1.4c0-0.5,0.4-0.9,0.9-0.9C31.5,0.5,31.9,0.9,31.9,1.4z"/>
			<path class="st0" d="M28.3,1.4v13.3h-1.7V1.4c0-0.5,0.4-0.9,0.9-0.9S28.3,0.9,28.3,1.4z"/>
		</g>
	</g>
</g>
<text transform="matrix(1 0 0 1 0 50.8355)" class="st1 st2">R E F O R M</text>
<text transform="matrix(1 0 0 1 44.291 67.9635)" class="st3 st4">BARBERSHOP</text>
<rect x="106.3" y="65.6" width="17.7" height="0.9"/>
<rect x="17.7" y="65.6" width="17.7" height="0.9"/>
</svg>
